<?xml version="1.0" encoding="UTF-8"?>
<svg version="1.1" xmlns="http://www.w3.org/2000/svg" width="2000" height="1769">
<path d="M0 0 C2.4147641 -0.00344139 4.82952661 -0.00819346 7.24428588 -0.01412097 C12.46902822 -0.02396719 17.69368628 -0.02469031 22.91842881 -0.01704793 C30.74010685 -0.00566214 38.56170779 -0.0117998 46.38338514 -0.02111193 C59.72017263 -0.03648392 73.05692741 -0.03774002 86.39372063 -0.0311327 C99.8973207 -0.02449105 113.40089743 -0.0243974 126.90449715 -0.03217983 C127.75941097 -0.03266783 128.6143248 -0.03315583 129.49514511 -0.03365862 C132.97744618 -0.03566694 136.45974721 -0.03772006 139.94204822 -0.03983036 C175.24062589 -0.06119882 210.53918629 -0.06329058 245.8377688 -0.05777332 C250.71057813 -0.05701756 255.58338745 -0.05628994 260.45619678 -0.05559134 C261.42412895 -0.05545225 262.39206112 -0.05531316 263.38932457 -0.05516986 C284.86351989 -0.05221448 306.33771314 -0.0552334 327.81190808 -0.05948763 C330.75303252 -0.06006979 333.69415697 -0.06063864 336.63528141 -0.06120327 C344.51993866 -0.06271829 352.4045959 -0.0642452 360.28925314 -0.06579627 C415.31309038 -0.07654901 470.33692569 -0.08125895 525.36076355 -0.07332611 C526.39740584 -0.0731778 527.43404814 -0.0730295 528.50210384 -0.0728767 C540.06112623 -0.07121778 551.62014862 -0.06946819 563.179171 -0.06768369 C564.22273211 -0.06752266 565.26629322 -0.06736164 566.34147739 -0.06719574 C574.80884097 -0.06588826 574.80884097 -0.06588826 579.00216563 -0.06523455 C645.7510252 -0.05484341 712.4998584 -0.06261051 779.24871445 -0.086236 C796.0689061 -0.09217965 812.88909777 -0.09807132 829.70928955 -0.10364532 C831.26292549 -0.10416098 831.26292549 -0.10416098 832.84794801 -0.10468705 C864.78177781 -0.1152183 896.71560541 -0.12080856 928.64943695 -0.12120247 C930.15378333 -0.12122164 930.15378333 -0.12122164 931.68852055 -0.1212412 C953.7066657 -0.12146952 975.72481065 -0.12046317 997.74295569 -0.11833215 C1005.62173787 -0.11757742 1013.50052004 -0.11689921 1021.37930222 -0.116252 C1023.33924693 -0.11608931 1025.29919164 -0.11592164 1027.25913634 -0.11574898 C1058.45588941 -0.11303065 1089.65262644 -0.12156983 1120.84937606 -0.13560309 C1153.15150675 -0.15002704 1185.45360701 -0.14953992 1217.75573668 -0.13222837 C1221.2290664 -0.13042428 1224.70239615 -0.12868408 1228.17572594 -0.12699413 C1229.45429791 -0.12636338 1229.45429791 -0.12636338 1230.75869962 -0.12571989 C1244.22046632 -0.11943788 1257.68219099 -0.12650193 1271.14395177 -0.13920333 C1284.40145107 -0.15142731 1297.65888448 -0.14922247 1310.91637885 -0.13198302 C1318.67444326 -0.12231562 1326.43231979 -0.12334238 1334.19037161 -0.140813 C1339.97359085 -0.15259132 1345.75662983 -0.14315909 1351.53982841 -0.12596715 C1353.84735388 -0.12226707 1356.15490279 -0.12508634 1358.46240691 -0.13568023 C1378.30864697 -0.22043176 1398.3368562 1.14958047 1417.30291367 7.38031673 C1418.64514739 7.79897282 1419.98755907 8.21705943 1421.33025742 8.63422298 C1436.33439193 13.56352972 1450.81274253 20.63843013 1463.30291367 30.38031673 C1464.1163121 31.00422298 1464.92971054 31.62812923 1465.76775742 32.27094173 C1502.18639451 60.77736337 1525.37022432 98.48894238 1532.30291367 144.38031673 C1533.09833556 152.68527813 1532.97777765 161.02016117 1532.93211937 169.35407162 C1532.93734778 171.79904177 1532.94476343 174.24400804 1532.9541412 176.6889658 C1532.9694661 181.98002314 1532.96956665 187.27074217 1532.95572348 192.56177902 C1532.93509433 200.48257798 1532.94370834 208.40317078 1532.95763669 216.32397492 C1532.98054472 229.82945821 1532.97993176 243.33484705 1532.9662323 256.84033871 C1532.95244612 270.514878 1532.94959825 284.18935522 1532.95991898 297.86389828 C1532.96056484 298.72958302 1532.9612107 299.59526777 1532.96187614 300.48718538 C1532.96454268 304.0133421 1532.96728624 307.53949875 1532.97012751 311.06565533 C1532.99653593 343.86301851 1532.99838464 376.66034011 1532.98439026 409.45770931 C1532.98397628 410.42838254 1532.9835623 411.39905576 1532.98313578 412.39914332 C1532.98251381 413.85749847 1532.98251381 413.85749847 1532.98187927 415.34531534 C1532.96925429 444.98678892 1532.96601061 474.62824532 1532.97199249 504.26972103 C1532.97237989 506.25605057 1532.97276567 508.2423801 1532.97314984 510.22870964 C1532.97470223 518.21130995 1532.97629557 526.19391025 1532.97794866 534.17651054 C1532.98253329 556.49001056 1532.98538659 578.80351064 1532.98687935 601.11701107 C1532.98694758 602.13304347 1532.98701581 603.14907588 1532.9870861 604.19589714 C1532.98913194 636.56226391 1532.98350091 668.92862469 1532.97263145 701.29498959 C1532.97228021 702.34448197 1532.97192896 703.39397436 1532.97156708 704.47526955 C1532.9658426 721.51743623 1532.95974516 738.55960278 1532.95361621 755.60176931 C1532.92933526 823.1894267 1532.93046226 890.77703456 1532.95476913 958.36469173 C1532.96087528 975.3983424 1532.96693062 992.43199308 1532.97263145 1009.46564388 C1532.9729837 1010.51452368 1532.97333594 1011.56340348 1532.97369885 1012.64406752 C1532.9844827 1044.97725327 1532.9890506 1077.3104349 1532.98687935 1109.6436224 C1532.98677747 1111.1665463 1532.98677747 1111.1665463 1532.98667353 1112.72023634 C1532.98511101 1135.00910969 1532.98194257 1157.29798261 1532.97732683 1179.58685553 C1532.97568119 1187.56224134 1532.97411577 1195.53762716 1532.97257328 1203.51301298 C1532.97218634 1205.49700979 1532.97179268 1207.48100659 1532.9713923 1209.46500339 C1532.96542873 1239.09717291 1532.970498 1268.72932305 1532.98313578 1298.36149015 C1532.98375675 1299.81749998 1532.98375675 1299.81749998 1532.98439026 1301.30292416 C1532.98480367 1302.27180006 1532.98521708 1303.24067596 1532.98564302 1304.23891173 C1532.99944513 1336.94330404 1532.99433877 1369.64764652 1532.96798654 1402.35203171 C1532.96522488 1405.86693282 1532.96254135 1409.38183398 1532.95991898 1412.89673519 C1532.95926794 1413.75932865 1532.95861691 1414.62192211 1532.95794615 1415.51065477 C1532.94810047 1429.14584357 1532.95493299 1442.7809702 1532.96876401 1456.41615338 C1532.98202011 1469.83715531 1532.97729372 1483.25805279 1532.95369357 1496.67904153 C1532.94040018 1504.53760229 1532.9405409 1512.39587599 1532.96110155 1520.25442272 C1532.97486023 1526.10484301 1532.96225971 1531.95502214 1532.93982018 1537.80542159 C1532.93481626 1540.14541213 1532.93803013 1542.48543982 1532.95084987 1544.82540059 C1533.17400793 1588.69817886 1516.41815232 1629.52075421 1486.30291367 1661.38031673 C1485.18336288 1662.5965472 1485.18336288 1662.5965472 1484.04119492 1663.83734798 C1477.63456669 1670.56166026 1470.50153433 1675.85393559 1462.94720078 1681.1872015 C1461.45153108 1682.27247809 1460.00650728 1683.42670189 1458.56853867 1684.58734798 C1456.13134898 1686.51608948 1453.59652372 1687.8431554 1450.79900742 1689.18109798 C1448.26198985 1690.3999781 1445.7566656 1691.67504772 1443.24993515 1692.95477962 C1426.36546949 1701.53162665 1426.36546949 1701.53162665 1418.30291367 1702.38031673 C1418.30291367 1703.37031673 1418.30291367 1704.36031673 1418.30291367 1705.38031673 C1417.61326523 1705.44090267 1416.92361679 1705.50148861 1416.21306992 1705.56391048 C1410.2331567 1706.09709891 1404.26739839 1706.69586767 1398.30291367 1707.38031673 C1398.30291367 1708.37031673 1398.30291367 1709.36031673 1398.30291367 1710.38031673 C1397.76666367 1710.19469173 1397.23041367 1710.00906673 1396.67791367 1709.81781673 C1394.27689826 1709.2299033 1394.27689826 1709.2299033 1391.77132045 1709.84521058 C1387.30021592 1710.53501305 1382.95032401 1710.51679216 1378.43340504 1710.50451523 C1376.93964715 1710.50643236 1376.93964715 1710.50643236 1375.41571232 1710.50838822 C1372.05749499 1710.51146635 1368.69932413 1710.5073793 1365.34110832 1710.50336456 C1362.90729117 1710.50410386 1360.47347411 1710.50528209 1358.03965735 1710.50686106 C1352.72039936 1710.50929611 1347.4011552 1710.50860169 1342.0818987 1710.50519992 C1334.11885244 1710.5001273 1326.15581383 1710.50082637 1318.19276653 1710.50266649 C1304.62266593 1710.50563452 1291.05256963 1710.50385697 1277.48246956 1710.49952221 C1263.72665037 1710.49514745 1249.97083341 1710.49294924 1236.2150135 1710.49342442 C1235.34689554 1710.49345311 1234.47877757 1710.4934818 1233.58435299 1710.49351136 C1229.15798866 1710.49366773 1224.73162432 1710.49385968 1220.30525998 1710.4940642 C1188.2484175 1710.49547253 1156.19157699 1710.49203796 1124.13473511 1710.48604679 C1092.38270813 1710.48012676 1060.630682 1710.47627219 1028.87865448 1710.47519398 C1027.89299675 1710.47515957 1026.90733901 1710.47512515 1025.89181286 1710.4750897 C1016.88950677 1710.4747765 1007.88720067 1710.47448881 998.88489458 1710.47423172 C976.50496686 1710.47359228 954.12503916 1710.47263293 931.74511147 1710.47145653 C930.21631835 1710.47137655 930.21631835 1710.47137655 928.65664053 1710.47129496 C879.06412188 1710.46867268 829.47160379 1710.46236481 779.87908554 1710.45575619 C762.66678493 1710.45346455 745.45448431 1710.4511892 728.24218369 1710.44898129 C726.64094701 1710.44877586 726.64094701 1710.44877586 725.00736212 1710.44856629 C675.39352003 1710.44222361 625.77967785 1710.43849707 576.16583546 1710.43544649 C572.94534245 1710.43524843 569.72484944 1710.43504923 566.50435642 1710.43484981 C545.16219605 1710.43353004 523.82003568 1710.43225539 502.47787531 1710.43101095 C460.01133437 1710.42853437 417.54479346 1710.42579269 375.07825255 1710.4228689 C373.0558303 1710.42272966 371.03340805 1710.42259061 369.0109858 1710.42245174 C277.95220757 1710.4161977 186.89342976 1710.40685946 95.83465195 1710.39618587 C94.98191245 1710.39608594 94.12917296 1710.395986 93.25059288 1710.39588304 C50.60136645 1710.39088246 7.95214005 1710.38570593 -34.69708633 1710.38031673 C-34.69708633 1710.71031673 -34.69708633 1711.04031673 -34.69708633 1711.38031673 C-36.34708633 1711.38031673 -37.99708633 1711.38031673 -39.69708633 1711.38031673 C-39.69708633 1710.72031673 -39.69708633 1710.06031673 -39.69708633 1709.38031673 C-40.85724258 1709.13797298 -42.01739883 1708.89562923 -43.21271133 1708.64594173 C-52.25001438 1706.72247153 -61.01628666 1704.59542772 -69.69708633 1701.38031673 C-71.24589493 1700.82730892 -71.24589493 1700.82730892 -72.82599258 1700.26312923 C-81.1038138 1697.21497846 -88.88494512 1693.44450414 -96.69708633 1689.38031673 C-96.69708633 1688.72031673 -96.69708633 1688.06031673 -96.69708633 1687.38031673 C-97.27458633 1687.27719173 -97.85208633 1687.17406673 -98.44708633 1687.06781673 C-101.01757791 1686.28238875 -102.63365917 1685.07527476 -104.69708633 1683.38031673 C-105.35708633 1683.71031673 -106.01708633 1684.04031673 -106.69708633 1684.38031673 C-107.19208633 1682.89531673 -107.19208633 1682.89531673 -107.69708633 1681.38031673 C-108.41896133 1681.13281673 -109.14083633 1680.88531673 -109.88458633 1680.63031673 C-113.3309055 1679.09861933 -114.7180678 1677.1706928 -117.05255508 1674.28656673 C-118.69564114 1672.38199192 -120.40214932 1670.81462688 -122.32208633 1669.19281673 C-133.04496344 1660.05775028 -143.63915388 1649.66912821 -150.69708633 1637.38031673 C-150.69708633 1636.72031673 -150.69708633 1636.06031673 -150.69708633 1635.38031673 C-151.35708633 1635.38031673 -152.01708633 1635.38031673 -152.69708633 1635.38031673 C-170.74267043 1602.2566446 -178.0314646 1571.79733515 -177.94876862 1534.27612305 C-177.95085824 1531.86476672 -177.95382321 1529.45341102 -177.95757735 1527.04205671 C-177.96372367 1521.8092873 -177.96373306 1516.5765558 -177.95821026 1511.34378726 C-177.94997997 1503.51012571 -177.9533952 1495.67649765 -177.95897554 1487.84283528 C-177.96815171 1474.4878426 -177.96788717 1461.13286518 -177.96241379 1447.77787113 C-177.95690388 1434.25121915 -177.95575653 1420.7245772 -177.95988846 1407.19792461 C-177.9601468 1406.3423504 -177.96040515 1405.48677619 -177.96067132 1404.60527549 C-177.96173791 1401.12043427 -177.96283533 1397.63559306 -177.96397187 1394.15075187 C-177.97454141 1361.71971402 -177.97527197 1329.2886829 -177.96967697 1296.85764408 C-177.96951138 1295.89734483 -177.96934579 1294.93704558 -177.96917518 1293.94764635 C-177.96900932 1292.98580456 -177.96884346 1292.02396277 -177.96867258 1291.03297426 C-177.9636247 1261.72086159 -177.96232413 1232.40875169 -177.96471786 1203.09663868 C-177.96487282 1201.13318157 -177.96502714 1199.16972445 -177.9651808 1197.20626734 C-177.96580175 1189.3157836 -177.96643908 1181.42529987 -177.96710033 1173.53481613 C-177.96893429 1151.47803904 -177.97007553 1129.42126194 -177.97067261 1107.36448479 C-177.9706999 1106.36009768 -177.97072719 1105.35571057 -177.97075531 1104.32088748 C-177.97157378 1072.32013337 -177.96932054 1040.31938022 -177.96497345 1008.3186264 C-177.96483295 1007.28082113 -177.96469245 1006.24301585 -177.9645477 1005.17376194 C-177.96225785 988.3208681 -177.9598189 971.4679743 -177.95736735 954.61508049 C-177.94765518 887.77860382 -177.94810527 820.94213516 -177.95782852 754.10565853 C-177.96027094 737.26242257 -177.96269306 720.41918661 -177.96497345 703.57595062 C-177.96511435 702.53882404 -177.96525524 701.50169745 -177.96540041 700.43314278 C-177.9697134 668.466409 -177.97154121 636.49967588 -177.97067261 604.53294182 C-177.97064544 603.52928035 -177.97061827 602.52561889 -177.97059028 601.49154344 C-177.96996529 579.45858728 -177.96869796 557.42563119 -177.9668516 535.3926751 C-177.96619333 527.50896315 -177.96556717 519.6252512 -177.96495018 511.74153925 C-177.9647954 509.78031007 -177.96463794 507.81908088 -177.96447779 505.8578517 C-177.96209149 476.55491047 -177.96412177 447.25197238 -177.96917518 417.94903154 C-177.96934077 416.98881509 -177.96950636 416.02859863 -177.96967697 415.03928471 C-177.96984234 414.0808427 -177.9700077 413.12240069 -177.97017808 412.13491499 C-177.97569671 379.79562315 -177.97366086 347.45633938 -177.96311548 315.11704869 C-177.9620108 311.64273577 -177.96093739 308.16842285 -177.95988846 304.69410992 C-177.95962804 303.84146602 -177.95936763 302.98882211 -177.95909933 302.11034052 C-177.95515808 288.62189028 -177.95789726 275.13345009 -177.96342647 261.64500076 C-177.96872349 248.37460012 -177.96684815 235.10421638 -177.95739829 221.83381787 C-177.95207285 214.05927091 -177.95215171 206.28477037 -177.96036149 198.51022565 C-177.96585008 192.72896263 -177.96084253 186.9477457 -177.95184894 181.16648882 C-177.94984173 178.84922678 -177.95114799 176.53195877 -177.95626082 174.21470151 C-177.99210237 156.72324555 -177.75896286 139.26878957 -172.69708633 122.38031673 C-172.38642227 121.30266048 -172.07575821 120.22500423 -171.75568008 119.11469173 C-169.75656486 112.37257766 -167.43855208 105.85386189 -164.69708633 99.38031673 C-164.22271133 98.22531673 -163.74833633 97.07031673 -163.25958633 95.88031673 C-161.21723892 91.30545852 -158.96956218 86.84442936 -156.69708633 82.38031673 C-156.03708633 82.38031673 -155.37708633 82.38031673 -154.69708633 82.38031673 C-154.03708633 80.07031673 -153.37708633 77.76031673 -152.69708633 75.38031673 C-152.03708633 75.38031673 -151.37708633 75.38031673 -150.69708633 75.38031673 C-150.4405629 74.82601986 -150.18403946 74.27172298 -149.91974258 73.70062923 C-145.32525439 64.98137688 -138.43252005 57.48743827 -131.69708633 50.38031673 C-130.92622696 49.5566058 -130.15536758 48.73289486 -129.36114883 47.88422298 C-110.98957736 28.82891989 -86.94506216 14.96016261 -61.69708633 7.38031673 C-60.62716446 7.02195736 -59.55724258 6.66359798 -58.45489883 6.29437923 C-39.57130242 0.27155352 -19.64097016 -0.06283488 0 0 Z " fill="#387ED8" transform="translate(335.6970863342285,27.619683265686035)"/>
<path d="M0 0 C0.6285791 0.21495117 1.2571582 0.42990234 1.90478516 0.65136719 C23.13827453 7.96798032 41.05456189 22.06780991 51.375 42.25 C52.26951396 44.15763751 53.14684104 46.07351203 54 48 C54.31710937 48.69609375 54.63421875 49.3921875 54.9609375 50.109375 C63.92047224 71.57677507 59.49733481 98.26650307 51 119 C42.60777485 138.84987386 27.75311461 154.3022576 8 163 C7.28328125 163.32097656 6.5665625 163.64195312 5.828125 163.97265625 C-1.02327081 166.66070388 -9.46649466 167.95883046 -16.38671875 164.96875 C-19.9586918 162.36041268 -20.89164448 160.47986016 -21.875 156.125 C-21.10807894 146.65032937 -15.09025201 137.10366349 -10.875 128.75 C-9.91462386 126.8343561 -8.95620784 124.91772794 -8 123 C-7.5565625 122.13117188 -7.113125 121.26234375 -6.65625 120.3671875 C1.92017062 102.01155556 4.33170077 77.2866797 -2 57.9453125 C-6.70941945 45.76898458 -13.17892813 36.78275247 -25.1015625 30.9765625 C-27.04901489 30.19292628 -28.98107468 29.57223033 -31 29 C-31.61488281 28.79632812 -32.22976563 28.59265625 -32.86328125 28.3828125 C-45.39022645 24.83148435 -59.71081759 26.54322653 -72 30 C-73.15371094 30.30550781 -74.30742187 30.61101563 -75.49609375 30.92578125 C-96.88353808 37.25683312 -115.52808387 50.64487737 -131.6171875 65.7734375 C-133.73005118 67.74775274 -135.89818951 69.59492348 -138.125 71.4375 C-142.13049577 74.9105679 -145.35326609 78.90367022 -148.62890625 83.05859375 C-150.49970381 85.37936898 -152.41093042 87.60668114 -154.390625 89.83203125 C-169.26258832 106.74403347 -181.03313615 126.58890721 -190.15039062 147.11279297 C-191.42071096 149.93451026 -192.78417803 152.71122853 -194.125 155.5 C-197.6374003 163.1435161 -200.33686457 171.03082471 -203 179 C-203.33064453 179.96413818 -203.33064453 179.96413818 -203.66796875 180.94775391 C-206.49408797 189.20987063 -208.71248618 197.54489776 -210.625 206.0625 C-210.81908447 206.90441895 -211.01316895 207.74633789 -211.21313477 208.61376953 C-215.46312167 228.32693474 -216.57736788 248.01125822 -216.5 268.125 C-216.49856995 269.32967926 -216.49713989 270.53435852 -216.4956665 271.77554321 C-216.44217505 290.00056346 -215.64454932 307.29341761 -211 325 C-210.76474609 325.93618164 -210.52949219 326.87236328 -210.28710938 327.83691406 C-203.01390272 356.19841275 -189.03220925 383.88883845 -163.8125 400.1875 C-150.0973264 408.28752018 -134.96122828 413.30235691 -119 414 C-117.89269531 414.05285156 -116.78539062 414.10570312 -115.64453125 414.16015625 C-91.80338573 414.74788009 -66.86179186 408.3557661 -47 395 C-46.13157471 394.42378906 -46.13157471 394.42378906 -45.24560547 393.8359375 C-37.78955393 388.85318142 -30.99851544 383.45315014 -24.4609375 377.30859375 C-22.27483019 375.25781689 -20.0389845 373.30879725 -17.75 371.375 C-13.76191041 367.89551292 -10.38886468 364.05552658 -7 360 C-6.2265625 359.1028125 -5.453125 358.205625 -4.65625 357.28125 C19.68580471 328.73192657 38.37144495 293.52633248 50.1875 257.9375 C58.87773756 231.91913814 74.26981666 208.86222739 93 189 C93.62132812 188.32582031 94.24265625 187.65164063 94.8828125 186.95703125 C112.60434387 168.38279021 136.84171421 154.75187647 162.8125 153.6875 C177.2996892 154.08281656 191.25453909 158.43861374 201.890625 168.53125 C208.05197964 175.74231692 212.24768528 183.47068019 213 193 C213.66 193 214.32 193 215 193 C215.38865234 191.92105469 215.38865234 191.92105469 215.78515625 190.8203125 C222.03580857 176.30915182 235.69136587 164.12414094 250.125 158.1875 C254.03102795 156.86737127 257.8915468 156.23437485 262 156 C263.52367187 155.90332031 263.52367187 155.90332031 265.078125 155.8046875 C274.0095384 155.49312657 280.08762292 156.73968577 287 162.5 C289.77411698 165.96764622 290.14824631 168.88498952 290.1875 173.25 C290.20167969 173.95640625 290.21585938 174.6628125 290.23046875 175.390625 C289.54712636 183.12745066 286.63916889 190.77592972 284.46066284 198.19140625 C274.73058857 231.35407093 265.19171363 264.67679192 258.48632812 298.59960938 C257.86135558 301.6843132 257.14739325 304.74636532 256.4375 307.8125 C253.1113753 323.56380315 250.64385805 339.44024963 250.5625 355.5625 C250.55259033 356.56579346 250.54268066 357.56908691 250.5324707 358.6027832 C250.61912931 366.01115891 251.33081603 373.70277274 256.125 379.625 C261.02455217 381.96826408 265.29146881 381.71858991 270.48828125 380.33984375 C295.34900206 371.40854281 309.81801529 341.14205221 320.47509766 318.92480469 C329.74676741 298.98338102 337.28691459 278.5108105 343.32080078 257.37304688 C343.98202929 255.06278767 344.65971158 252.75787855 345.33984375 250.453125 C348.54958149 239.42386853 350.94588958 228.29815745 353 217 C353.17297607 216.12303467 353.34595215 215.24606934 353.52416992 214.3425293 C355.31668884 204.69856306 355.64280804 195.02410032 356.02905273 185.24438477 C356.1207067 182.99683898 356.2292362 180.75058773 356.33984375 178.50390625 C356.36183334 177.82364883 356.38382294 177.14339142 356.40647888 176.44252014 C356.69701475 170.85471509 358.23977967 167.61035182 362.33984375 163.859375 C370.46085266 158.18301635 378.53876895 156.52754387 388.25 156.4375 C389.07701416 156.42299805 389.90402832 156.40849609 390.75610352 156.39355469 C397.79567525 156.50873874 403.70437234 158.40206976 409.26953125 162.7890625 C422.23966705 178.22188231 420.32397581 200.84197851 418.765625 219.86035156 C418.22127679 224.48552075 417.4108932 229.0453473 416.48388672 233.60791016 C415.93087176 236.34173485 415.41922403 239.08187913 414.91015625 241.82421875 C413.9659232 246.88798183 412.99326742 251.94564226 412 257 C413.81365799 254.27951302 415.5657944 251.53182202 417.30859375 248.765625 C424.44677702 237.48291532 431.57535085 226.2526892 439.72314453 215.66210938 C441.02548512 213.96682549 442.30780376 212.2575445 443.58984375 210.546875 C461.53077022 186.88209658 485.96981355 160.05211599 516.484375 154.40625 C527.82324465 153.09598062 538.86015451 155.17990379 548.3125 161.75 C558.47460294 170.08707221 563.20230221 182.23085654 565 195 C565.26202628 198.83875292 565.28627323 202.65347403 565.25 206.5 C565.24323242 207.55098877 565.23646484 208.60197754 565.22949219 209.68481445 C565.10895077 218.89852355 564.42443099 227.89891058 563 237 C562.8870459 237.72993164 562.7740918 238.45986328 562.65771484 239.21191406 C560.11606683 254.99258807 556.05525968 270.48116277 552.21875 285.984375 C547.22268211 306.21156676 542.82811209 325.8599168 542.5625 346.8125 C542.52914551 348.28795288 542.52914551 348.28795288 542.49511719 349.79321289 C542.51442513 356.05703024 543.30389859 361.76511941 547 367 C551.27746266 369.58896329 555.11817881 369.82856598 560 369 C568.32532606 365.80822048 574.76804991 360.23195009 581 354 C581.67675781 353.32324219 582.35351562 352.64648438 583.05078125 351.94921875 C615.41587629 317.50860659 630.0696761 266.04342326 632.83691406 220.07568359 C634.13988694 199.76675468 638.71969918 178.99298547 654.1875 164.55859375 C654.785625 164.04425781 655.38375 163.52992188 656 163 C656.53625 162.53722656 657.0725 162.07445312 657.625 161.59765625 C666.19086477 155.30709931 680.5865479 152.6160404 691 154 C696.42903538 154.88111685 701.29596833 155.72197625 705.75 159.0625 C708.94612338 166.57338994 706.71256756 175.62213392 705.80029297 183.52001953 C705.51407042 186.01168437 705.25163695 188.50460026 705 191 C704.90589844 191.92586914 704.81179688 192.85173828 704.71484375 193.80566406 C703.73961789 205.08693744 703.84935708 216.38442208 703.86962891 227.69921875 C703.87492522 231.20056621 703.86969216 234.70178176 703.86328125 238.203125 C703.85582259 259.14124047 704.24169063 280.08976979 706.3125 300.9375 C706.37658051 301.59268616 706.44066101 302.24787231 706.50668335 302.9229126 C708.65455787 336.42267302 708.65455787 336.42267302 721 367 C723.99181417 368.49590709 725.6416206 368.42743011 729 368 C752.94519699 356.20744058 768.56034558 324.19518724 780.96972656 301.84570312 C782.11080768 299.80149146 783.26982367 297.76798481 784.4296875 295.734375 C789.79313872 286.27638913 794.64924248 276.68859199 799.16357422 266.79882812 C800.38567983 264.17055195 801.68782995 261.58421258 803 259 C801.66001953 258.61134766 801.66001953 258.61134766 800.29296875 258.21484375 C785.63537717 252.80735741 773.49238439 236.58242875 767.03076172 222.95605469 C756.30848033 199.22809296 754.4834496 172.08872841 763.578125 147.421875 C770.96394354 129.17568093 782.05808699 115.35952819 800 107 C811.88815571 102.34811298 826.51446259 102.08983784 838.421875 106.7421875 C848.27521566 111.5494234 855.68006799 119.60037564 859.93359375 129.6796875 C868.69102548 156.94641634 861.87595578 185.41377975 854 212 C853.75596436 212.85352051 853.51192871 213.70704102 853.26049805 214.58642578 C851.43174625 220.89714396 849.19021663 227.0022722 846.8125 233.125 C846.44447266 234.08148437 846.07644531 235.03796875 845.69726562 236.0234375 C844.80144555 238.35024289 843.90232227 240.67571021 843 243 C867.33047942 243.92006015 885.85502825 235.55444935 903.8203125 219.1875 C907.90502727 215.08814467 911.42938734 210.54554516 915 206 C920.92756822 198.5147463 927.14722076 191.64855734 934 185 C934.82113281 184.16855469 935.64226562 183.33710937 936.48828125 182.48046875 C953.53696031 165.64390389 975.95744069 154.59730491 1000.0625 153.625 C1014.90700095 154.25614375 1029.72750097 158.13860979 1040.14453125 169.421875 C1044.71839442 175.77713751 1050.87361771 184.96583717 1050 193 C1050.66 193 1051.32 193 1052 193 C1052.2475 192.29230469 1052.495 191.58460938 1052.75 190.85546875 C1058.72051898 177.21656446 1071.81629901 164.89768974 1085.265625 159.0078125 C1094.95510177 155.23968264 1107.07623579 153.84976267 1117.14453125 156.9765625 C1121.60180088 159.386297 1125.15890597 162.24732864 1126.6875 167.25 C1127.92461291 178.13659365 1125.23292845 187.80690745 1121.8125 198.0625 C1107.39178872 242.55973239 1094.59619774 289.46445376 1089 336 C1088.86980469 337.06734375 1088.73960938 338.1346875 1088.60546875 339.234375 C1086.3287476 361.60199477 1086.3287476 361.60199477 1093.125 382.3125 C1097.21512933 384.71322809 1100.37454001 384.80984485 1105 384 C1119.99730714 379.56499867 1129.64640883 363.27675951 1136.80249023 350.40380859 C1141.65634241 341.38454054 1145.52289642 332.09026585 1149.04516602 322.47680664 C1149.38990967 321.54602295 1149.73465332 320.61523926 1150.08984375 319.65625 C1150.38753662 318.82931641 1150.68522949 318.00238281 1150.99194336 317.15039062 C1152.06162978 314.8685311 1153.03263515 313.56379494 1155 312 C1157.875 311.5 1157.875 311.5 1161 312 C1166.03011356 315.62636094 1167.71727673 320.14322477 1169 326 C1170.99387784 345.27415249 1160.67759754 367.62827576 1148.875 382.5 C1147.59334475 384.00856309 1146.3025421 385.50943405 1145 387 C1144.48695312 387.63292969 1143.97390625 388.26585937 1143.4453125 388.91796875 C1129.11572448 406.46203192 1108.32156387 417.64104662 1086.25 421.6875 C1084.83543734 421.81714424 1083.41805628 421.91686437 1082 422 C1080.91074219 422.07605469 1079.82148437 422.15210938 1078.69921875 422.23046875 C1064.07507933 422.79235157 1051.78502159 418.6519451 1040.66796875 408.96875 C1029.46086303 398.41213964 1023.98131153 384.63051067 1020 370 C1019.41734375 370.93199219 1018.8346875 371.86398437 1018.234375 372.82421875 C1012.30335656 382.12089376 1005.78881627 390.20581028 998 398 C997.21238281 398.81082031 996.42476562 399.62164063 995.61328125 400.45703125 C982.83627938 412.84356447 965.90674896 421.38820569 948 422 C947.32694824 422.03641602 946.65389648 422.07283203 945.96044922 422.11035156 C927.03730251 423.07619092 912.70094219 418.54350742 898.47265625 405.72265625 C878.82499282 385.53762083 874.31534215 352.84146048 874.52539062 325.93505859 C875.13511775 303.18884963 879.08105233 279.02758104 888 258 C887.67 257.67 887.34 257.34 887 257 C886.07960938 257.45890625 885.15921875 257.9178125 884.2109375 258.390625 C866.49621408 267.05787403 850.45761554 269.07683165 831 269 C830.34257812 270.34964844 830.34257812 270.34964844 829.671875 271.7265625 C819.70975468 292.01379538 808.63319772 311.2537363 796 330 C795.49581543 330.75539063 794.99163086 331.51078125 794.47216797 332.2890625 C780.67025242 352.96094707 765.04306581 371.93534691 748 390 C747.36578125 390.67675781 746.7315625 391.35351562 746.078125 392.05078125 C734.30232086 404.24714982 715.36066741 420.72204458 697.50390625 421.34375 C689.79434927 421.45691781 684.19102124 421.06765045 678 416 C677.34 415.47664063 676.68 414.95328125 676 414.4140625 C671.55051663 410.43386058 668.39561819 405.80832121 665.3125 400.75 C664.77786133 399.87529053 664.77786133 399.87529053 664.23242188 398.98291016 C651.7389592 377.56966936 646.12673752 351.19449615 642 327 C641.75660889 325.60177002 641.75660889 325.60177002 641.50830078 324.17529297 C638.80516447 308.51160838 638.80516447 308.51160838 639 302 C638.34 302 637.68 302 637 302 C636.87496094 302.88558594 636.74992187 303.77117187 636.62109375 304.68359375 C633.84124448 319.52693988 624.37216192 336.21613223 616.3359375 348.84765625 C614.87932856 351.1944151 613.63775702 353.60632811 612.375 356.0625 C599.06768065 380.56870629 578.08311451 405.85634627 552 417 C551.12730469 417.4125 550.25460937 417.825 549.35546875 418.25 C537.55790558 423.11079856 522.29889283 422.91864402 510.25 418.9375 C497.22328393 413.37238741 488.54030504 405.12982073 482.6875 392.1875 C470.20460327 361.04810001 476.52769411 327.06531542 483.58203125 295.4453125 C484.97735468 289.18501599 486.17755142 282.9104655 487.26171875 276.58984375 C487.87983521 273.58429335 488.61891241 270.69391443 489.4453125 267.7421875 C493.8235291 251.94967104 499.35267626 230.05802878 494 214 C485.8074765 213.26852469 481.96274899 215.82980081 475.6953125 220.84375 C454.54496003 238.95331697 436.57358866 266.79833627 424.5 291.8125 C423.93023438 292.98167969 423.36046875 294.15085937 422.7734375 295.35546875 C422.48436523 295.95278809 422.19529297 296.55010742 421.89746094 297.16552734 C420.98387594 299.0329587 420.04679363 300.88668382 419.1015625 302.73828125 C405.10200867 330.20403937 392.53442365 359.24962295 384.828125 389.15234375 C384.65192627 389.83387512 384.47572754 390.51540649 384.29418945 391.21759033 C383.44090576 394.5432012 382.61513493 397.87290846 381.82617188 401.21435547 C381.52775391 402.41850098 381.22933594 403.62264648 380.921875 404.86328125 C380.54434082 406.46103394 380.54434082 406.46103394 380.15917969 408.09106445 C378.06322756 413.35080952 373.93705099 416.47126657 369 419 C360.48468382 422.52628124 348.79580059 422.5894096 339.9375 420.16015625 C337.63998635 418.97550078 335.90666848 417.74031485 334 416 C333.37222656 415.4534375 332.74445312 414.906875 332.09765625 414.34375 C320.16133177 402.43266088 319.99577747 383.77521144 319 368 C318.10861328 369.30710937 318.10861328 369.30710937 317.19921875 370.640625 C311.37068057 379.06385651 305.09909627 386.62745705 298 394 C296.92685547 395.18529297 296.92685547 395.18529297 295.83203125 396.39453125 C282.02050823 411.19074071 262.10871062 421.56222876 241.84106445 422.50390625 C228.11778221 422.81424147 215.29194256 419.56970098 205 410 C204.2884375 409.4121875 203.576875 408.824375 202.84375 408.21875 C193.83919519 400.20099572 185.35260949 385.90761866 184.375 373.6875 C184.26285156 372.36298828 184.26285156 372.36298828 184.1484375 371.01171875 C184.09945313 370.34785156 184.05046875 369.68398437 184 369 C183.34 369 182.68 369 182 369 C181.92523437 369.5259375 181.85046875 370.051875 181.7734375 370.59375 C180.68246587 373.98788396 178.69663753 376.64351474 176.625 379.5 C176.18164307 380.11439941 175.73828613 380.72879883 175.28149414 381.36181641 C170.63338893 387.68024543 165.50098532 393.41763915 160 399 C159.27296875 399.73992187 158.5459375 400.47984375 157.796875 401.2421875 C141.74607926 416.52016714 120.95760846 422.59850482 99.33837891 422.08007812 C83.49193668 421.53741441 70.9043759 415.55157807 60 404 C45.00128536 387.75139247 39.60268388 364.47822123 38 343 C37.443125 344.01578125 36.88625 345.0315625 36.3125 346.078125 C10.30570796 393.15225654 -30.84949001 437.59445364 -83.5625 454 C-86.03387467 454.69499572 -88.51279228 455.36398932 -91 456 C-92.60681641 456.43892578 -92.60681641 456.43892578 -94.24609375 456.88671875 C-119.29111251 463.05025878 -147.0761092 462.33457557 -172 456 C-173.20914063 455.72414063 -174.41828125 455.44828125 -175.6640625 455.1640625 C-185.31134141 452.82714401 -194.08615489 449.31668507 -203 445 C-203.65033203 444.68514648 -204.30066406 444.37029297 -204.97070312 444.04589844 C-242.34964849 425.65575665 -266.85533488 391.2421628 -280.15673828 352.55371094 C-283.73369996 341.72133712 -286.18139227 330.72178273 -288.1875 319.5 C-288.34250977 318.63584473 -288.49751953 317.77168945 -288.65722656 316.88134766 C-291.46377292 300.21021771 -292.41141002 283.63721396 -292.375 266.75 C-292.37412384 265.74831787 -292.37324768 264.74663574 -292.37234497 263.71459961 C-292.1683361 192.5642108 -266.35183696 125.10084225 -219 72 C-218.18660156 71.07574219 -217.37320313 70.15148437 -216.53515625 69.19921875 C-209.44659541 61.21398525 -202.16202398 53.94211918 -193.81640625 47.265625 C-192.05131551 45.84571844 -190.3054783 44.40115795 -188.58984375 42.921875 C-166.60008427 24.10338036 -141.35643288 11.05793739 -114.15966797 1.74365234 C-112.78910615 1.27171799 -111.42064654 0.79359715 -110.05517578 0.30712891 C-75.53811492 -11.96419716 -34.51607125 -12.34419739 0 0 Z " fill="#FDFEFE" transform="translate(575,657)"/>
<path d="M0 0 C6.64022979 4.32891904 10.3055116 11.93394154 12.18920898 19.45019531 C13.69067009 26.78592435 13.94200183 33.9786416 13.90625 41.44921875 C13.89887817 43.2902417 13.89887817 43.2902417 13.89135742 45.16845703 C13.34243426 88.40108237 -1.65320361 141.10736383 -30.40625 174.07421875 C-31.00953125 174.77675781 -31.6128125 175.47929688 -32.234375 176.203125 C-38.30294479 182.76795634 -44.9098809 187.3816617 -54.03125 187.76171875 C-62.19682076 187.3304386 -66.59083182 184.15553359 -72.15625 178.44921875 C-84.50836371 163.33968558 -82.59142255 138.02899367 -80.84375 119.63671875 C-77.03749287 86.27398142 -64.4518578 48.56738611 -43.40625 22.07421875 C-42.35244141 20.64335938 -42.35244141 20.64335938 -41.27734375 19.18359375 C-35.89660215 12.1376137 -29.80976759 6.9298403 -22.40625 2.07421875 C-21.79136719 1.67074219 -21.17648437 1.26726563 -20.54296875 0.8515625 C-14.6637314 -2.28500333 -6.13358561 -2.35983732 0 0 Z " fill="#2791D4" transform="translate(762.40625,850.92578125)"/>
<path d="M0 0 C9.20496424 6.63613701 12.1485482 15.71736335 13.9375 26.625 C17.10489474 53.43267732 11.54563188 80.37444738 3.6875 105.9375 C3.40503418 106.87416504 3.12256836 107.81083008 2.83154297 108.77587891 C-4.18660318 131.8237826 -14.00122575 156.72956595 -30.3125 174.9375 C-30.9725 174.9375 -31.6325 174.9375 -32.3125 174.9375 C-32.53035156 175.52144531 -32.74820312 176.10539062 -32.97265625 176.70703125 C-34.74837175 179.66310575 -36.8217523 180.83227465 -39.75 182.625 C-40.71808594 183.22699219 -41.68617187 183.82898437 -42.68359375 184.44921875 C-48.49812632 187.74095264 -55.12161685 188.0124579 -61.56640625 186.359375 C-68.91510055 183.19555358 -73.39360168 176.49301781 -76.5625 169.375 C-90.3704714 130.569839 -75.73972253 84.89728269 -59 49.3125 C-49.94773492 30.52431933 -37.1428547 7.72520799 -16.671875 -0.44140625 C-11.00771976 -1.93246698 -5.55595708 -1.78209944 0 0 Z " fill="#5855DF" transform="translate(1599.3125,851.0625)"/>
<path d="M0 0 C4.31870623 2.35565794 5.75804557 5.12504906 7.38037109 9.68945312 C8.47723981 13.77958927 8.48520933 17.78669343 8.4375 22 C8.42722778 23.42590454 8.42722778 23.42590454 8.41674805 24.88061523 C7.95578454 46.02796361 2.96803375 68.06194193 -4 88 C-4.66 88 -5.32 88 -6 88 C-18.14498987 72.34288282 -22.98649544 50.41128722 -20.76123047 30.90722656 C-20.45647435 28.53645491 -20.11224557 26.17514878 -19.75 23.8125 C-19.64083252 23.06379639 -19.53166504 22.31509277 -19.41918945 21.54370117 C-18.04233018 13.36470567 -14.61072636 7.05367844 -9 1 C-5.89951072 -0.55024464 -3.42105782 -0.28992015 0 0 Z " fill="#476CDB" transform="translate(1396,794)"/>
<path d="M0 0 C0.33 0 0.66 0 1 0 C1 463.65 1 927.3 1 1405 C0.67 1405 0.34 1405 0 1405 C0 941.35 0 477.7 0 0 Z " fill="#18A9D1" transform="translate(156,181)"/>
<path d="M0 0 C463.32 0 926.64 0 1404 0 C1404 0.33 1404 0.66 1404 1 C940.68 1 477.36 1 0 1 C0 0.67 0 0.34 0 0 Z " fill="#18A9D1" transform="translate(311,26)"/>
<path d="M0 0 C67.32 0 134.64 0 204 0 C204 0.33 204 0.66 204 1 C198.39 1 192.78 1 187 1 C186.67 1.66 186.34 2.32 186 3 C179 3 172 3 165 3 C165 2.34 165 1.68 165 1 C163.58642212 1.48895752 163.58642212 1.48895752 162.14428711 1.98779297 C157.33884411 3.35320741 152.65381882 3.25061197 147.69140625 3.1953125 C146.24132423 3.19106766 146.24132423 3.19106766 144.76194763 3.18673706 C141.69533548 3.17560407 138.62902285 3.15051224 135.5625 3.125 C133.47461361 3.11496131 131.38672262 3.10583701 129.29882812 3.09765625 C124.19910456 3.07568727 119.09960295 3.04120507 114 3 C114 2.34 114 1.68 114 1 C113.01 1 112.02 1 111 1 C110.67 1.66 110.34 2.32 110 3 C110 2.34 110 1.68 110 1 C109.34 1 108.68 1 108 1 C107.67 1.66 107.34 2.32 107 3 C107 2.34 107 1.68 107 1 C106.01 1 105.02 1 104 1 C103.67 1.66 103.34 2.32 103 3 C103 2.34 103 1.68 103 1 C102.01 1 101.02 1 100 1 C99.67 1.66 99.34 2.32 99 3 C99 2.34 99 1.68 99 1 C66.33 1 33.66 1 0 1 C0 0.67 0 0.34 0 0 Z " fill="#10AECF" transform="translate(937,28)"/>
<path d="M0 0 C14.7432482 6.61379358 25.62211251 22.10160814 31.4765625 36.67578125 C40.1513577 60.72132567 38.52769452 86.36002115 28.1875 109.6875 C21.47639874 123.52914636 12.75925009 136.16203244 0 145 C0 144.01 0 143.02 0 142 C1.77182194 140.27914417 3.54789622 138.70590613 5.4375 137.125 C21.57853776 122.95325478 32.32845065 100.44762622 34 79 C34.98211881 55.9087879 32.17299488 36.81395595 18 18 C17.44570313 17.26136719 16.89140625 16.52273438 16.3203125 15.76171875 C12.26146642 10.76098734 7.48147065 7.25935163 2.16015625 3.6640625 C1.44730469 3.11492188 0.73445312 2.56578125 0 2 C0 1.34 0 0.68 0 0 Z " fill="#18A0D0" transform="translate(599,668)"/>
<path d="M0 0 C3.91251115 3.20114549 4.80429182 7.20221559 5.3359375 12.0859375 C5.44937247 21.63716236 3.71535196 29.92553335 1 39 C0.773125 39.76957031 0.54625 40.53914062 0.3125 41.33203125 C-8.46288815 67.38396481 -30.08688636 88.07650627 -53.88671875 100.5078125 C-69.73402272 108.05845376 -69.73402272 108.05845376 -77 106 C-75.86304688 105.64808594 -74.72609375 105.29617188 -73.5546875 104.93359375 C-57.44727507 99.83495798 -42.33200467 93.53341484 -30.28515625 81.2265625 C-28 79 -28 79 -26 79 C-25.74476562 78.42121094 -25.48953125 77.84242187 -25.2265625 77.24609375 C-23.8760794 74.77307534 -22.32815919 73.08958354 -20.375 71.0625 C-6.83298594 56.07306052 2.39779508 35.22731827 3.3125 14.9375 C2.89955786 9.73442899 1.53578921 4.97303172 0 0 Z " fill="#6738E1" transform="translate(1740,972)"/>
<path d="M0 0 C0.33 0 0.66 0 1 0 C1.08975098 0.64735107 1.17950195 1.29470215 1.27197266 1.96166992 C6.31217258 37.55376664 16.28188707 74.87209621 46 98 C46.99 98.33 47.98 98.66 49 99 C49 99.66 49 100.32 49 101 C49.721875 101.28875 50.44375 101.5775 51.1875 101.875 C53.79166667 102.91666667 56.39583333 103.95833333 59 105 C59 105.66 59 106.32 59 107 C59.56847656 107.10957031 60.13695312 107.21914062 60.72265625 107.33203125 C65.82051703 108.37883739 70.20422064 109.94466599 75 112 C77.28647922 112.56480321 79.57165167 113.04089418 81.88671875 113.47265625 C84.13454525 114.03357414 85.9702548 114.89578195 88 116 C82.78324761 116.22213268 78.36845055 115.5440769 73.4375 113.9375 C72.74422607 113.71344482 72.05095215 113.48938965 71.33666992 113.25854492 C58.70477192 109.01430784 48.12619291 102.55971003 38 94 C37.33484375 93.43796875 36.6696875 92.8759375 35.984375 92.296875 C19.76734611 77.29233426 11.18792414 55.6264138 5 35 C4.66097656 33.90429688 4.32195312 32.80859375 3.97265625 31.6796875 C0.92393451 21.27459738 -0.39061219 10.82863798 0 0 Z " fill="#189ED0" transform="translate(360,954)"/>
<path d="M0 0 C1.34770174 4.04310522 -0.08388738 6.55188017 -1.5 10.375 C-11.72858626 39.58603857 -16.21679519 69.82901675 -16.125 100.6875 C-16.1285743 102.04362071 -16.13247935 103.39974058 -16.13671875 104.75585938 C-16.13542969 106.03654297 -16.13414062 107.31722656 -16.1328125 108.63671875 C-16.13168457 109.78873779 -16.13055664 110.94075684 -16.12939453 112.12768555 C-16.12781901 115.07189891 -16.12781901 115.07189891 -15 118 C-15.12109375 120.26171875 -15.12109375 120.26171875 -15.4375 122.6875 C-15.53933594 123.49574219 -15.64117187 124.30398438 -15.74609375 125.13671875 C-15.82988281 125.75160156 -15.91367187 126.36648438 -16 127 C-16.33 127 -16.66 127 -17 127 C-18.2856066 122.04693648 -18.1799108 117.11961608 -18.203125 112.0390625 C-18.20882507 111.05747162 -18.21452515 110.07588074 -18.22039795 109.06454468 C-18.22984103 106.97826203 -18.23637918 104.89196452 -18.24023438 102.80566406 C-18.24977502 99.69827759 -18.28073283 96.59160159 -18.3125 93.484375 C-18.4120187 74.89548497 -16.47592607 56.69114652 -12.3125 38.5625 C-11.93992065 36.90758545 -11.93992065 36.90758545 -11.55981445 35.21923828 C-4.3292621 4.3292621 -4.3292621 4.3292621 0 0 Z " fill="#1DABCF" transform="translate(376,823)"/>
<path d="M0 0 C2 3 2 3 1.64453125 4.8046875 C1.36996094 5.48789062 1.09539062 6.17109375 0.8125 6.875 C-0.6269752 10.75587587 -1.62806237 14.5777173 -2.5 18.625 C-3.27853587 22.14267776 -4.02727344 25.42417923 -5.5625 28.6875 C-7.123597 32.28481048 -7.77033892 35.62040516 -8.47265625 39.45703125 C-9.29634285 43.42903107 -10.63899735 47.1851699 -12 51 C-13.49387943 55.19843839 -14.87867143 59.13553395 -15.5 63.5625 C-15.90784243 66.3664167 -16.40555484 68.24547223 -17.4375 70.8125 C-18.95775302 74.62414887 -19.72535962 78.37947929 -20.46484375 82.40625 C-21.19309108 85.9358575 -22.23644822 89.3377161 -23.31640625 92.7734375 C-23.94986543 94.83670456 -24.49696209 96.9016133 -25 99 C-25.66 99 -26.32 99 -27 99 C-20.8891868 69.00146248 -12.69846926 38.78360528 -2.57226562 9.88696289 C-1.68543812 6.96277784 -1.37839253 4.02714023 -1 1 C-0.67 0.67 -0.34 0.34 0 0 Z " fill="#574DDF" transform="translate(1702,834)"/>
<path d="M0 0 C0.66 0 1.32 0 2 0 C0.388028 5.29647942 -1.86245899 10.17953259 -4.1875 15.1875 C-7.16533719 21.68863741 -9.88512105 28.1902465 -12.25 34.9375 C-15.2804218 43.49322469 -18.86652227 51.77899391 -22.5625 60.0625 C-22.83622437 60.68156219 -23.10994873 61.30062439 -23.39196777 61.93844604 C-26.79553303 69.61739247 -30.47055124 76.92127282 -35 84 C-36 82 -36 82 -35.546875 80.08984375 C-35.28390625 79.37957031 -35.0209375 78.66929687 -34.75 77.9375 C-34.49734375 77.22464844 -34.2446875 76.51179687 -33.984375 75.77734375 C-33 74 -33 74 -30 73 C-29.26543322 71.02719591 -29.26543322 71.02719591 -28.9375 68.6875 C-28.36970402 65.41591363 -27.5902647 62.91548527 -26 60 C-25.1432979 58.33463518 -24.2892494 56.6679033 -23.4375 55 C-22.78587891 53.7315625 -22.78587891 53.7315625 -22.12109375 52.4375 C-21.12654496 50.27513608 -20.47847721 48.32249614 -20 46 C-19.34 46 -18.68 46 -18 46 C-17.87625 45.29875 -17.7525 44.5975 -17.625 43.875 C-16.95977406 40.81496069 -16.02616404 37.95776695 -15 35 C-14.690625 34.071875 -14.38125 33.14375 -14.0625 32.1875 C-13.711875 31.135625 -13.36125 30.08375 -13 29 C-12.74992188 28.23816406 -12.49984375 27.47632813 -12.2421875 26.69140625 C-11.97664062 25.88574219 -11.71109375 25.08007812 -11.4375 24.25 C-11.18871094 23.49203125 -10.93992187 22.7340625 -10.68359375 21.953125 C-10 20 -10 20 -9 18 C-8.34 18 -7.68 18 -7 18 C-6.855625 16.88625 -6.71125 15.7725 -6.5625 14.625 C-6 11 -6 11 -5 9 C-4.34 9 -3.68 9 -3 9 C-2.814375 7.6078125 -2.814375 7.6078125 -2.625 6.1875 C-2 3 -2 3 0 0 Z " fill="#1C94D1" transform="translate(636,886)"/>
<path d="M0 0 C0 0.66 0 1.32 0 2 C-0.59167969 2.12117188 -1.18335938 2.24234375 -1.79296875 2.3671875 C-2.58316406 2.53476563 -3.37335938 2.70234375 -4.1875 2.875 C-4.96480469 3.03742188 -5.74210937 3.19984375 -6.54296875 3.3671875 C-9.01521955 3.93327695 -9.01521955 3.93327695 -11.28125 5.00390625 C-14.89864306 6.32924423 -18.50448835 6.69471462 -22.3125 7.0625 C-23.12775146 7.14338867 -23.94300293 7.22427734 -24.78295898 7.30761719 C-31.69967845 7.95259917 -38.62501913 8.40013404 -45.5625 8.75 C-46.54839111 8.80679932 -47.53428223 8.86359863 -48.55004883 8.92211914 C-54.9891958 9.1999545 -60.74757116 8.56289347 -67 7 C-67 6.67 -67 6.34 -67 6 C-66.12770752 6.01571045 -66.12770752 6.01571045 -65.23779297 6.03173828 C-45.95402886 6.32980468 -27.14511279 5.81272877 -8.43359375 0.8046875 C-5.4508354 0.10565653 -3.03851814 -0.17496266 0 0 Z " fill="#289AD4" transform="translate(492,1111)"/>
<path d="M0 0 C3.21683447 0.57723685 6.08030384 1.39967324 9.125 2.5625 C20.16598792 5.92925865 33.17961652 4.55690662 44.3359375 2.4375 C46.94377267 2.00923381 49.36289118 1.92328411 52 2 C47.31713624 5.12190917 40.385296 7.64046141 34.6875 6.5625 C34.130625 6.376875 33.57375 6.19125 33 6 C33 6.66 33 7.32 33 8 C31.083412 8.02712153 29.1667127 8.04645097 27.25 8.0625 C25.64898438 8.07990234 25.64898438 8.07990234 24.015625 8.09765625 C21.43965298 8.01423747 19.451408 7.70115541 17 7 C15.906875 6.87625 14.81375 6.7525 13.6875 6.625 C9.6284953 5.9370331 6.72242532 4.71804246 3 3 C2.01 2.67 1.02 2.34 0 2 C0 1.34 0 0.68 0 0 Z " fill="#5F51E0" transform="translate(1489,1074)"/>
<path d="M0 0 C0.33 0 0.66 0 1 0 C0.85621657 1.97931664 0.70985226 3.95844584 0.5625 5.9375 C0.48128906 7.03964844 0.40007812 8.14179687 0.31640625 9.27734375 C0.0911111 11.92803851 -0.18919892 14.53548851 -0.51953125 17.171875 C-2.28074208 32.807789 -1.42726658 48.70215923 1.34375 64.1484375 C2 68 2 68 2 72 C1.34 72 0.68 72 0 72 C-2.97059457 58.56159597 -3.33382695 45.20314103 -3.375 31.5 C-3.38249268 30.62996338 -3.38998535 29.75992676 -3.39770508 28.86352539 C-3.46843198 18.8363366 -3.19307882 9.63015115 0 0 Z " fill="#464FDB" transform="translate(1452,951)"/>
<path d="M0 0 C0.66 0.33 1.32 0.66 2 1 C0.98421875 1.73863281 -0.0315625 2.47726562 -1.078125 3.23828125 C-15.66614109 13.94470634 -28.30926458 26.13953253 -41 39 C-41 35.55976047 -40.6780229 35.27885862 -38.4375 32.890625 C-37.8923877 32.30458496 -37.34727539 31.71854492 -36.78564453 31.11474609 C-36.19638184 30.49937988 -35.60711914 29.88401367 -35 29.25 C-34.39913574 28.61529785 -33.79827148 27.9805957 -33.17919922 27.32666016 C-28.98938759 22.94039818 -24.72861864 18.80537391 -20 15 C-19.43458496 14.53819336 -18.86916992 14.07638672 -18.28662109 13.60058594 C-16.29982515 11.97799406 -14.30745677 10.36254613 -12.3125 8.75 C-11.67006348 8.22970215 -11.02762695 7.7094043 -10.36572266 7.17333984 C-3.69174942 1.83589701 -3.69174942 1.83589701 0 0 Z " fill="#18ACCE" transform="translate(467,703)"/>
<path d="M0 0 C0 0.99 0 1.98 0 3 C-2.18213012 4.6231461 -4.30503238 6.0394511 -6.625 7.4375 C-7.86746495 8.20658321 -9.10965482 8.97611099 -10.3515625 9.74609375 C-10.96789551 10.12314453 -11.58422852 10.50019531 -12.21923828 10.88867188 C-13.84871664 11.9055879 -15.44227571 12.97948363 -17.03125 14.05859375 C-24.64367862 19.03672142 -33.00160348 23.38028863 -42 25 C-42 24.34 -42 23.68 -42 23 C-41.26064209 22.65855957 -40.52128418 22.31711914 -39.75952148 21.96533203 C-25.88132374 15.52014802 -12.34367148 9.15954182 0 0 Z " fill="#1E93D2" transform="translate(540,1085)"/>
<path d="M0 0 C0.33 0.66 0.66 1.32 1 2 C0.3190918 3.8918457 0.3190918 3.8918457 -0.80078125 6.17578125 C-1.20103516 7.00400391 -1.60128906 7.83222656 -2.01367188 8.68554688 C-2.44228516 9.55244141 -2.87089844 10.41933594 -3.3125 11.3125 C-9.3863746 22.57628553 -9.3863746 22.57628553 -10 35 C-7.12073475 38.94870663 -5.5178139 39.7605347 -0.70703125 40.51953125 C2.53476581 40.78467278 5.74836097 40.94693171 9 41 C9 41.33 9 41.66 9 42 C6.77144426 42.0814222 4.54202345 42.13938079 2.3125 42.1875 C0.45044922 42.23970703 0.45044922 42.23970703 -1.44921875 42.29296875 C-5.23852187 41.98031998 -7.01043429 41.2867745 -10 39 C-12.98882516 34.81564478 -13.25338172 31.68209574 -12.60595703 26.63916016 C-11.40754403 21.4196418 -8.89478465 16.75940828 -6.5 12 C-5.98824219 10.95199219 -5.47648438 9.90398438 -4.94921875 8.82421875 C-1.2027264 1.2027264 -1.2027264 1.2027264 0 0 Z " fill="#149FCE" transform="translate(565,782)"/>
<path d="M0 0 C0.66 0.33 1.32 0.66 2 1 C-3.73473773 7.36691355 -9.53973719 13.65347402 -15.5625 19.75 C-16.07458008 20.2749707 -16.58666016 20.79994141 -17.11425781 21.34082031 C-18.37062068 22.60056277 -19.68104277 23.80595204 -21 25 C-21.66 25 -22.32 25 -23 25 C-23.2475 25.598125 -23.495 26.19625 -23.75 26.8125 C-25.19482573 29.34094503 -26.48280545 30.55070617 -29 32 C-29.99 31.67 -30.98 31.34 -32 31 C-30.16776705 29.31129197 -28.33435264 27.62390337 -26.5 25.9375 C-25.94828125 25.42944824 -25.3965625 24.92139648 -24.828125 24.39794922 C-21.93455144 21.74184475 -19.01269589 19.14621796 -16 16.625 C-10.17357237 11.60094058 -5.14538315 5.70279966 0 0 Z " fill="#1D93D2" transform="translate(580,1048)"/>
<path d="M0 0 C0.33 0 0.66 0 1 0 C1.30292969 1.11117188 1.60585937 2.22234375 1.91796875 3.3671875 C4.06451229 11.04759971 6.1874209 18.24630655 10.1796875 25.21484375 C10.58574219 26.09849609 10.58574219 26.09849609 11 27 C10.67 27.66 10.34 28.32 10 29 C6 23.375 6 23.375 6 20 C5.34 20 4.68 20 4 20 C3.80664062 19.22914062 3.61328125 18.45828125 3.4140625 17.6640625 C3.02347656 16.15972656 3.02347656 16.15972656 2.625 14.625 C2.36976562 13.62726563 2.11453125 12.62953125 1.8515625 11.6015625 C1.17595681 8.87458985 1.17595681 8.87458985 -1 7 C-3.31 9.64 -5.62 12.28 -8 15 C-8 10.92969574 -6.33514272 9.15556143 -4.0625 5.8125 C-2.96615234 4.18248047 -2.96615234 4.18248047 -1.84765625 2.51953125 C-1.23792969 1.68808594 -0.62820313 0.85664062 0 0 Z " fill="#5D47E0" transform="translate(1595,1026)"/>
<path d="M0 0 C1.98 0 3.96 0 6 0 C5 2 5 2 1.7109375 3.19140625 C0.26611474 3.64998338 -1.17923587 4.10689943 -2.625 4.5625 C-10.38496578 7.12938465 -16.97484629 10.63927237 -23.828125 15.046875 C-26.5306296 16.71097882 -29.01932966 17.94668041 -32 19 C-32 18.34 -32 17.68 -32 17 C-31.01 17 -30.02 17 -29 17 C-28.67 16.01 -28.34 15.02 -28 14 C-22.77777778 11 -22.77777778 11 -20 11 C-20 10.34 -20 9.68 -20 9 C-6.72413793 2 -6.72413793 2 0 2 C0 1.34 0 0.68 0 0 Z " fill="#2095D2" transform="translate(716,812)"/>
<path d="M0 0 C0.33 0 0.66 0 1 0 C1 12.21 1 24.42 1 37 C1.66 37 2.32 37 3 37 C3.25 42.625 3.25 42.625 1 46 C1.66 46.33 2.32 46.66 3 47 C2.34 47 1.68 47 1 47 C1 47.66 1 48.32 1 49 C1.66 49.33 2.32 49.66 3 50 C3 50.66 3 51.32 3 52 C2.34 52 1.68 52 1 52 C1 53.65 1 55.3 1 57 C0.67 57 0.34 57 0 57 C0 38.19 0 19.38 0 0 Z " fill="#209BD3" transform="translate(158,1527)"/>
<path d="M0 0 C17.16 0 34.32 0 52 0 C52 0.33 52 0.66 52 1 C50.96593018 1.02505615 49.93186035 1.0501123 48.86645508 1.07592773 C45.01786613 1.1703343 41.16944371 1.27047291 37.32104492 1.37231445 C35.65767319 1.41553784 33.99426068 1.45722146 32.33081055 1.49731445 C29.93525932 1.55532332 27.53991092 1.61892829 25.14453125 1.68359375 C24.4047554 1.70030624 23.66497955 1.71701874 22.90278625 1.73423767 C19.14989825 1.84111612 15.66832807 2.23850826 12 3 C10.32774271 2.69595322 8.65919896 2.36871088 7 2 C6.67 2.33 6.34 2.66 6 3 C4.00041636 3.04080783 1.99954746 3.04254356 0 3 C0 2.01 0 1.02 0 0 Z " fill="#298FD5" transform="translate(1471,28)"/>
<path d="M0 0 C1.8319373 2.74790596 2.41275673 4.21872652 3.1875 7.3125 C5.56798254 15.60146229 9.56350268 24.2706771 15 31 C14.67 31.66 14.34 32.32 14 33 C13.01 32.34 12.02 31.68 11 31 C11 30.01 11 29.02 11 28 C10.34 28 9.68 28 9 28 C8.01 25.03 7.02 22.06 6 19 C5.34 19 4.68 19 4 19 C-0.62158531 6.91939095 -0.62158531 6.91939095 -1 2 C-0.67 1.34 -0.34 0.68 0 0 Z " fill="#2594D3" transform="translate(617,1025)"/>
<path d="M0 0 C0.33 0.66 0.66 1.32 1 2 C-1.38163839 6.76327679 -4.32878095 10.8869979 -7.56640625 15.1015625 C-8.75055458 16.66967173 -9.85558849 18.29718255 -10.9375 19.9375 C-13.75420694 24.11988303 -16.8727143 28.04697032 -20 32 C-20.66 31.34 -21.32 30.68 -22 30 C-21.32195313 29.16339844 -20.64390625 28.32679687 -19.9453125 27.46484375 C-13.84006337 19.85481079 -8.2188716 12.06418004 -2.8984375 3.88671875 C-1 1 -1 1 0 0 Z " fill="#1E92D2" transform="translate(604,1015)"/>
<path d="M0 0 C0 0.66 0 1.32 0 2 C-5.91834068 4.80398781 -11.62869624 7.43968071 -18 9 C-18.89138672 9.26876953 -18.89138672 9.26876953 -19.80078125 9.54296875 C-22.65140102 10.13537108 -25.34118872 10.09411751 -28.25 10.0625 C-29.32765625 10.05347656 -30.4053125 10.04445313 -31.515625 10.03515625 C-32.33546875 10.02355469 -33.1553125 10.01195312 -34 10 C-34 9.34 -34 8.68 -34 8 C-33.09121094 7.91363281 -32.18242188 7.82726562 -31.24609375 7.73828125 C-21.11785338 6.60599592 -9.47467446 0 0 0 Z " fill="#5363DD" transform="translate(1456,917)"/>
<path d="M0 0 C0.33 0 0.66 0 1 0 C1.33675279 2.89547264 1.66951734 5.79131072 2 8.6875 C2.09539063 9.50412109 2.19078125 10.32074219 2.2890625 11.16210938 C2.73870522 15.12860052 3.13034543 19.00002463 3 23 C1.14223235 19.86501708 0.79859524 17.62528568 1 14 C0.34 14 -0.32 14 -1 14 C-1.33 12.68 -1.66 11.36 -2 10 C-3.32 11.65 -4.64 13.3 -6 15 C-6.66 14.67 -7.32 14.34 -8 14 C-5.36 9.38 -2.72 4.76 0 0 Z " fill="#1E92D2" transform="translate(613,999)"/>
<path d="M0 0 C0.33 0.66 0.66 1.32 1 2 C-0.19152789 4.34017304 -1.43336664 6.52274843 -2.8125 8.75 C-3.2154126 9.41016113 -3.6183252 10.07032227 -4.03344727 10.75048828 C-7.01433696 15.56731292 -10.16096061 20.25484374 -13.4375 24.875 C-13.86200439 25.47538086 -14.28650879 26.07576172 -14.72387695 26.69433594 C-17.7454727 30.87273635 -17.7454727 30.87273635 -20 32 C-19.1875 29.0625 -19.1875 29.0625 -18 26 C-17.01 25.67 -16.02 25.34 -15 25 C-13.77479736 21.99152582 -13.77479736 21.99152582 -13 19 C-12.34 19 -11.68 19 -11 19 C-10.34 17.02 -9.68 15.04 -9 13 C-8.34 13 -7.68 13 -7 13 C-6.896875 12.443125 -6.79375 11.88625 -6.6875 11.3125 C-5.40411797 6.99566953 -2.73884178 3.521368 0 0 Z " fill="#1D93D1" transform="translate(598,972)"/>
<path d="M0 0 C0.99 0.33 1.98 0.66 3 1 C1.48815996 5.90388723 -0.48968779 10.4404757 -2.6875 15.0625 C-3.03619141 15.80040771 -3.38488281 16.53831543 -3.74414062 17.29858398 C-6.93769743 23.99249272 -10.39366482 30.51986648 -14 37 C-15 34 -15 34 -13.9519043 31.3996582 C-13.41476807 30.37702881 -12.87763184 29.35439941 -12.32421875 28.30078125 C-11.74349609 27.17349609 -11.16277344 26.04621094 -10.56445312 24.88476562 C-9.93980928 23.69348175 -9.31415005 22.50272977 -8.6875 21.3125 C-3.22759082 11.06768867 -3.22759082 11.06768867 0 0 Z " fill="#4263DA" transform="translate(1375,915)"/>
<path d="M0 0 C1.15242996 3.45728988 1.09710256 6.10519685 1.0625 9.75 C1.05871338 10.40452148 1.05492676 11.05904297 1.05102539 11.73339844 C1.0346922 14.52937462 1.00652427 17.32520388 0.97949219 20.12109375 C0.9614213 22.16405564 0.94931946 24.20699393 0.9375 26.25 C0.92589844 27.47203125 0.91429687 28.6940625 0.90234375 29.953125 C0.85621696 33.04477515 0.85621696 33.04477515 2 36 C1.87890625 38.26171875 1.87890625 38.26171875 1.5625 40.6875 C1.46066406 41.49574219 1.35882813 42.30398438 1.25390625 43.13671875 C1.17011719 43.75160156 1.08632813 44.36648438 1 45 C0.67 45 0.34 45 0 45 C-1.18516686 40.32759439 -1.14456559 35.8007106 -1.1328125 31.015625 C-1.13376923 30.15942566 -1.13472595 29.30322632 -1.13571167 28.42108154 C-1.13639008 26.61909918 -1.13455949 24.81711434 -1.13037109 23.01513672 C-1.12499167 20.2457132 -1.13034099 17.47644992 -1.13671875 14.70703125 C-1.13605842 12.95572881 -1.13477821 11.20442646 -1.1328125 9.453125 C-1.13483673 8.62089417 -1.13686096 7.78866333 -1.13894653 6.93121338 C-1.11496818 1.11496818 -1.11496818 1.11496818 0 0 Z " fill="#0199C9" transform="translate(359,905)"/>
<path d="M0 0 C1.67932617 -0.0309375 1.67932617 -0.0309375 3.39257812 -0.0625 C9.26717402 -0.09039126 13.61237135 -0.06754654 18.5625 3.25 C15.19879074 4.36345005 12.99235191 4.07524323 9.5625 3.3125 C0.63276317 1.65761096 -8.39489196 2.0891631 -17.4375 2.25 C-17.4375 1.92 -17.4375 1.59 -17.4375 1.25 C-11.6331036 -0.07119685 -5.9278431 0.02720754 0 0 Z " fill="#1690D0" transform="translate(740.4375,809.75)"/>
<path d="M0 0 C-21.63368726 8.44111969 -21.63368726 8.44111969 -32 8 C-32 7.67 -32 7.34 -32 7 C-30.35 7 -28.7 7 -27 7 C-27 6.34 -27 5.68 -27 5 C-25.72125 4.9175 -24.4425 4.835 -23.125 4.75 C-18.4691172 4.25063087 -14.61938677 2.83083856 -10.359375 0.9375 C-6.49475505 -0.59811057 -4.00103326 -1.33367775 0 0 Z " fill="#1691D0" transform="translate(510,1062)"/>
<path d="M0 0 C0.66 0.33 1.32 0.66 2 1 C0.31410567 10.0751333 0.31410567 10.0751333 -1.125 14.3125 C-2.13221904 16.93504221 -2.13221904 16.93504221 -2 19.5625 C-2 22.47029407 -2.8689594 24.33872799 -4 27 C-4.36871088 28.65919896 -4.71281674 30.3247643 -5 32 C-5.33 32 -5.66 32 -6 32 C-5.72445401 24.20204861 -4.70190428 16.850929 -3 9.25 C-2.82178711 8.45158691 -2.64357422 7.65317383 -2.45996094 6.83056641 C-1.14002082 1.14002082 -1.14002082 1.14002082 0 0 Z " fill="#5F47E0" transform="translate(1674,938)"/>
<path d="M0 0 C4.0978905 1.47979379 7.57085795 3.48859748 11.25 5.8125 C16.41192223 9.04615603 21.6344 12.1161633 27 15 C27 15.66 27 16.32 27 17 C26.45472656 16.72414063 25.90945313 16.44828125 25.34765625 16.1640625 C23.69888266 15.34653417 22.0388312 14.55154977 20.37109375 13.7734375 C13.00022702 10.25976201 6.3123401 6.206438 0 1 C0 0.67 0 0.34 0 0 Z " fill="#199DD0" transform="translate(348,1088)"/>
<path d="M0 0 C0.66 0.33 1.32 0.66 2 1 C-2.66989045 5.93674133 -7.66236521 8.85900049 -13.5625 12.125 C-14.95662109 12.90230469 -14.95662109 12.90230469 -16.37890625 13.6953125 C-18.63330999 14.81747472 -20.54288823 15.52592196 -23 16 C-23 15.01 -23 14.02 -23 13 C-22.071875 12.62875 -21.14375 12.2575 -20.1875 11.875 C-13.03949804 8.80325171 -5.82123093 5.21903462 0 0 Z " fill="#5F4BE0" transform="translate(1565,1061)"/>
<path d="M0 0 C0.33 0.66 0.66 1.32 1 2 C-3.92561197 2.80184381 -8.61823232 3.13519708 -13.625 3.125 C-14.89601563 3.12757812 -16.16703125 3.13015625 -17.4765625 3.1328125 C-20.46408027 3.02020097 -23.10380888 2.69908062 -26 2 C-26 1.67 -26 1.34 -26 1 C-22.9792807 0.83100871 -19.95845177 0.66473871 -16.9375 0.5 C-16.08994141 0.45230469 -15.24238281 0.40460938 -14.36914062 0.35546875 C-9.57055312 0.09608564 -4.80550212 -0.05216285 0 0 Z " fill="#1C94D1" transform="translate(477,1069)"/>
<path d="M0 0 C3.33331439 -0.02937438 6.66659483 -0.04692334 10 -0.0625 C10.93457031 -0.07087891 11.86914062 -0.07925781 12.83203125 -0.08789062 C18.32274401 -0.10708892 23.56866481 0.1865807 29 1 C29 1.33 29 1.66 29 2 C9.03189066 3.51708428 9.03189066 3.51708428 0 1 C0 0.67 0 0.34 0 0 Z " fill="#1D97D1" transform="translate(425,1117)"/>
<path d="M0 0 C2.249712 7.0383847 -1.18431618 14.99051885 -3.31640625 21.7734375 C-3.94986543 23.83670456 -4.49696209 25.9016133 -5 28 C-5.66 28 -6.32 28 -7 28 C-2.80851064 8.46808511 -2.80851064 8.46808511 0 0 Z " fill="#5A47DF" transform="translate(1682,905)"/>
<path d="M0 0 C0.66 0.66 1.32 1.32 2 2 C-11.72651357 12.51670146 -11.72651357 12.51670146 -19 15 C-19.99 14.67 -20.98 14.34 -22 14 C-21.34 14 -20.68 14 -20 14 C-19.67 13.34 -19.34 12.68 -19 12 C-17.845 11.690625 -16.69 11.38125 -15.5 11.0625 C-14.345 10.711875 -13.19 10.36125 -12 10 C-11.67 9.01 -11.34 8.02 -11 7 C-9.68 7 -8.36 7 -7 7 C-6.67 6.01 -6.34 5.02 -6 4 C-4.34795544 3.29788106 -2.68076231 2.63028587 -1 2 C-0.67 1.34 -0.34 0.68 0 0 Z " fill="#1C94D1" transform="translate(534,1045)"/>
<path d="M0 0 C0.33 0.66 0.66 1.32 1 2 C-8.22551253 13.70615034 -8.22551253 13.70615034 -14 18 C-14.66 17.67 -15.32 17.34 -16 17 C-15.18015625 16.19175781 -14.3603125 15.38351562 -13.515625 14.55078125 C-12.42694863 13.47149002 -11.3384145 12.39205531 -10.25 11.3125 C-9.71117187 10.78205078 -9.17234375 10.25160156 -8.6171875 9.70507812 C-5.51387173 6.62068501 -2.66327598 3.48423727 0 0 Z " fill="#5A46DF" transform="translate(1584,1042)"/>
<path d="M0 0 C0.66 0.33 1.32 0.66 2 1 C0.6518819 3.92092256 -0.97361634 6.55636426 -2.79296875 9.20703125 C-3.71876011 10.58223589 -4.61110186 11.98000849 -5.48828125 13.38671875 C-6.00777344 14.20785156 -6.52726562 15.02898438 -7.0625 15.875 C-7.54847656 16.65617188 -8.03445313 17.43734375 -8.53515625 18.2421875 C-9.01855469 18.82226562 -9.50195312 19.40234375 -10 20 C-10.99 20 -11.98 20 -13 20 C-12.64172119 19.4652002 -12.28344238 18.93040039 -11.91430664 18.37939453 C-10.29583602 15.96206509 -8.67914765 13.54354893 -7.0625 11.125 C-6.21655273 9.86236328 -6.21655273 9.86236328 -5.35351562 8.57421875 C-4.54624023 7.36572266 -4.54624023 7.36572266 -3.72265625 6.1328125 C-3.22515869 5.38918457 -2.72766113 4.64555664 -2.21508789 3.87939453 C-0.96446784 2.02065406 -0.96446784 2.02065406 0 0 Z " fill="#475CDB" transform="translate(1377,976)"/>
<path d="M0 0 C0.99 0.33 1.98 0.66 3 1 C-1.95 5.95 -6.9 10.9 -12 16 C-12.33 15.01 -12.66 14.02 -13 13 C-11.625 11.5 -11.625 11.5 -10 10 C-9.34 10 -8.68 10 -8 10 C-7.773125 9.443125 -7.54625 8.88625 -7.3125 8.3125 C-5.63848923 5.36305245 -3.45043651 3.3247731 -1 1 C-0.67 0.67 -0.34 0.34 0 0 Z " fill="#1692D0" transform="translate(674,837)"/>
<path d="M0 0 C0.33 0 0.66 0 1 0 C0.35215814 5.94650633 -0.71983435 11.67387483 -2.0625 17.5 C-2.24876953 18.32242188 -2.43503906 19.14484375 -2.62695312 19.9921875 C-3.08120885 21.9955717 -3.54011599 23.9979003 -4 26 C-4.33 26 -4.66 26 -5 26 C-6.07212083 20.5419303 -6.1032809 17.25563139 -3.90234375 12.1640625 C-2.26047499 8.22642053 -1.18300415 4.09436896 0 0 Z " fill="#5160DD" transform="translate(1458,925)"/>
<path d="M0 0 C0.5534764 2.07553648 1 3.84365964 1 6 C5.62 6 10.24 6 15 6 C13 8 13 8 10.28515625 8.23046875 C9.22167969 8.21628906 8.15820312 8.20210937 7.0625 8.1875 C6.00160156 8.18105469 4.94070313 8.17460938 3.84765625 8.16796875 C1 8 1 8 -2 7 C-1.125 2.25 -1.125 2.25 0 0 Z " fill="#5670DE" transform="translate(1420,893)"/>
<path d="M0 0 C0.66 0 1.32 0 2 0 C2.8723412 2.99480917 3.10829766 5.63575911 3.0625 8.75 C3.05347656 9.54921875 3.04445313 10.3484375 3.03515625 11.171875 C3.02355469 11.77515625 3.01195312 12.3784375 3 13 C1.25372522 10.38058783 0.61277612 8.96175123 0 6 C-0.99 7.32 -1.98 8.64 -3 10 C-3.66 9.67 -4.32 9.34 -5 9 C-3.35 6.03 -1.7 3.06 0 0 Z " fill="#2F8AD5" transform="translate(757,1026)"/>
<path d="M0 0 C0.66 0.33 1.32 0.66 2 1 C-2.29 5.29 -6.58 9.58 -11 14 C-11.66 13.67 -12.32 13.34 -13 13 C-11.39979779 11.20465118 -9.79509897 9.41370539 -8.1875 7.625 C-7.73568359 7.11710938 -7.28386719 6.60921875 -6.81835938 6.0859375 C-4.64829248 3.67827204 -2.71407209 1.80938139 0 0 Z " fill="#4D52DC" transform="translate(1572,857)"/>
<path d="M0 0 C4.33142291 0.79900034 8.56416268 1.91199334 12.8125 3.0625 C13.50537109 3.24876953 14.19824219 3.43503906 14.91210938 3.62695312 C16.60845641 4.08321198 18.3042818 4.54140954 20 5 C17 7 17 7 13.75 6.8125 C9.77527607 5.95130982 6.68049865 4.69869168 3 3 C2.01 2.67 1.02 2.34 0 2 C0 1.34 0 0.68 0 0 Z " fill="#5247DD" transform="translate(1489,1074)"/>
<path d="M0 0 C0.33 0 0.66 0 1 0 C0.46589137 7.35251669 -0.13140916 14.67902003 -1 22 C-1.33 22 -1.66 22 -2 22 C-3.46166012 14.04011598 -2.33992765 7.69399939 0 0 Z " fill="#515DDD" transform="translate(1452,951)"/>
<path d="M0 0 C0.33 0.66 0.66 1.32 1 2 C0.19555664 3.69580078 0.19555664 3.69580078 -1.08984375 5.6953125 C-1.54423828 6.41074219 -1.99863281 7.12617187 -2.46679688 7.86328125 C-2.95212891 8.60964844 -3.43746094 9.35601563 -3.9375 10.125 C-4.41896484 10.87910156 -4.90042969 11.63320313 -5.39648438 12.41015625 C-6.59057797 14.27814425 -7.79194768 16.14102066 -9 18 C-9.66 17.34 -10.32 16.68 -11 16 C-10.34 16 -9.68 16 -9 16 C-8.67 14.35 -8.34 12.7 -8 11 C-7.34 11 -6.68 11 -6 11 C-5.5978125 9.2984375 -5.5978125 9.2984375 -5.1875 7.5625 C-4.795625 6.386875 -4.40375 5.21125 -4 4 C-3.01 3.67 -2.02 3.34 -1 3 C-0.67 2.01 -0.34 1.02 0 0 Z " fill="#1B94D1" transform="translate(648,868)"/>
<path d="M0 0 C0.66 0 1.32 0 2 0 C0.55218207 3.44428265 -1.27694609 5.36130962 -4.125 7.75 C-5.21167969 8.67039062 -5.21167969 8.67039062 -6.3203125 9.609375 C-6.87460938 10.06828125 -7.42890625 10.5271875 -8 11 C-8.66 10.67 -9.32 10.34 -10 10 C-8.71034824 8.62437146 -7.37310707 7.29233607 -6 6 C-5.34 6 -4.68 6 -4 6 C-3.71125 5.38125 -3.4225 4.7625 -3.125 4.125 C-2 2 -2 2 0 0 Z " fill="#724DE4" transform="translate(1718,1045)"/>
<path d="M0 0 C0.66 0.66 1.32 1.32 2 2 C1.45730469 2.60328125 0.91460938 3.2065625 0.35546875 3.828125 C-0.35996094 4.62734375 -1.07539062 5.4265625 -1.8125 6.25 C-2.52019531 7.03890625 -3.22789063 7.8278125 -3.95703125 8.640625 C-5.74168935 10.7016833 -7.39759062 12.79605523 -9 15 C-9.66 14.67 -10.32 14.34 -11 14 C-7.37 9.38 -3.74 4.76 0 0 Z " fill="#475DDB" transform="translate(1363,998)"/>
<path d="M0 0 C0.66 0.99 1.32 1.98 2 3 C1.21625 4.051875 0.4325 5.10375 -0.375 6.1875 C-2.40508579 9.01696802 -3.89112979 11.67338936 -5 15 C-5.66 14.34 -6.32 13.68 -7 13 C-3.535 6.565 -3.535 6.565 0 0 Z " fill="#4662DB" transform="translate(1397,942)"/>
<path d="M0 0 C2.1640625 -0.29296875 2.1640625 -0.29296875 4.625 -0.1875 C5.44226562 -0.16042969 6.25953125 -0.13335938 7.1015625 -0.10546875 C8.04128906 -0.05326172 8.04128906 -0.05326172 9 0 C9 0.66 9 1.32 9 2 C4.545 2.495 4.545 2.495 0 3 C-0.33 4.32 -0.66 5.64 -1 7 C-1.625 5.1875 -1.625 5.1875 -2 3 C-1.34 2.01 -0.68 1.02 0 0 Z " fill="#526ADD" transform="translate(1406,925)"/>
<path d="M0 0 C0.66 0.99 1.32 1.98 2 3 C1.401875 3.721875 0.80375 4.44375 0.1875 5.1875 C-2.02474039 7.90897537 -2.02474039 7.90897537 -3.625 10.75 C-5 13 -5 13 -7 14 C-5.53967505 8.68972746 -3.01679014 4.53669968 0 0 Z " fill="#465EDB" transform="translate(1387,960)"/>
<path d="M0 0 C0 4.13781054 -1.71509607 5.20919996 -4.5 8.1875 C-5.3353125 9.08855469 -6.170625 9.98960937 -7.03125 10.91796875 C-7.6809375 11.60503906 -8.330625 12.29210937 -9 13 C-9.66 12.67 -10.32 12.34 -11 12 C-7.37 8.04 -3.74 4.08 0 0 Z " fill="#297BD4" transform="translate(1047,880)"/>
<path d="M0 0 C0.66 0 1.32 0 2 0 C2.33 1.65 2.66 3.3 3 5 C3.66 5 4.32 5 5 5 C5.66 3.35 6.32 1.7 7 0 C7.33 0.99 7.66 1.98 8 3 C6.1875 6.1875 6.1875 6.1875 4 9 C3.34 9 2.68 9 2 9 C1.34 6.03 0.68 3.06 0 0 Z " fill="#575BDE" transform="translate(1623,841)"/>
<path d="M0 0 C0 3.99897642 -1.35316035 5.06701552 -4 8 C-5.63356951 9.37368345 -7.2925002 10.71937515 -9 12 C-9.66 11.67 -10.32 11.34 -11 11 C-7.37 7.37 -3.74 3.74 0 0 Z " fill="#1E84D2" transform="translate(742,1048)"/>
<path d="M0 0 C1.39195915 4.17587745 -0.17676781 6.13474776 -2 10 C-2.12375 9.071875 -2.12375 9.071875 -2.25 8.125 C-2.81258459 5.81562433 -2.81258459 5.81562433 -5.0625 4.75 C-5.701875 4.5025 -6.34125 4.255 -7 4 C-4.69 2.68 -2.38 1.36 0 0 Z " fill="#4D5FDC" transform="translate(1463,912)"/>
<path d="M0 0 C0.99 0.33 1.98 0.66 3 1 C1.58192622 5.47238653 -0.11304374 9.71146306 -2 14 C-3.25127906 10.45332822 -2.72285053 8.27746562 -1.5625 4.75 C-1.27503906 3.85796875 -0.98757813 2.9659375 -0.69140625 2.046875 C-0.46324219 1.37140625 -0.23507812 0.6959375 0 0 Z " fill="#516EDD" transform="translate(1375,915)"/>
<path d="M0 0 C0.66 0 1.32 0 2 0 C2 2.31 2 4.62 2 7 C0.02 7.99 0.02 7.99 -2 9 C-1.34 6.03 -0.68 3.06 0 0 Z " fill="#406DD9" transform="translate(1212,959)"/>
<path d="M0 0 C0.33 0.66 0.66 1.32 1 2 C2.65 2 4.3 2 6 2 C5.01 3.98 4.02 5.96 3 8 C2.34 8 1.68 8 1 8 C0.67 5.36 0.34 2.72 0 0 Z " fill="#2290D3" transform="translate(787,842)"/>
<path d="M0 0 C0.99 0.495 0.99 0.495 2 1 C2 1.66 2 2.32 2 3 C2.99 3.33 3.98 3.66 5 4 C5.73046875 6.06640625 5.73046875 6.06640625 6.1875 8.5625 C6.34605469 9.38878906 6.50460937 10.21507812 6.66796875 11.06640625 C6.77753906 11.70449219 6.88710938 12.34257813 7 13 C0 4.25 0 4.25 0 0 Z " fill="#1A8FD1" transform="translate(780,829)"/>
<path d="M0 0 C-3.4766338 2.14336161 -6.21229195 2.21277626 -10.25 2.125 C-11.32765625 2.10695313 -12.4053125 2.08890625 -13.515625 2.0703125 C-14.33546875 2.04710937 -15.1553125 2.02390625 -16 2 C-16 1.67 -16 1.34 -16 1 C-13.8973294 0.63705686 -11.79278943 0.28493028 -9.6875 -0.0625 C-8.51574219 -0.25972656 -7.34398437 -0.45695312 -6.13671875 -0.66015625 C-3 -1 -3 -1 0 0 Z " fill="#3A58D8" transform="translate(1281,1078)"/>
<path d="M0 0 C0.33 0.66 0.66 1.32 1 2 C-1.31 4.64 -3.62 7.28 -6 10 C-6 6.41087588 -5.33563446 5.89142971 -3 3.3125 C-2.443125 2.68988281 -1.88625 2.06726563 -1.3125 1.42578125 C-0.879375 0.95527344 -0.44625 0.48476563 0 0 Z " fill="#435BDA" transform="translate(1348,1018)"/>
<path d="M0 0 C0.66 0 1.32 0 2 0 C3.03159626 3.09478879 2.97482862 4.52631393 2.5625 7.6875 C2.46066406 8.49574219 2.35882813 9.30398438 2.25390625 10.13671875 C2.17011719 10.75160156 2.08632813 11.36648438 2 12 C1.67 12 1.34 12 1 12 C0.01751476 7.9472484 -0.08159574 4.16138263 0 0 Z " fill="#0AA2CD" transform="translate(358,938)"/>
<path d="M0 0 C1.98 0 3.96 0 6 0 C6 0.99 6 1.98 6 3 C4.02 3 2.04 3 0 3 C0 2.01 0 1.02 0 0 Z " fill="#2694D4" transform="translate(1448,28)"/>
<path d="M0 0 C0.33 0 0.66 0 1 0 C1 2.97 1 5.94 1 9 C0.01 9 -0.98 9 -2 9 C-1.34 6.03 -0.68 3.06 0 0 Z " fill="#685DE2" transform="translate(1689,878)"/>
<path d="M0 0 C-3.96 1.98 -3.96 1.98 -8 4 C-8 3.01 -8 2.02 -8 1 C-3.375 -1.125 -3.375 -1.125 0 0 Z " fill="#525EDD" transform="translate(1540,820)"/>
<path d="M0 0 C2.64 0 5.28 0 8 0 C8 0.33 8 0.66 8 1 C5.36 1 2.72 1 0 1 C0 0.67 0 0.34 0 0 Z " fill="#18A9D1" transform="translate(1716,27)"/>
<path d="M0 0 C2.64 0 5.28 0 8 0 C8 0.33 8 0.66 8 1 C5.36 1 2.72 1 0 1 C0 0.67 0 0.34 0 0 Z " fill="#18A9D1" transform="translate(302,27)"/>
<path d="M0 0 C1.65 0 3.3 0 5 0 C5 0.33 5 0.66 5 1 C3.35 1 1.7 1 0 1 C0 0.67 0 0.34 0 0 Z " fill="#18A9D1" transform="translate(1725,1738)"/>
<path d="M0 0 C4 1 4 1 4 1 Z " fill="#18A9D1" transform="translate(292,1737)"/>
<path d="M0 0 C1 4 1 4 1 4 Z " fill="#18A9D1" transform="translate(1868,167)"/>
<path d="M0 0 C1 4 1 4 1 4 Z " fill="#18A9D1" transform="translate(1867,162)"/>
<path d="M0 0 C1 4 1 4 1 4 Z " fill="#18A9D1" transform="translate(1866,158)"/>
<path d="M0 0 C1 4 1 4 1 4 Z " fill="#18A9D1" transform="translate(159,158)"/>
<path d="M0 0 C1 4 1 4 1 4 Z " fill="#18A9D1" transform="translate(160,154)"/>
<path d="M0 0 C3 1 3 1 3 1 Z " fill="#18A9D1" transform="translate(1735,1736)"/>
<path d="M0 0 C3 1 3 1 3 1 Z " fill="#18A9D1" transform="translate(288,1736)"/>
<path d="M0 0 C3 1 3 1 3 1 Z " fill="#18A9D1" transform="translate(275,1733)"/>
<path d="" fill="#18A9D1" transform="translate(0,0)"/>
<path d="" fill="#18A9D1" transform="translate(0,0)"/>
<path d="" fill="#18A9D1" transform="translate(0,0)"/>
<path d="" fill="#18A9D1" transform="translate(0,0)"/>
<path d="" fill="#18A9D1" transform="translate(0,0)"/>
<path d="" fill="#18A9D1" transform="translate(0,0)"/>
<path d="M0 0 C3 1 3 1 3 1 Z " fill="#18A9D1" transform="translate(1743,31)"/>
<path d="M0 0 C3 1 3 1 3 1 Z " fill="#18A9D1" transform="translate(1739,30)"/>
<path d="M0 0 C3 1 3 1 3 1 Z " fill="#18A9D1" transform="translate(284,30)"/>
<path d="M0 0 C2 1 2 1 2 1 Z " fill="#18A9D1" transform="translate(1749,1733)"/>
<path d="M0 0 C2 1 2 1 2 1 Z " fill="#18A9D1" transform="translate(272,1732)"/>
<path d="M0 0 C2 1 2 1 2 1 Z " fill="#18A9D1" transform="translate(1763,1728)"/>
<path d="M0 0 C2 1 2 1 2 1 Z " fill="#18A9D1" transform="translate(261,1728)"/>
<path d="" fill="#18A9D1" transform="translate(0,0)"/>
<path d="" fill="#18A9D1" transform="translate(0,0)"/>
<path d="" fill="#18A9D1" transform="translate(0,0)"/>
<path d="" fill="#18A9D1" transform="translate(0,0)"/>
<path d="" fill="#18A9D1" transform="translate(0,0)"/>
<path d="" fill="#18A9D1" transform="translate(0,0)"/>
<path d="" fill="#18A9D1" transform="translate(0,0)"/>
<path d="" fill="#18A9D1" transform="translate(0,0)"/>
<path d="" fill="#18A9D1" transform="translate(0,0)"/>
<path d="" fill="#18A9D1" transform="translate(0,0)"/>
<path d="" fill="#18A9D1" transform="translate(0,0)"/>
<path d="" fill="#18A9D1" transform="translate(0,0)"/>
<path d="" fill="#18A9D1" transform="translate(0,0)"/>
<path d="" fill="#18A9D1" transform="translate(0,0)"/>
<path d="" fill="#18A9D1" transform="translate(0,0)"/>
<path d="" fill="#18A9D1" transform="translate(0,0)"/>
<path d="" fill="#18A9D1" transform="translate(0,0)"/>
<path d="" fill="#18A9D1" transform="translate(0,0)"/>
<path d="M0 0 C2 1 2 1 2 1 Z " fill="#18A9D1" transform="translate(245,45)"/>
<path d="M0 0 C2 1 2 1 2 1 Z " fill="#18A9D1" transform="translate(1767,39)"/>
<path d="M0 0 C2 1 2 1 2 1 Z " fill="#18A9D1" transform="translate(257,39)"/>
<path d="M0 0 C2 1 2 1 2 1 Z " fill="#18A9D1" transform="translate(1759,36)"/>
<path d="M0 0 C2 1 2 1 2 1 Z " fill="#18A9D1" transform="translate(265,36)"/>
<path d="M0 0 C2 1 2 1 2 1 Z " fill="#18A9D1" transform="translate(1757,35)"/>
<path d="M0 0 C2 1 2 1 2 1 Z " fill="#18A9D1" transform="translate(267,35)"/>
<path d="M0 0 C2 1 2 1 2 1 Z " fill="#18A9D1" transform="translate(270,34)"/>
<path d="M0 0 C2 1 2 1 2 1 Z " fill="#18A9D1" transform="translate(1746,32)"/>
<path d="M0 0 C2 1 2 1 2 1 Z " fill="#18A9D1" transform="translate(278,32)"/>
<path d="M0 0 C2 1 2 1 2 1 Z " fill="#18A9D1" transform="translate(281,31)"/>
<path d="" fill="#18A9D1" transform="translate(0,0)"/>
<path d="" fill="#18A9D1" transform="translate(0,0)"/>
<path d="" fill="#18A9D1" transform="translate(0,0)"/>
<path d="" fill="#18A9D1" transform="translate(0,0)"/>
<path d="" fill="#18A9D1" transform="translate(0,0)"/>
<path d="" fill="#18A9D1" transform="translate(0,0)"/>
<path d="" fill="#18A9D1" transform="translate(0,0)"/>
<path d="" fill="#18A9D1" transform="translate(0,0)"/>
<path d="" fill="#18A9D1" transform="translate(0,0)"/>
<path d="" fill="#18A9D1" transform="translate(0,0)"/>
<path d="" fill="#18A9D1" transform="translate(0,0)"/>
<path d="" fill="#18A9D1" transform="translate(0,0)"/>
<path d="" fill="#18A9D1" transform="translate(0,0)"/>
<path d="" fill="#18A9D1" transform="translate(0,0)"/>
<path d="" fill="#18A9D1" transform="translate(0,0)"/>
<path d="" fill="#18A9D1" transform="translate(0,0)"/>
<path d="" fill="#18A9D1" transform="translate(0,0)"/>
<path d="" fill="#18A9D1" transform="translate(0,0)"/>
<path d="" fill="#18A9D1" transform="translate(0,0)"/>
<path d="" fill="#18A9D1" transform="translate(0,0)"/>
<path d="" fill="#18A9D1" transform="translate(0,0)"/>
<path d="" fill="#18A9D1" transform="translate(0,0)"/>
<path d="" fill="#18A9D1" transform="translate(0,0)"/>
<path d="" fill="#18A9D1" transform="translate(0,0)"/>
<path d="" fill="#18A9D1" transform="translate(0,0)"/>
<path d="" fill="#18A9D1" transform="translate(0,0)"/>
<path d="" fill="#18A9D1" transform="translate(0,0)"/>
<path d="" fill="#18A9D1" transform="translate(0,0)"/>
<path d="" fill="#18A9D1" transform="translate(0,0)"/>
<path d="" fill="#18A9D1" transform="translate(0,0)"/>
<path d="" fill="#18A9D1" transform="translate(0,0)"/>
<path d="" fill="#18A9D1" transform="translate(0,0)"/>
<path d="" fill="#18A9D1" transform="translate(0,0)"/>
<path d="" fill="#18A9D1" transform="translate(0,0)"/>
<path d="" fill="#18A9D1" transform="translate(0,0)"/>
<path d="" fill="#18A9D1" transform="translate(0,0)"/>
<path d="" fill="#18A9D1" transform="translate(0,0)"/>
<path d="" fill="#18A9D1" transform="translate(0,0)"/>
<path d="" fill="#18A9D1" transform="translate(0,0)"/>
<path d="" fill="#18A9D1" transform="translate(0,0)"/>
<path d="" fill="#18A9D1" transform="translate(0,0)"/>
<path d="" fill="#18A9D1" transform="translate(0,0)"/>
<path d="" fill="#18A9D1" transform="translate(0,0)"/>
<path d="" fill="#18A9D1" transform="translate(0,0)"/>
<path d="" fill="#18A9D1" transform="translate(0,0)"/>
<path d="" fill="#18A9D1" transform="translate(0,0)"/>
<path d="" fill="#18A9D1" transform="translate(0,0)"/>
<path d="" fill="#18A9D1" transform="translate(0,0)"/>
<path d="" fill="#18A9D1" transform="translate(0,0)"/>
<path d="" fill="#18A9D1" transform="translate(0,0)"/>
<path d="" fill="#18A9D1" transform="translate(0,0)"/>
<path d="" fill="#18A9D1" transform="translate(0,0)"/>
<path d="" fill="#18A9D1" transform="translate(0,0)"/>
<path d="" fill="#18A9D1" transform="translate(0,0)"/>
<path d="" fill="#18A9D1" transform="translate(0,0)"/>
<path d="" fill="#18A9D1" transform="translate(0,0)"/>
<path d="" fill="#18A9D1" transform="translate(0,0)"/>
<path d="" fill="#18A9D1" transform="translate(0,0)"/>
<path d="" fill="#18A9D1" transform="translate(0,0)"/>
<path d="" fill="#18A9D1" transform="translate(0,0)"/>
<path d="" fill="#18A9D1" transform="translate(0,0)"/>
<path d="" fill="#18A9D1" transform="translate(0,0)"/>
<path d="" fill="#18A9D1" transform="translate(0,0)"/>
<path d="" fill="#18A9D1" transform="translate(0,0)"/>
<path d="" fill="#18A9D1" transform="translate(0,0)"/>
<path d="" fill="#18A9D1" transform="translate(0,0)"/>
<path d="" fill="#18A9D1" transform="translate(0,0)"/>
<path d="" fill="#18A9D1" transform="translate(0,0)"/>
<path d="" fill="#18A9D1" transform="translate(0,0)"/>
<path d="" fill="#18A9D1" transform="translate(0,0)"/>
<path d="" fill="#18A9D1" transform="translate(0,0)"/>
<path d="" fill="#18A9D1" transform="translate(0,0)"/>
<path d="" fill="#18A9D1" transform="translate(0,0)"/>
<path d="" fill="#18A9D1" transform="translate(0,0)"/>
<path d="" fill="#18A9D1" transform="translate(0,0)"/>
<path d="" fill="#18A9D1" transform="translate(0,0)"/>
<path d="" fill="#18A9D1" transform="translate(0,0)"/>
<path d="" fill="#18A9D1" transform="translate(0,0)"/>
<path d="" fill="#18A9D1" transform="translate(0,0)"/>
<path d="" fill="#18A9D1" transform="translate(0,0)"/>
<path d="" fill="#18A9D1" transform="translate(0,0)"/>
<path d="" fill="#18A9D1" transform="translate(0,0)"/>
<path d="" fill="#18A9D1" transform="translate(0,0)"/>
<path d="" fill="#18A9D1" transform="translate(0,0)"/>
<path d="" fill="#18A9D1" transform="translate(0,0)"/>
<path d="" fill="#18A9D1" transform="translate(0,0)"/>
<path d="" fill="#18A9D1" transform="translate(0,0)"/>
<path d="" fill="#18A9D1" transform="translate(0,0)"/>
<path d="" fill="#18A9D1" transform="translate(0,0)"/>
<path d="" fill="#18A9D1" transform="translate(0,0)"/>
<path d="" fill="#18A9D1" transform="translate(0,0)"/>
<path d="" fill="#18A9D1" transform="translate(0,0)"/>
<path d="" fill="#18A9D1" transform="translate(0,0)"/>
<path d="" fill="#18A9D1" transform="translate(0,0)"/>
<path d="" fill="#18A9D1" transform="translate(0,0)"/>
<path d="" fill="#18A9D1" transform="translate(0,0)"/>
<path d="" fill="#18A9D1" transform="translate(0,0)"/>
<path d="" fill="#18A9D1" transform="translate(0,0)"/>
<path d="" fill="#18A9D1" transform="translate(0,0)"/>
<path d="" fill="#18A9D1" transform="translate(0,0)"/>
<path d="" fill="#18A9D1" transform="translate(0,0)"/>
<path d="" fill="#18A9D1" transform="translate(0,0)"/>
<path d="" fill="#18A9D1" transform="translate(0,0)"/>
<path d="" fill="#18A9D1" transform="translate(0,0)"/>
<path d="" fill="#18A9D1" transform="translate(0,0)"/>
<path d="" fill="#18A9D1" transform="translate(0,0)"/>
<path d="" fill="#18A9D1" transform="translate(0,0)"/>
<path d="" fill="#18A9D1" transform="translate(0,0)"/>
<path d="" fill="#18A9D1" transform="translate(0,0)"/>
<path d="" fill="#18A9D1" transform="translate(0,0)"/>
<path d="" fill="#18A9D1" transform="translate(0,0)"/>
<path d="" fill="#18A9D1" transform="translate(0,0)"/>
<path d="" fill="#18A9D1" transform="translate(0,0)"/>
<path d="" fill="#18A9D1" transform="translate(0,0)"/>
<path d="" fill="#18A9D1" transform="translate(0,0)"/>
<path d="" fill="#18A9D1" transform="translate(0,0)"/>
<path d="" fill="#18A9D1" transform="translate(0,0)"/>
<path d="" fill="#18A9D1" transform="translate(0,0)"/>
<path d="" fill="#18A9D1" transform="translate(0,0)"/>
<path d="" fill="#18A9D1" transform="translate(0,0)"/>
<path d="" fill="#18A9D1" transform="translate(0,0)"/>
<path d="" fill="#18A9D1" transform="translate(0,0)"/>
<path d="" fill="#18A9D1" transform="translate(0,0)"/>
<path d="" fill="#18A9D1" transform="translate(0,0)"/>
<path d="" fill="#18A9D1" transform="translate(0,0)"/>
<path d="" fill="#18A9D1" transform="translate(0,0)"/>
<path d="" fill="#18A9D1" transform="translate(0,0)"/>
<path d="" fill="#18A9D1" transform="translate(0,0)"/>
<path d="" fill="#18A9D1" transform="translate(0,0)"/>
<path d="" fill="#18A9D1" transform="translate(0,0)"/>
<path d="" fill="#18A9D1" transform="translate(0,0)"/>
<path d="" fill="#18A9D1" transform="translate(0,0)"/>
<path d="" fill="#18A9D1" transform="translate(0,0)"/>
<path d="" fill="#18A9D1" transform="translate(0,0)"/>
<path d="" fill="#18A9D1" transform="translate(0,0)"/>
<path d="" fill="#18A9D1" transform="translate(0,0)"/>
<path d="" fill="#18A9D1" transform="translate(0,0)"/>
<path d="" fill="#18A9D1" transform="translate(0,0)"/>
<path d="" fill="#18A9D1" transform="translate(0,0)"/>
<path d="" fill="#18A9D1" transform="translate(0,0)"/>
<path d="" fill="#18A9D1" transform="translate(0,0)"/>
<path d="" fill="#18A9D1" transform="translate(0,0)"/>
<path d="" fill="#18A9D1" transform="translate(0,0)"/>
<path d="" fill="#18A9D1" transform="translate(0,0)"/>
<path d="" fill="#18A9D1" transform="translate(0,0)"/>
<path d="" fill="#18A9D1" transform="translate(0,0)"/>
<path d="" fill="#18A9D1" transform="translate(0,0)"/>
<path d="" fill="#18A9D1" transform="translate(0,0)"/>
<path d="" fill="#18A9D1" transform="translate(0,0)"/>
<path d="" fill="#18A9D1" transform="translate(0,0)"/>
<path d="" fill="#18A9D1" transform="translate(0,0)"/>
<path d="" fill="#18A9D1" transform="translate(0,0)"/>
<path d="" fill="#18A9D1" transform="translate(0,0)"/>
<path d="" fill="#18A9D1" transform="translate(0,0)"/>
<path d="" fill="#18A9D1" transform="translate(0,0)"/>
<path d="" fill="#18A9D1" transform="translate(0,0)"/>
<path d="" fill="#18A9D1" transform="translate(0,0)"/>
<path d="" fill="#18A9D1" transform="translate(0,0)"/>
<path d="" fill="#18A9D1" transform="translate(0,0)"/>
<path d="" fill="#18A9D1" transform="translate(0,0)"/>
<path d="" fill="#18A9D1" transform="translate(0,0)"/>
<path d="" fill="#18A9D1" transform="translate(0,0)"/>
<path d="" fill="#18A9D1" transform="translate(0,0)"/>
<path d="" fill="#18A9D1" transform="translate(0,0)"/>
<path d="" fill="#18A9D1" transform="translate(0,0)"/>
<path d="" fill="#18A9D1" transform="translate(0,0)"/>
<path d="" fill="#18A9D1" transform="translate(0,0)"/>
<path d="" fill="#18A9D1" transform="translate(0,0)"/>
<path d="" fill="#18A9D1" transform="translate(0,0)"/>
<path d="" fill="#18A9D1" transform="translate(0,0)"/>
<path d="" fill="#18A9D1" transform="translate(0,0)"/>
<path d="" fill="#18A9D1" transform="translate(0,0)"/>
<path d="" fill="#18A9D1" transform="translate(0,0)"/>
<path d="" fill="#18A9D1" transform="translate(0,0)"/>
<path d="" fill="#18A9D1" transform="translate(0,0)"/>
<path d="" fill="#18A9D1" transform="translate(0,0)"/>
<path d="" fill="#18A9D1" transform="translate(0,0)"/>
<path d="" fill="#18A9D1" transform="translate(0,0)"/>
<path d="" fill="#18A9D1" transform="translate(0,0)"/>
<path d="" fill="#18A9D1" transform="translate(0,0)"/>
<path d="" fill="#18A9D1" transform="translate(0,0)"/>
<path d="" fill="#18A9D1" transform="translate(0,0)"/>
<path d="" fill="#18A9D1" transform="translate(0,0)"/>
</svg>
