<?xml version="1.0" encoding="UTF-8"?>
<svg version="1.1" xmlns="http://www.w3.org/2000/svg" width="225" height="225">
<path d="M0 0 C74.25 0 148.5 0 225 0 C225 74.25 225 148.5 225 225 C150.75 225 76.5 225 0 225 C0 150.75 0 76.5 0 0 Z " fill="#FDFEFE" transform="translate(0,0)"/>
<path d="M0 0 C52.47 0 104.94 0 159 0 C159 11.25001002 159 11.25001002 158.59585571 15.94511414 C158.50619034 17.01104797 158.41652496 18.07698181 158.32414246 19.17521667 C158.17456841 20.87645439 158.17456841 20.87645439 158.02197266 22.61206055 C157.91789597 23.83478668 157.81381927 25.05751282 157.70658875 26.31729126 C157.42233945 29.64692887 157.13435036 32.9762019 156.84464312 36.30536628 C156.53956109 39.82170847 156.23934329 43.33846611 155.93856812 46.85517883 C155.36708512 53.52844351 154.79126598 60.20132657 154.21387517 66.87408239 C153.5645479 74.38068519 152.92013473 81.88770715 152.27611852 89.39476717 C150.19949334 113.59784683 148.10801706 137.79963328 146 162 C144.74911476 162.47708967 143.49744187 162.95211443 142.24545288 163.42630005 C141.54851507 163.691057 140.85157726 163.95581394 140.13352013 164.22859383 C136.79659083 165.43511062 133.39876438 166.3739945 129.9765625 167.3046875 C129.23151459 167.51054474 128.48646667 167.71640198 127.71884155 167.92849731 C125.35515917 168.58077192 122.99013677 169.22802128 120.625 169.875 C119.07933304 170.30043972 117.53375946 170.72621887 115.98828125 171.15234375 C112.89675977 172.00448399 109.8045283 172.85398366 106.71191406 173.70214844 C103.47172158 174.59224788 100.23448972 175.49228722 96.99902344 176.39941406 C96.18581635 176.62702423 95.37260925 176.8546344 94.53475952 177.08914185 C92.98682276 177.52288879 91.4392908 177.95808402 89.89224243 178.39498901 C87.93195107 178.94371492 85.96617645 179.47275004 84 180 C83.15300537 180.24476074 82.30601074 180.48952148 81.43334961 180.74169922 C77.98541795 181.10769818 75.25774488 180.28064341 71.91796875 179.375 C71.23482101 179.19268829 70.55167328 179.01037659 69.8478241 178.82254028 C67.62460407 178.22592839 65.40612087 177.61347348 63.1875 177 C61.65398428 176.58382476 60.1202914 176.16830175 58.58642578 175.75341797 C47.63989822 172.77953338 36.7163371 169.71546109 25.8359375 166.5078125 C25.08876465 166.28754395 24.3415918 166.06727539 23.57177734 165.84033203 C20.00259017 164.67409487 16.50980748 163.33431081 13 162 C12.94846268 161.33064423 12.89692535 160.66128845 12.84382629 159.97164917 C10.53788677 130.06796724 8.1899182 100.173354 5.375 70.3125 C5.27076721 69.20554779 5.16653442 68.09859558 5.05914307 66.95809937 C4.85241152 64.76307538 4.64566534 62.56805278 4.43890381 60.37303162 C4.2893222 58.7845919 4.2893222 58.7845919 4.13671875 57.1640625 C4.03909241 56.12794327 3.94146606 55.09182404 3.84088135 54.02430725 C2.97983991 44.85377899 2.15896061 35.68019685 1.38336182 26.50204468 C1.25544263 24.99039391 1.12622743 23.47885209 0.99554443 21.96743774 C0.81988839 19.9304527 0.65004193 17.89296919 0.48046875 15.85546875 C0.38660889 14.73809326 0.29274902 13.62071777 0.19604492 12.46948242 C-0.03847488 8.31909516 0 4.15700781 0 0 Z " fill="#036FBA" transform="translate(33,44)"/>
<path d="M0 0 C33.33 0 66.66 0 101 0 C100.67 4.62 100.34 9.24 100 14 C99.98783447 15.34392822 99.97566895 16.68785645 99.96313477 18.07250977 C98.86135805 21.42140828 98.31057253 21.78351851 95.39819336 23.53881836 C93.80851519 24.33263149 92.20447593 25.0981033 90.58984375 25.83984375 C89.74780899 26.25166397 88.90577423 26.66348419 88.03822327 27.08778381 C85.34920744 28.39594063 82.64438387 29.66679442 79.9375 30.9375 C78.11016785 31.81856115 76.28397906 32.70199789 74.45898438 33.58789062 C69.98695762 35.75780993 65.49540535 37.87640361 61 40 C72.88 40.33 84.76 40.66 97 41 C95.84532002 59.47487967 95.84532002 59.47487967 95.28125 66.41015625 C95.21844849 67.19216904 95.15564697 67.97418182 95.09094238 68.77989197 C94.96061707 70.39685934 94.82956122 72.013768 94.69775391 73.63061523 C94.49764782 76.09142604 94.30146517 78.55253071 94.10546875 81.01367188 C93.97679698 82.60418565 93.84789915 84.19468116 93.71875 85.78515625 C93.661427 86.50816422 93.604104 87.23117218 93.54504395 87.97608948 C93.3794182 89.98544769 93.19017649 91.99281659 93 94 C92.82307617 95.92477173 92.82307617 95.92477173 92.64257812 97.88842773 C92 101 92 101 89 103 C86.70227677 103.63906335 84.38600524 104.21217341 82.0625 104.75 C77.24236332 105.8826648 72.49617946 107.12393316 67.77734375 108.62890625 C66.90005615 108.90702148 66.02276855 109.18513672 65.11889648 109.47167969 C63.40971903 110.02042651 61.70450947 110.58173577 60.00415039 111.15722656 C59.20871826 111.41084961 58.41328613 111.66447266 57.59375 111.92578125 C56.89958984 112.15692627 56.20542969 112.38807129 55.49023438 112.6262207 C49.02281561 113.59696758 42.51792738 111.48209078 36.34375 109.71484375 C35.55601196 109.49429825 34.76827393 109.27375275 33.95666504 109.04652405 C31.4695627 108.34888412 28.98478626 107.64333942 26.5 106.9375 C24.8022315 106.45975961 23.10431606 105.98254106 21.40625 105.50585938 C17.2691111 104.34326229 13.13403724 103.17357618 9 102 C7.80472209 91.61916971 6.72799601 81.47215351 7 71 C13.93 71 20.86 71 28 71 C28.33 75.95 28.66 80.9 29 86 C31.66291751 86.84729194 34.32929998 87.67790432 37 88.5 C37.74378906 88.73847656 38.48757812 88.97695312 39.25390625 89.22265625 C48.06256208 91.9035515 54.8404026 91.10753676 63.5 88.5 C67.7075 87.2625 67.7075 87.2625 72 86 C72.66 77.75 73.32 69.5 74 61 C51.23 61 28.46 61 5 61 C4.67 54.07 4.34 47.14 4 40 C6.805 38.515 9.61 37.03 12.5 35.5 C13.34626953 35.05076172 14.19253906 34.60152344 15.06445312 34.13867188 C22.98361117 29.95931005 30.98289357 26.00855322 39 22 C20.685 21.505 20.685 21.505 2 21 C1.34 14.07 0.68 7.14 0 0 Z " fill="#FBFDFE" transform="translate(62,77)"/>
<path d="M0 0 C21.12 0 42.24 0 64 0 C62.93933698 12.66682294 61.87757404 25.33354792 60.8125 38 C60.73363934 38.93787479 60.65477867 39.87574959 60.57352829 40.84204483 C57.82055523 73.57112235 54.9762575 106.29040792 52 139 C38.67457305 142.75991952 25.35382377 146.51325 11.9375 149.9375 C10.76251953 150.23978516 9.58753906 150.54207031 8.37695312 150.85351562 C5.58524457 151.57138354 2.7927226 152.28608723 0 153 C0 146.07 0 139.14 0 132 C7.16611417 129.25135347 14.30227548 127.02427627 21.73828125 125.125 C27.86008543 123.54559044 33.92548929 121.75059782 40 120 C40.07516846 119.21278564 40.15033691 118.42557129 40.2277832 117.61450195 C42.06600605 98.40000179 43.99424945 79.19789814 46 60 C33.46 60 20.92 60 8 60 C10.65354127 58.00984404 12.68246097 56.53323888 15.54345703 55.09887695 C16.21740509 54.75875076 16.89135315 54.41862457 17.58572388 54.06819153 C18.30251312 53.71182114 19.01930237 53.35545074 19.7578125 52.98828125 C20.87420609 52.42864937 20.87420609 52.42864937 22.01315308 51.85771179 C23.58053973 51.07334004 25.14893186 50.29097466 26.71826172 49.51049805 C29.12640908 48.3117986 31.53015183 47.10458572 33.93359375 45.89648438 C35.45807693 45.13490321 36.98280805 44.37381808 38.5078125 43.61328125 C39.22865021 43.25083817 39.94948792 42.88839508 40.69216919 42.51496887 C45.7700556 40 45.7700556 40 48 40 C48.09087891 38.35451172 48.09087891 38.35451172 48.18359375 36.67578125 C48.26804498 35.22134346 48.35269066 33.76691695 48.4375 32.3125 C48.47681641 31.59126953 48.51613281 30.87003906 48.55664062 30.12695312 C48.61948242 29.06831055 48.61948242 29.06831055 48.68359375 27.98828125 C48.72025146 27.34415283 48.75690918 26.70002441 48.79467773 26.03637695 C49.03339807 23.6687594 49.53331775 21.33341123 50 19 C33.5 19 17 19 0 19 C0 12.73 0 6.46 0 0 Z " fill="#16A1DC" transform="translate(113,58)"/>
<path d="M0 0 C9.24 0 18.48 0 28 0 C28 2.64 28 5.28 28 8 C21.4 8 14.8 8 8 8 C8 8.99 8 9.98 8 11 C14.6 11 21.2 11 28 11 C28 17.27 28 23.54 28 30 C18.76 30 9.52 30 0 30 C0 27.36 0 24.72 0 22 C6.6 22 13.2 22 20 22 C20 20.68 20 19.36 20 18 C13.4 18 6.8 18 0 18 C0 12.06 0 6.12 0 0 Z " fill="#090909" transform="translate(98,0)"/>
<path d="M0 0 C9.24 0 18.48 0 28 0 C28 2.64 28 5.28 28 8 C21.4 8 14.8 8 8 8 C8 9.32 8 10.64 8 12 C14.6 12 21.2 12 28 12 C28 17.94 28 23.88 28 30 C18.76 30 9.52 30 0 30 C0 27.36 0 24.72 0 22 C6.93 22 13.86 22 21 22 C21 20.68 21 19.36 21 18 C14.07 18 7.14 18 0 18 C0 12.06 0 6.12 0 0 Z " fill="#030303" transform="translate(130,0)"/>
<path d="M0 0 C7.59 0 15.18 0 23 0 C23 6.37490638 22.99857685 12.39296729 22.5 18.6875 C22.4071875 19.88761719 22.314375 21.08773437 22.21875 22.32421875 C22.1465625 23.20722656 22.074375 24.09023437 22 25 C6.85714286 31 6.85714286 31 0 31 C0 20.77 0 10.54 0 0 Z " fill="#15A1DC" transform="translate(113,138)"/>
<path d="M0 0 C9.24 0 18.48 0 28 0 C28 2.64 28 5.28 28 8 C21.4 8 14.8 8 8 8 C8 12.62 8 17.24 8 22 C14.6 22 21.2 22 28 22 C28 24.64 28 27.28 28 30 C18.76 30 9.52 30 0 30 C0 20.1 0 10.2 0 0 Z " fill="#060606" transform="translate(65,0)"/>
</svg>
