<svg width="18" height="16" viewBox="0 0 18 16" fill="none" xmlns="http://www.w3.org/2000/svg">
<g clip-path="url(#clip0_228_1656)">
<path opacity="0.5" d="M0.888887 0H16.8889C17.1247 0 17.3507 0.0936507 17.5174 0.260349C17.6841 0.427049 17.7778 0.653141 17.7778 0.888887V15.1111C17.7778 15.3469 17.6841 15.5729 17.5174 15.7397C17.3507 15.9063 17.1247 16 16.8889 16H0.888887C0.653141 16 0.427049 15.9063 0.260349 15.7397C0.0936507 15.5729 0 15.3469 0 15.1111V0.888887C0 0.653141 0.0936507 0.427049 0.260349 0.260349C0.427049 0.0936507 0.653141 0 0.888887 0ZM8.9422 7.7182L3.24267 2.87822L2.09155 4.23289L8.9538 10.0595L15.6925 4.22845L14.5298 2.88355L8.94313 7.7182H8.9422Z" fill="#161513"/>
</g>
<defs>
<clipPath id="clip0_228_1656">
<rect width="18" height="16" fill="white"/>
</clipPath>
</defs>
</svg>
