<?xml version="1.0" encoding="UTF-8"?>
<svg version="1.1" xmlns="http://www.w3.org/2000/svg" width="100" height="100">
<path d="M0 0 C10.28304538 -0.02312376 20.56608462 -0.04091525 30.84915066 -0.05181217 C35.6234828 -0.05704093 40.39779721 -0.06413844 45.17211914 -0.07543945 C49.77566262 -0.0862686 54.37918899 -0.09227689 58.98274422 -0.09487724 C60.74309623 -0.09673144 62.50344726 -0.10035196 64.26379204 -0.10573006 C66.72072277 -0.11294086 69.17758195 -0.11399093 71.63452148 -0.11352539 C72.73719109 -0.1189183 72.73719109 -0.1189183 73.86213684 -0.12442017 C78.88594784 -0.11405216 78.88594784 -0.11405216 80 1 C79.83528425 14.94028169 78.09718801 28.95138383 76.84326172 42.82373047 C76.49758691 46.65172246 76.15672567 50.4801223 75.81640625 54.30859375 C75.59663655 56.76044199 75.37659435 59.21226583 75.15625 61.6640625 C75.00464417 63.36727158 75.00464417 63.36727158 74.84997559 65.10488892 C74.36628002 70.43032071 73.82809951 75.71661172 73 81 C69.14592746 82.12532262 65.29172512 83.25020008 61.4375 84.375 C60.35146484 84.69210938 59.26542969 85.00921875 58.14648438 85.3359375 C56.03103999 85.95321003 53.91436344 86.56627784 51.79638672 87.17480469 C49.58871553 87.82627392 47.40108661 88.5456478 45.22265625 89.2890625 C37.11853251 91.07688131 28.88199205 87.73035915 21.125 85.5 C19.98546875 85.17902344 18.8459375 84.85804687 17.671875 84.52734375 C9.30464457 82.15232229 9.30464457 82.15232229 7 81 C6.53843689 78.56445312 6.53843689 78.56445312 6.23803711 75.28125 C6.12129135 74.05486816 6.00454559 72.82848633 5.88426208 71.56494141 C5.76501539 70.20998502 5.64605027 68.85500382 5.52734375 67.5 C5.39881869 66.10719042 5.26953955 64.71445023 5.13954163 63.32177734 C4.86748741 60.38655789 4.60161885 57.45086741 4.34057617 54.51464844 C4.01042563 50.80168301 3.67004322 47.08975971 3.32541561 43.37811279 C2.99313808 39.79408347 2.66635401 36.20955852 2.33984375 32.625 C2.22003647 31.31595703 2.10022919 30.00691406 1.97679138 28.65820312 C1.12763385 19.11349026 0.51815627 9.56771932 0 0 Z " fill="#D34A23" transform="translate(10,5)"/>
<path d="M0 0 C15.84 0 31.68 0 48 0 C48 3.3 48 6.6 48 10 C35.79 10 23.58 10 11 10 C11 13.3 11 16.6 11 20 C22.55 20 34.1 20 46 20 C46 36.10472973 46 36.10472973 45 42.875 C44.90460938 43.57496094 44.80921875 44.27492187 44.7109375 44.99609375 C44.48228939 46.66522494 44.24249823 48.3328247 44 50 C39.7976851 51.3943387 35.58966504 52.73500592 31.328125 53.9375 C30.61301758 54.13988281 29.89791016 54.34226563 29.16113281 54.55078125 C25.18321828 55.37764103 21.87426945 55.10138095 18 54 C16.79601562 53.67773438 15.59203125 53.35546875 14.3515625 53.0234375 C10.88314225 52.07325067 7.43908041 51.05178135 4 50 C3.14701624 46.32612505 2.89210529 42.9552607 2.9375 39.1875 C2.94652344 38.21167969 2.95554687 37.23585937 2.96484375 36.23046875 C2.97644531 35.49441406 2.98804688 34.75835937 3 34 C6.3 34 9.6 34 13 34 C13.33 36.64 13.66 39.28 14 42 C21.10528841 44.56999794 26.75362507 43.81159373 34 42 C34.66 37.71 35.32 33.42 36 29 C24.78 29 13.56 29 2 29 C1.67 26.256875 1.34 23.51375 1 20.6875 C0.89558594 19.84791748 0.79117187 19.00833496 0.68359375 18.14331055 C-0.02944345 11.96719172 0 6.33170057 0 0 Z " fill="#EDE4E1" transform="translate(26,22)"/>
<path d="M0 0 C10.23 0 20.46 0 31 0 C31 14.62838802 31 14.62838802 30.4140625 21.00390625 C30.35280685 21.68703384 30.29155121 22.37016144 30.22843933 23.07398987 C30.0329602 25.2373896 29.82923346 27.39991095 29.625 29.5625 C29.4874501 31.06425157 29.35032792 32.56604237 29.21362305 34.06787109 C28.20782683 45.05154943 27.14551701 56.02999003 26 67 C25.42894531 67.17015625 24.85789063 67.3403125 24.26953125 67.515625 C23.45871094 67.75796875 22.64789063 68.0003125 21.8125 68.25 C20.91015625 68.51941406 20.0078125 68.78882812 19.078125 69.06640625 C16.8970671 69.72792 14.72036305 70.40386732 12.546875 71.08984375 C10.82210937 71.63318359 10.82210937 71.63318359 9.0625 72.1875 C7.98097656 72.53167969 6.89945313 72.87585938 5.78515625 73.23046875 C3 74 3 74 0 74 C0 70.7 0 67.4 0 64 C2.58122508 63.15960114 5.16463901 62.32749444 7.75 61.5 C8.47960937 61.26152344 9.20921875 61.02304688 9.9609375 60.77734375 C10.66992188 60.55175781 11.37890625 60.32617188 12.109375 60.09375 C12.75874023 59.88427734 13.40810547 59.67480469 14.07714844 59.45898438 C16 59 16 59 20 59 C20.09087891 57.51113281 20.09087891 57.51113281 20.18359375 55.9921875 C20.26819363 54.61978948 20.35283114 53.24739377 20.4375 51.875 C20.47681641 51.22917969 20.51613281 50.58335938 20.55664062 49.91796875 C20.98855156 42.94094602 21.50186659 35.97386768 22 29 C10.45 29 -1.1 29 -13 29 C-13 25.7 -13 22.4 -13 19 C-0.79 19 11.42 19 24 19 C24 15.7 24 12.4 24 9 C16.08 9 8.16 9 0 9 C0 6.03 0 3.06 0 0 Z " fill="#F0662B" transform="translate(50,13)"/>
<path d="M0 0 C6.93 0 13.86 0 21 0 C20.67 9.57 20.34 19.14 20 29 C10.6934266 32.00448433 10.6934266 32.00448433 7.328125 32.9375 C6.61301758 33.13988281 5.89791016 33.34226563 5.16113281 33.55078125 C1.18321828 34.37764103 -2.12573055 34.10138095 -6 33 C-7.20398438 32.67773438 -8.40796875 32.35546875 -9.6484375 32.0234375 C-13.11685775 31.07325067 -16.56091959 30.05178135 -20 29 C-20.85298376 25.32612505 -21.10789471 21.9552607 -21.0625 18.1875 C-21.05347656 17.21167969 -21.04445313 16.23585938 -21.03515625 15.23046875 C-21.02355469 14.49441406 -21.01195313 13.75835937 -21 13 C-17.7 13 -14.4 13 -11 13 C-10.67 15.64 -10.34 18.28 -10 21 C-2.89471159 23.56999794 2.75362507 22.81159373 10 21 C10.66 16.71 11.32 12.42 12 8 C8.04 8 4.08 8 0 8 C0 5.36 0 2.72 0 0 Z " fill="#FEFDFC" transform="translate(50,43)"/>
<path d="M0 0 C3.3 0 6.6 0 10 0 C10.33 2.64 10.66 5.28 11 8 C14.3 8.99 17.6 9.98 21 11 C21 13.97 21 16.94 21 20 C21.99 20.33 22.98 20.66 24 21 C15.97229811 20.44636539 8.66145933 18.34312056 1 16 C0.14701624 12.32612505 -0.10789471 8.9552607 -0.0625 5.1875 C-0.05347656 4.21167969 -0.04445313 3.23585937 -0.03515625 2.23046875 C-0.02355469 1.49441406 -0.01195313 0.75835937 0 0 Z " fill="#EAE3E0" transform="translate(29,56)"/>
<path d="M0 0 C11.22 0 22.44 0 34 0 C34 11.13043478 34 11.13043478 32 14 C27.60087404 15.7765701 23.71595672 16.23004667 19 16 C19.99 15.67 20.98 15.34 22 15 C22 10.38 22 5.76 22 1 C14.74 1 7.48 1 0 1 C0 0.67 0 0.34 0 0 Z " fill="#F07744" transform="translate(28,51)"/>
<path d="M0 0 C7.92 0 15.84 0 24 0 C23.67 2.64 23.34 5.28 23 8 C15.41 8 7.82 8 0 8 C0 5.36 0 2.72 0 0 Z " fill="#FEFEFE" transform="translate(50,23)"/>
<path d="M0 0 C4.29 0 8.58 0 13 0 C13 2.97 13 5.94 13 9 C8.71 9 4.42 9 0 9 C0 6.03 0 3.06 0 0 Z " fill="#E44F26" transform="translate(37,32)"/>
</svg>
