<?xml version="1.0" encoding="UTF-8"?>
<svg version="1.1" xmlns="http://www.w3.org/2000/svg" width="1583" height="1583">
<path d="M0 0 C1.70546567 -0.0023913 3.4109303 -0.00565743 5.11639282 -0.0097166 C9.8098274 -0.0183406 14.50318205 -0.01450847 19.19661787 -0.00866088 C24.30018134 -0.00449338 29.40373015 -0.01189094 34.50729007 -0.01781338 C43.45434951 -0.02658346 52.40138607 -0.02788463 61.34844875 -0.02431011 C74.65306764 -0.01900867 87.95766433 -0.02509279 101.2622808 -0.03339304 C125.7138233 -0.04822765 150.16535538 -0.05048152 174.61690053 -0.04807267 C178.08124397 -0.04773422 181.54558741 -0.04741212 185.00993085 -0.04710698 C185.69803799 -0.04704594 186.38614513 -0.04698489 187.09510401 -0.046922 C202.34552046 -0.04565003 217.59593551 -0.04825163 232.84635154 -0.05163305 C236.32871787 -0.05240379 239.8110842 -0.05314852 243.29345053 -0.05389806 C244.69106934 -0.05419975 246.08868816 -0.05450164 247.48630697 -0.05480371 C248.52547016 -0.05502822 248.52547016 -0.05502822 249.58562655 -0.05525728 C250.98692012 -0.05556081 252.3882137 -0.05586549 253.78950728 -0.05617132 C293.55148735 -0.06484461 333.31346618 -0.06948807 373.07544708 -0.06522369 C373.81173458 -0.06514564 374.54802208 -0.06506758 375.30662132 -0.06498716 C383.51699783 -0.06411436 391.72737435 -0.0631851 399.93775085 -0.06223653 C401.04966364 -0.06210826 401.04966364 -0.06210826 402.18403931 -0.06197741 C408.34339464 -0.06126661 408.34339464 -0.06126661 411.17736703 -0.06093518 C458.59264906 -0.0553993 506.00791161 -0.06294172 553.42319012 -0.08170605 C565.37049289 -0.08642826 577.31779568 -0.09110878 589.26509857 -0.09554291 C590.00074187 -0.09581623 590.73638517 -0.09608955 591.49432069 -0.09637116 C614.16713451 -0.10474239 636.83994671 -0.10942211 659.51276207 -0.11025047 C660.22458549 -0.11027684 660.93640891 -0.11030321 661.66980274 -0.11033037 C677.29594227 -0.11087115 692.92208166 -0.1104987 708.54822114 -0.10929066 C714.13949651 -0.10886503 719.73077187 -0.10849991 725.32204724 -0.10816122 C726.71301069 -0.10807591 728.10397415 -0.10798698 729.49493761 -0.1078944 C751.65770363 -0.1064457 773.82045641 -0.1135714 795.98321926 -0.12489836 C818.92545313 -0.13654776 841.8676668 -0.13711195 864.80990247 -0.12505493 C878.03817718 -0.11841445 891.2663897 -0.12008477 904.49465947 -0.13364345 C913.32725521 -0.14186799 922.15980419 -0.13921641 930.99239611 -0.12766818 C936.02720471 -0.12139197 941.06189165 -0.11986191 946.09669337 -0.13153151 C950.67915407 -0.1420551 955.2613898 -0.13871361 959.8438384 -0.12442699 C961.48916833 -0.12170384 963.1345163 -0.12397686 964.77982925 -0.13193413 C977.13344511 -0.187591 988.36719624 1.13297349 999.49618816 6.87947559 C1000.51120403 7.39888721 1000.51120403 7.39888721 1001.54672527 7.928792 C1016.10371542 15.68904793 1024.84006922 28.39280106 1030.23389242 43.70327941 C1033.11180424 53.6722701 1032.78732849 63.61265923 1032.74871159 73.89127827 C1032.75184364 75.99760603 1032.75628936 78.10393218 1032.76192468 80.21025473 C1032.77360721 86.00273368 1032.76661676 91.79506263 1032.75659083 97.58753914 C1032.74898361 103.88767656 1032.75875934 110.1877909 1032.76632082 116.48792505 C1032.77716193 127.53123891 1032.77692479 138.57450785 1032.76917934 149.6178236 C1032.76092068 161.46509756 1032.75918849 173.31234573 1032.76539135 185.15962124 C1032.76577887 185.90837707 1032.76616639 186.6571329 1032.76656565 187.42857831 C1032.76816549 190.47822844 1032.76981162 193.52787855 1032.77151647 196.57752863 C1032.78737899 224.97243811 1032.78846301 253.36733032 1032.78007412 281.76224232 C1032.77982573 282.60338871 1032.77957735 283.44453511 1032.77932143 284.31117079 C1032.77907264 285.15366408 1032.77882386 285.99615737 1032.77856753 286.86418076 C1032.77099877 312.52859814 1032.76904344 338.19300838 1032.77263546 363.85742664 C1032.7728679 365.57586485 1032.77309937 367.29430305 1032.77332987 369.01274125 C1032.77426127 375.91838883 1032.77521727 382.82403641 1032.77620916 389.72968399 C1032.77896022 409.03396575 1032.780672 428.33824755 1032.78156757 447.64252949 C1032.78160851 448.52160918 1032.78164945 449.40068888 1032.78169163 450.30640736 C1032.7829195 478.31874314 1032.77953856 506.33107644 1032.77301884 534.34341145 C1032.77280809 535.25199949 1032.77259734 536.16058754 1032.77238021 537.09670855 C1032.76894534 551.85169761 1032.76528696 566.60668661 1032.76160969 581.3616756 C1032.74704062 639.8821015 1032.74771683 698.40250681 1032.76230145 756.92293262 C1032.765965 771.67046831 1032.76959815 786.418004 1032.77301884 801.16553974 C1032.77333585 802.52761904 1032.77333585 802.52761904 1032.77365927 803.9172151 C1032.78012757 831.90028429 1032.7828707 859.88335178 1032.78156757 887.8664217 C1032.78150644 889.18407361 1032.78150644 889.18407361 1032.78144408 890.52834474 C1032.78050665 909.81116018 1032.77860576 929.09397543 1032.77583607 948.37679069 C1032.77484863 955.27627388 1032.77390939 962.17575709 1032.77298393 969.0752403 C1032.77275177 970.79166045 1032.77251558 972.50808061 1032.77227534 974.22450076 C1032.76869416 999.88226366 1032.77174468 1025.54001851 1032.77932143 1051.1977804 C1032.77969401 1052.45949999 1032.77969401 1052.45949999 1032.78007412 1053.74670887 C1032.78032217 1054.58630436 1032.78057021 1055.42589985 1032.78082578 1056.29093763 C1032.78909893 1084.60372993 1032.78605969 1112.91650151 1032.77023189 1141.22929084 C1032.76857482 1144.26930386 1032.76696471 1147.30931689 1032.76539135 1150.34932995 C1032.76500073 1151.09540348 1032.76461011 1151.84147702 1032.76420765 1152.61015884 C1032.75828947 1164.4257562 1032.76241127 1176.24132778 1032.77069837 1188.05692281 C1032.77863243 1199.67383786 1032.77559884 1211.29070068 1032.7616561 1222.90761128 C1032.75450162 1229.12228874 1032.75211736 1235.33686846 1032.76287405 1241.55154294 C1032.77255905 1247.20455119 1032.76845627 1252.85737493 1032.75333207 1258.51036971 C1032.75030925 1260.54323169 1032.75231244 1262.57610891 1032.75994989 1264.60895879 C1032.80702243 1278.09459766 1032.0563503 1290.16034812 1025.74618816 1302.37947559 C1025.39918865 1303.05687794 1025.05218914 1303.73428028 1024.69467449 1304.43220997 C1016.72476729 1319.37155803 1003.59581997 1328.71733271 987.64016369 1333.61706151 C977.68173389 1336.41464277 967.85134407 1336.53814172 957.60001564 1336.50615788 C955.90355186 1336.50824662 954.20708898 1336.51121095 952.51062807 1336.51496661 C947.85152318 1336.52274486 943.19250132 1336.51809994 938.5333978 1336.5114107 C933.4636045 1336.50633434 928.39382387 1336.51285831 923.32403237 1336.51789737 C914.43942318 1336.52512118 905.55483831 1336.52490133 896.670228 1336.51980305 C883.45861368 1336.51224237 870.24701988 1336.51610334 857.03540569 1336.52221966 C834.80861548 1336.53214523 812.58183321 1336.53250855 790.35504246 1336.52706623 C789.67843447 1336.52690064 789.00182649 1336.52673505 788.30471523 1336.52656444 C787.62702297 1336.52639858 786.94933071 1336.52623272 786.25110231 1336.52606184 C765.60370671 1336.52101522 744.95631505 1336.51971281 724.30891895 1336.52210712 C722.9262022 1336.52226208 721.54348545 1336.5224164 720.1607687 1336.52257006 C714.60419468 1336.523191 709.04762067 1336.52382833 703.49104665 1336.52448959 C687.95828361 1336.52632359 672.42552055 1336.5274648 656.89275742 1336.52806187 C656.18543965 1336.52808916 655.47812188 1336.52811645 654.74937025 1336.52814457 C632.21194694 1336.52896309 609.674525 1336.52670948 587.13710213 1336.52236271 C586.4061435 1336.52222221 585.67518487 1336.52208171 584.92207598 1336.52193696 C573.05181832 1336.51964707 561.18156068 1336.51720814 549.31130305 1336.51475661 C502.23010535 1336.50504343 455.14891902 1336.50549524 408.06772137 1336.51521778 C396.2022578 1336.51766016 384.33679424 1336.52008226 372.47133064 1336.52236271 C371.74073172 1336.52250361 371.0101328 1336.5226445 370.25739451 1336.52278967 C347.74253809 1336.52710192 325.2276826 1336.52893061 302.71282578 1336.52806187 C302.00604106 1336.5280347 301.29925634 1336.52800753 300.5710539 1336.52797954 C285.05615505 1336.52735459 269.54125631 1336.52608732 254.02635756 1336.52424086 C248.47507014 1336.52358258 242.92378272 1336.52295642 237.37249529 1336.52233944 C235.99148024 1336.52218466 234.61046519 1336.5220272 233.22945014 1336.52186705 C212.58683732 1336.51947975 191.94422894 1336.52151296 171.30161667 1336.52656444 C170.2865805 1336.52681283 170.2865805 1336.52681283 169.25103855 1336.52706623 C168.57559614 1336.5272316 167.90015372 1336.52739696 167.20424335 1336.52756734 C144.42603659 1336.53308301 121.64783898 1336.53105237 98.86963325 1336.52050474 C85.73425583 1336.51462321 72.59890553 1336.51426175 59.4635288 1336.52179709 C50.69547923 1336.526273 41.92745145 1336.52350677 33.15940511 1336.51478755 C28.15987661 1336.51001875 23.1604021 1336.50842667 18.16087525 1336.51559952 C13.61281356 1336.52205826 9.06485378 1336.51931793 4.51679952 1336.5092382 C2.88166853 1336.50722373 1.2465291 1336.50855648 -0.3885952 1336.51365007 C-10.79128082 1336.54375629 -20.7668912 1336.47138689 -30.31631184 1331.87947559 C-31.6872298 1331.22205372 -31.6872298 1331.22205372 -33.08584309 1330.55135059 C-36.34401701 1328.88973194 -39.49200372 1327.13656046 -42.62881184 1325.25447559 C-43.45381184 1324.84197559 -44.27881184 1324.42947559 -45.12881184 1324.00447559 C-48.28293608 1321.79658862 -50.51797887 1319.13347967 -52.98037434 1316.19197559 C-54.56571994 1314.27442145 -54.56571994 1314.27442145 -56.18740559 1312.70369434 C-58.71965115 1310.15772387 -60.66309376 1307.24869632 -62.62881184 1304.25447559 C-62.99361652 1303.70275684 -63.35842121 1303.15103809 -63.73428059 1302.58260059 C-71.5870838 1288.98310996 -70.0440351 1271.02762494 -69.96938801 1255.94783497 C-69.96854025 1253.53171264 -69.96901978 1251.11558954 -69.97071552 1248.69946766 C-69.97148263 1242.85952423 -69.95857707 1237.01973059 -69.93940254 1231.17982125 C-69.91781674 1224.37532405 -69.91345495 1217.57084705 -69.91003803 1210.76632041 C-69.90349709 1198.63489935 -69.88360045 1186.50353935 -69.8551302 1174.37215137 C-69.82752823 1162.59839143 -69.80632483 1150.82464815 -69.79360676 1139.05086231 C-69.79281859 1138.32325197 -69.79203042 1137.59564163 -69.79121836 1136.84598249 C-69.78730281 1133.19521529 -69.78351179 1129.54444797 -69.77978265 1125.89368057 C-69.74876026 1095.68056857 -69.69576391 1065.46753061 -69.62881184 1035.25447559 C-70.20923963 1035.25811044 -70.78966742 1035.2617453 -71.38768393 1035.26549029 C-105.83412163 1035.48068736 -140.28061235 1035.67454501 -174.72732076 1035.84091918 C-178.868883 1035.86094086 -183.01044436 1035.88113976 -187.1520052 1035.90144825 C-187.97647083 1035.90548811 -188.80093647 1035.90952796 -189.65038591 1035.91369024 C-202.97754204 1035.97941494 -216.30457509 1036.05947639 -229.63161791 1036.14489219 C-243.31947157 1036.23229925 -257.00734411 1036.30416953 -270.69535583 1036.36179662 C-279.13287323 1036.39780321 -287.5701459 1036.44574181 -296.00750195 1036.5092369 C-301.80341405 1036.55168966 -307.59927758 1036.57896951 -313.39532334 1036.59465089 C-316.73304881 1036.60411895 -320.07011114 1036.62221363 -323.40774059 1036.65392208 C-349.1752403 1036.89121364 -349.1752403 1036.89121364 -361.62881184 1032.25447559 C-362.92962617 1031.77141516 -362.92962617 1031.77141516 -364.25671959 1031.27859592 C-369.66447375 1029.14662589 -374.42247468 1025.95156883 -379.24599934 1022.74275684 C-381.63162201 1021.12334221 -381.63162201 1021.12334221 -384.62881184 1020.25447559 C-385.61074925 1018.90007916 -386.5793301 1017.53322494 -387.46474934 1016.11385059 C-388.76898715 1014.0305714 -390.16843837 1012.02601568 -391.56631184 1010.00447559 C-399.62881184 997.90046796 -399.62881184 997.90046796 -399.62881184 992.25447559 C-400.28881184 992.25447559 -400.94881184 992.25447559 -401.62881184 992.25447559 C-401.71969074 991.33215137 -401.71969074 991.33215137 -401.81240559 990.39119434 C-401.93808918 989.17883106 -401.93808918 989.17883106 -402.06631184 987.94197559 C-402.14752277 987.14146778 -402.22873371 986.34095997 -402.31240559 985.51619434 C-402.58146876 983.0936038 -402.58146876 983.0936038 -403.62881184 980.25447559 C-403.71800679 978.79479243 -403.75142299 977.33133888 -403.75005031 975.86893374 C-403.75163286 974.96508056 -403.75321541 974.06122738 -403.75484592 973.12998471 C-403.7514721 972.13376698 -403.74809828 971.13754925 -403.74462223 970.11114311 C-403.74498649 969.05097806 -403.74535075 967.99081301 -403.74572605 966.89852175 C-403.7457053 963.31004628 -403.73845942 959.72162077 -403.73128986 956.13315296 C-403.7297449 953.5487417 -403.72863284 950.96433014 -403.72791886 948.37991852 C-403.7253266 941.99875062 -403.71730076 935.61759988 -403.70764047 929.23643922 C-403.69632261 921.5959636 -403.69078462 913.95548656 -403.68535383 906.31500488 C-403.67193356 887.84444249 -403.64828788 869.37389729 -403.62354779 850.90334724 C-403.61191917 842.16658018 -403.60157272 833.42981174 -403.5913865 824.6930429 C-403.5565017 794.79093344 -403.51951331 764.88882773 -403.47522831 734.98673058 C-403.47245239 733.10891668 -403.46967658 731.23110278 -403.4669009 729.35328889 C-403.46411657 727.47090755 -403.46133206 725.58852621 -403.45854735 723.70614487 C-403.45296106 719.92969327 -403.44737917 716.15324166 -403.44180012 712.37679005 C-403.44041467 711.4404466 -403.43902921 710.50410316 -403.43760178 709.53938567 C-403.39277023 679.18418186 -403.36017531 648.82898224 -403.33495523 618.47375621 C-403.30825206 586.38722553 -403.2707431 554.30072557 -403.22078061 522.21422237 C-403.21533546 518.69164405 -403.20993388 515.16906567 -403.20456409 511.64648724 C-403.20257302 510.34543235 -403.20257302 510.34543235 -403.20054173 509.01809352 C-403.17943083 495.05918537 -403.16812444 481.10028574 -403.1603118 467.14136454 C-403.1522062 453.10865794 -403.13303419 439.076 -403.10265937 425.04332364 C-403.08493463 416.70744989 -403.07546688 408.37166308 -403.07790575 400.03577032 C-403.07880602 393.80928499 -403.06410519 387.58292772 -403.0433636 381.35647892 C-403.03739718 378.83888207 -403.03646868 376.32126717 -403.04109499 373.80366749 C-403.04664332 370.37904285 -403.03375459 366.95495252 -403.016366 363.53037834 C-403.02535228 362.0676575 -403.02535228 362.0676575 -403.03452009 360.57538673 C-402.87665833 343.2308626 -395.73220883 328.49791968 -383.65615559 316.25447559 C-379.08539343 312.03810653 -374.19318638 308.99385999 -368.62881184 306.25447559 C-367.88502277 305.88322559 -367.14123371 305.51197559 -366.37490559 305.12947559 C-357.3308136 300.85122686 -348.81442061 299.95972583 -338.87867451 300.01396656 C-337.72350647 300.01225771 -336.56833843 300.01054886 -335.3781653 300.00878823 C-332.19459562 300.00607663 -329.01119129 300.01227715 -325.82764113 300.02234435 C-322.38604962 300.03101964 -318.94446516 300.02805582 -315.50286579 300.0265398 C-309.54762118 300.02549352 -303.59242055 300.0317432 -297.637187 300.04301548 C-289.02703425 300.05930243 -280.41690267 300.06448175 -271.80673618 300.06699146 C-257.83571355 300.07136356 -243.86471434 300.08465947 -229.89370441 300.10359669 C-216.32599727 300.12196806 -202.75829649 300.13611841 -189.19057941 300.14461231 C-187.93510755 300.14540048 -187.93510755 300.14540048 -186.65427261 300.14620458 C-182.45518434 300.14881474 -178.25609602 300.15134214 -174.05700767 300.15382838 C-139.24759237 300.17454576 -104.43820427 300.20975805 -69.62881184 300.25447559 C-69.63249901 299.00655987 -69.63618618 297.75864414 -69.63998508 296.47291279 C-69.72677296 266.79425107 -69.79265196 237.11562231 -69.83307315 207.43686464 C-69.83807548 203.7772725 -69.84325282 200.11768062 -69.8485384 196.45808887 C-69.84958764 195.72958522 -69.85063688 195.00108157 -69.85171792 194.25050205 C-69.86908357 182.48249134 -69.90059987 170.71455945 -69.93742302 158.94659537 C-69.97493973 146.85539034 -69.99707026 134.76422636 -70.00516582 122.67296553 C-70.01014324 115.88828856 -70.02203027 109.10377539 -70.05173206 102.3191576 C-70.07903109 95.92355653 -70.08722759 89.52820596 -70.08124256 83.13255215 C-70.08233633 80.79460059 -70.09020315 78.45664002 -70.10563374 76.11873913 C-70.24038901 54.63464974 -67.8170636 35.81155776 -53.23818684 18.85994434 C-38.21712774 3.86137186 -20.45782565 -0.059453 0 0 Z " fill="#117B41" transform="translate(459.6288118362427,136.7455244064331)"/>
<path d="M0 0 C0.33 0 0.66 0 1 0 C1.01649474 37.54264297 1.0323105 75.08528621 1.04760742 112.62792969 C1.04790681 113.36257371 1.04820621 114.09721773 1.04851467 114.85412369 C1.08057531 193.56910914 1.10824495 272.28409467 1.12702942 350.99908447 C1.12744777 352.74747917 1.12786613 354.49587388 1.12828448 356.24426858 C1.13705247 392.94322057 1.14520262 429.64217268 1.15263903 466.34112497 C1.15637523 484.77611792 1.16023015 503.21111085 1.16419732 521.64610376 C1.16479507 524.42695958 1.16538943 527.20781541 1.16598364 529.98867123 C1.17516401 572.81188706 1.18689122 615.63510033 1.20599365 658.45831299 C1.20640435 659.37910847 1.20681505 660.29990395 1.20723819 661.24860232 C1.21387533 676.09463017 1.22072615 690.94065792 1.22760532 705.78668566 C1.24741528 748.54582505 1.26564627 791.30496247 1.27341938 834.06410599 C1.27357999 834.94334602 1.27374059 835.82258606 1.27390606 836.72846974 C1.27740329 856.02955817 1.28008788 875.33064663 1.28200295 894.63173528 C1.28278782 902.39775243 1.28368968 910.16376956 1.28463173 917.92978668 C1.28473201 918.77974532 1.28483229 919.62970395 1.28493561 920.5054189 C1.28822532 947.8947188 1.30103978 975.28400409 1.31884663 1002.67329809 C1.33673948 1030.26190866 1.34529813 1057.85050506 1.34087196 1085.43912158 C1.34026272 1089.25119231 1.33976057 1093.06326304 1.33932304 1096.87533379 C1.3392334 1097.62261124 1.33914376 1098.36988869 1.3390514 1099.13981091 C1.33790924 1110.97472825 1.34686469 1122.80961559 1.36002959 1134.64452475 C1.37276612 1146.28077934 1.3745687 1157.91698646 1.36549544 1169.55324569 C1.36095423 1175.7785081 1.36120927 1182.00367021 1.37464955 1188.22892198 C1.38678277 1193.89167452 1.385116 1199.55424843 1.37241993 1205.2169982 C1.37027637 1207.25341977 1.37316873 1209.28985444 1.38170573 1211.32625925 C1.43470425 1224.82374598 0.69091595 1236.89473072 -5.625 1249.125 C-5.97199951 1249.80240234 -6.31899902 1250.47980469 -6.67651367 1251.17773438 C-14.64642088 1266.11708243 -27.77536819 1275.46285711 -43.73102448 1280.36258592 C-53.68945427 1283.16016717 -63.51984409 1283.28366612 -73.77117252 1283.25168228 C-75.4676363 1283.25377102 -77.16409918 1283.25673535 -78.86056009 1283.26049101 C-83.51966499 1283.26826927 -88.17868684 1283.26362435 -92.83779037 1283.25693511 C-97.90758366 1283.25185875 -102.9773643 1283.25838272 -108.0471558 1283.26342177 C-116.93176498 1283.27064559 -125.81634986 1283.27042573 -134.70096016 1283.26532745 C-147.91257449 1283.25776677 -161.12416828 1283.26162774 -174.33578247 1283.26774407 C-196.56257269 1283.27766964 -218.78935495 1283.27803296 -241.01614571 1283.27259064 C-241.69275369 1283.27242505 -242.36936167 1283.27225946 -243.06647293 1283.27208885 C-243.74416519 1283.27192299 -244.42185746 1283.27175713 -245.12008585 1283.27158624 C-265.76748146 1283.26653963 -286.41487312 1283.26523721 -307.06226921 1283.26763153 C-308.44498596 1283.26778649 -309.82770271 1283.2679408 -311.21041946 1283.26809447 C-316.76699348 1283.26871541 -322.3235675 1283.26935274 -327.88014151 1283.270014 C-343.41290456 1283.27184799 -358.94566761 1283.27298921 -374.47843075 1283.27358627 C-375.18574851 1283.27361356 -375.89306628 1283.27364086 -376.62181792 1283.27366897 C-399.15924122 1283.2744875 -421.69666316 1283.27223389 -444.23408604 1283.26788712 C-444.96504467 1283.26774662 -445.69600329 1283.26760612 -446.44911219 1283.26746136 C-458.31936985 1283.26517147 -470.18962748 1283.26273255 -482.05988511 1283.26028102 C-529.14108281 1283.25056784 -576.22226914 1283.25101965 -623.3034668 1283.26074219 C-635.16893036 1283.26318457 -647.03439393 1283.26560667 -658.89985752 1283.26788712 C-659.63045644 1283.26802801 -660.36105537 1283.26816891 -661.11379365 1283.26831407 C-683.62865008 1283.27262633 -706.14350556 1283.27445502 -728.65836239 1283.27358627 C-729.36514711 1283.2735591 -730.07193182 1283.27353194 -730.80013426 1283.27350394 C-746.31503311 1283.27287899 -761.82993186 1283.27161173 -777.34483061 1283.26976527 C-782.89611803 1283.26910698 -788.44740545 1283.26848082 -793.99869287 1283.26786385 C-795.37970792 1283.26770907 -796.76072297 1283.26755161 -798.14173802 1283.26739145 C-818.78435085 1283.26500415 -839.42695922 1283.26703737 -860.06957149 1283.27208885 C-861.08460766 1283.27233723 -861.08460766 1283.27233723 -862.12014961 1283.27259064 C-862.79559203 1283.272756 -863.47103444 1283.27292137 -864.16694481 1283.27309174 C-886.94515157 1283.27860742 -909.72334919 1283.27657678 -932.50155491 1283.26602915 C-945.63693233 1283.26014761 -958.77228263 1283.25978615 -971.90765936 1283.2673215 C-980.67570894 1283.27179741 -989.44373671 1283.26903118 -998.21178305 1283.26031196 C-1003.21131155 1283.25554315 -1008.21078606 1283.25395108 -1013.21031291 1283.26112393 C-1017.7583746 1283.26758267 -1022.30633438 1283.26484234 -1026.85438864 1283.2547626 C-1028.48951964 1283.25274814 -1030.12465906 1283.25408089 -1031.75978336 1283.25917448 C-1042.16246898 1283.28928069 -1052.13807937 1283.2169113 -1061.6875 1278.625 C-1063.05841797 1277.96757812 -1063.05841797 1277.96757812 -1064.45703125 1277.296875 C-1067.71520517 1275.63525635 -1070.86319188 1273.88208487 -1074 1272 C-1074.825 1271.5875 -1075.65 1271.175 -1076.5 1270.75 C-1079.65412424 1268.54211303 -1081.88916704 1265.87900408 -1084.3515625 1262.9375 C-1085.9369081 1261.01994585 -1085.9369081 1261.01994585 -1087.55859375 1259.44921875 C-1090.09083931 1256.90324828 -1092.03428192 1253.99422073 -1094 1251 C-1094.36480469 1250.44828125 -1094.72960938 1249.8965625 -1095.10546875 1249.328125 C-1102.95839147 1235.72842741 -1101.41503686 1217.77350424 -1101.34057617 1202.69335938 C-1101.33965554 1200.23839584 -1101.34006041 1197.78343151 -1101.34167194 1195.32846832 C-1101.34234493 1188.79675021 -1101.3250482 1182.26519939 -1101.30384064 1175.73352051 C-1101.28666476 1169.58829259 -1101.28594635 1163.44310388 -1101.28381348 1157.29785156 C-1101.26811634 1139.36521251 -1101.22623256 1121.4326041 -1101.1875 1103.5 C-1101.125625 1063.405 -1101.06375 1023.31 -1101 982 C-1191.09 982 -1281.18 982 -1374 982 C-1374 981.67 -1374 981.34 -1374 981 C-1336.68264321 980.82635278 -1299.36522942 980.66762553 -1262.04776859 980.51822662 C-1259.02600363 980.50612739 -1256.00423888 980.49397512 -1252.98247433 980.48177338 C-1171.75654698 980.1539119 -1090.53150782 979.95614852 -1009.30487287 979.96831679 C-1006.38965917 979.96874898 -1003.47444547 979.96912904 -1000.55923176 979.96949959 C-962.47237799 979.97454585 -924.38553463 979.98992576 -886.29869473 980.02321291 C-871.94809594 980.03569901 -857.59749699 980.04516196 -843.24689472 980.05261564 C-834.09923745 980.05756568 -824.95159538 980.06585499 -815.80394574 980.07870594 C-809.6586395 980.08711257 -803.51333709 980.09197707 -797.36802547 980.09403834 C-793.86027073 980.09534348 -790.35253794 980.09827079 -786.84479046 980.10573864 C-783.05273309 980.11298161 -779.2607216 980.1139957 -775.46865845 980.11352539 C-773.8458503 980.11891807 -773.8458503 980.11891807 -772.19025815 980.12441969 C-750.94356158 980.09597678 -733.35759943 976.55093815 -717.390625 961.61328125 C-705.61617905 948.74219573 -700.66817403 932.30069446 -700.74552441 915.20205402 C-700.74231793 914.14400697 -700.73911145 913.08595992 -700.73580781 911.99585083 C-700.72750682 908.45065446 -700.73343257 904.90562699 -700.73930359 901.36042786 C-700.73628295 898.7928863 -700.73239391 896.22534564 -700.72771102 893.65780658 C-700.7189582 888.07542207 -700.71763364 882.49307425 -700.72121429 876.91068459 C-700.72652496 868.60917312 -700.72042228 860.30769713 -700.71213136 852.00618953 C-700.69689185 836.31587563 -700.69518629 820.62557787 -700.69765439 804.93525813 C-700.69948731 792.81745472 -700.69772745 780.69965661 -700.69342995 768.58185387 C-700.69282754 766.84065334 -700.69222635 765.09945281 -700.69162634 763.35825228 C-700.69071908 760.73438277 -700.68981042 758.11051327 -700.68889399 755.48664376 C-700.68046432 731.09071164 -700.67612882 706.69478152 -700.68030071 682.29884815 C-700.68045709 681.37917341 -700.68061346 680.45949867 -700.68077458 679.511955 C-700.68158036 674.85073371 -700.68242613 670.18951243 -700.68328788 665.52829114 C-700.68345897 664.60256755 -700.68363006 663.67684396 -700.68380633 662.72306814 C-700.68415298 660.85102946 -700.68450151 658.97899079 -700.68485192 657.10695211 C-700.69020815 627.98331742 -700.68228154 598.85971302 -700.66381836 569.73608398 C-700.64309583 537.01029771 -700.63237621 504.28453019 -700.63639385 471.55873698 C-700.63678919 468.06823298 -700.63715073 464.57772897 -700.63749123 461.08722496 C-700.63758196 460.22778464 -700.63767269 459.36834431 -700.63776617 458.48286034 C-700.63893152 445.51596346 -700.63228853 432.54908553 -700.62167931 419.58219337 C-700.60962274 404.83132208 -700.60807354 390.0804925 -700.62046947 375.32962058 C-700.62709322 367.07855118 -700.62547824 358.82758158 -700.61188096 350.57652018 C-700.60265185 344.40988705 -700.60916576 338.24336358 -700.62172876 332.07673844 C-700.62438121 329.58619619 -700.62199198 327.09564227 -700.61399289 324.60511146 C-700.31531608 305.093508 -700.31531608 305.093508 -705.1001007 286.32919723 C-706 284 -706 284 -706 281 C-649.24 281 -592.48 281 -534 281 C-534 391.22 -534 501.44 -534 615 C-357.78 615 -181.56 615 0 615 C0 412.05 0 209.1 0 0 Z " fill="#175B36" transform="translate(1491,190)"/>
<path d="M0 0 C1.70546567 -0.0023913 3.4109303 -0.00565743 5.11639282 -0.0097166 C9.8098274 -0.0183406 14.50318205 -0.01450847 19.19661787 -0.00866088 C24.30018134 -0.00449338 29.40373015 -0.01189094 34.50729007 -0.01781338 C43.45434951 -0.02658346 52.40138607 -0.02788463 61.34844875 -0.02431011 C74.65306764 -0.01900867 87.95766433 -0.02509279 101.2622808 -0.03339304 C125.7138233 -0.04822765 150.16535538 -0.05048152 174.61690053 -0.04807267 C178.08124397 -0.04773422 181.54558741 -0.04741212 185.00993085 -0.04710698 C185.69803799 -0.04704594 186.38614513 -0.04698489 187.09510401 -0.046922 C202.34552046 -0.04565003 217.59593551 -0.04825163 232.84635154 -0.05163305 C236.32871787 -0.05240379 239.8110842 -0.05314852 243.29345053 -0.05389806 C244.69106934 -0.05419975 246.08868816 -0.05450164 247.48630697 -0.05480371 C248.52547016 -0.05502822 248.52547016 -0.05502822 249.58562655 -0.05525728 C250.98692012 -0.05556081 252.3882137 -0.05586549 253.78950728 -0.05617132 C293.55148735 -0.06484461 333.31346618 -0.06948807 373.07544708 -0.06522369 C373.81173458 -0.06514564 374.54802208 -0.06506758 375.30662132 -0.06498716 C383.51699783 -0.06411436 391.72737435 -0.0631851 399.93775085 -0.06223653 C401.04966364 -0.06210826 401.04966364 -0.06210826 402.18403931 -0.06197741 C408.34339464 -0.06126661 408.34339464 -0.06126661 411.17736703 -0.06093518 C458.59264906 -0.0553993 506.00791161 -0.06294172 553.42319012 -0.08170605 C565.37049289 -0.08642826 577.31779568 -0.09110878 589.26509857 -0.09554291 C590.00074187 -0.09581623 590.73638517 -0.09608955 591.49432069 -0.09637116 C614.16713451 -0.10474239 636.83994671 -0.10942211 659.51276207 -0.11025047 C660.22458549 -0.11027684 660.93640891 -0.11030321 661.66980274 -0.11033037 C677.29594227 -0.11087115 692.92208166 -0.1104987 708.54822114 -0.10929066 C714.13949651 -0.10886503 719.73077187 -0.10849991 725.32204724 -0.10816122 C726.71301069 -0.10807591 728.10397415 -0.10798698 729.49493761 -0.1078944 C751.65770363 -0.1064457 773.82045641 -0.1135714 795.98321926 -0.12489836 C818.92545313 -0.13654776 841.8676668 -0.13711195 864.80990247 -0.12505493 C878.03817718 -0.11841445 891.2663897 -0.12008477 904.49465947 -0.13364345 C913.32725521 -0.14186799 922.15980419 -0.13921641 930.99239611 -0.12766818 C936.02720471 -0.12139197 941.06189165 -0.11986191 946.09669337 -0.13153151 C950.67915407 -0.1420551 955.2613898 -0.13871361 959.8438384 -0.12442699 C961.48916833 -0.12170384 963.1345163 -0.12397686 964.77982925 -0.13193413 C977.13344511 -0.187591 988.36719624 1.13297349 999.49618816 6.87947559 C1000.51120403 7.39888721 1000.51120403 7.39888721 1001.54672527 7.928792 C1015.33893473 15.28134731 1023.71332558 26.92969992 1029.37118816 41.25447559 C1029.89084143 42.49828532 1029.89084143 42.49828532 1030.42099273 43.76722252 C1031.69987663 48.46077468 1031.64323451 52.8480839 1031.61728382 57.69114971 C1031.61959151 58.74655284 1031.6218992 59.80195596 1031.62427682 60.889341 C1031.62959155 64.44347825 1031.62058033 67.99743612 1031.6116972 71.55156422 C1031.61256896 74.11824401 1031.6143194 76.68492363 1031.61687553 79.25160229 C1031.62102241 84.84103047 1031.61773648 90.43041606 1031.60959911 96.01983929 C1031.59753274 104.33110919 1031.59692716 112.64235224 1031.59868309 120.95362931 C1031.60131152 134.93426901 1031.59462569 148.91488982 1031.58264828 162.89552402 C1031.57081795 176.73993873 1031.56311713 190.58434557 1031.56094265 204.4287653 C1031.56080517 205.28927421 1031.56066769 206.14978312 1031.56052605 207.03636806 C1031.55984939 211.40638219 1031.55924662 215.77639633 1031.55867229 220.14641048 C1031.55447045 251.10659119 1031.54099287 282.06676162 1031.52206707 313.02693653 C1031.50370107 343.10603755 1031.48956625 373.18513573 1031.48105145 403.26424122 C1031.48051016 405.15541434 1031.47996875 407.04658747 1031.47942722 408.93776059 C1031.47504973 424.30410782 1031.47096456 439.67045512 1031.46695025 455.03680244 C1031.44817247 526.1093699 1031.40803242 597.18191053 1031.37118816 668.25447559 C855.15118816 668.25447559 678.93118816 668.25447559 497.37118816 668.25447559 C497.37118816 558.03447559 497.37118816 447.81447559 497.37118816 334.25447559 C451.17118816 334.25447559 404.97118816 334.25447559 357.37118816 334.25447559 C351.37118816 325.25447559 351.37118816 325.25447559 350.37118816 322.25447559 C349.71118816 322.25447559 349.05118816 322.25447559 348.37118816 322.25447559 C348.37118816 321.59447559 348.37118816 320.93447559 348.37118816 320.25447559 C347.53394207 319.881292 347.53394207 319.881292 346.67978191 319.50056934 C343.97797345 318.0422328 341.79852099 316.27370168 339.43368816 314.31697559 C333.94086044 309.77499286 329.287619 307.02255041 322.37118816 305.12947559 C321.17493816 304.79689747 319.97868816 304.46431934 318.74618816 304.12166309 C313.64566813 302.81111281 309.1202099 302.12802801 303.83696556 302.11581039 C303.19130271 302.11296818 302.54563986 302.11012596 301.88041148 302.10719761 C299.71413135 302.09886723 297.54790482 302.09758371 295.38160992 302.09625721 C293.81399402 302.09169073 292.24637933 302.08669058 290.67876607 302.08129364 C286.368869 302.06771292 282.05897982 302.06029436 277.74906695 302.05386698 C273.10220358 302.04586277 268.45535662 302.03216505 263.80850506 302.01915455 C255.75676964 301.99739213 247.70503256 301.97924677 239.65328312 301.96354961 C228.01176685 301.94084887 216.37026876 301.91270631 204.72876791 301.88323034 C185.84176042 301.83555695 166.9547455 301.79229207 148.06772137 301.75179005 C129.71940819 301.71243384 111.37110162 301.67100731 93.02279949 301.62679005 C91.32666293 301.62270364 91.32666293 301.62270364 89.59626099 301.61853468 C83.92365107 301.60485518 78.25104126 301.59113491 72.57843149 301.57739437 C25.50936415 301.46343356 -21.55971748 301.35662332 -68.62881184 301.25447559 C-68.72029585 270.38338307 -68.79097056 239.51232189 -68.83307315 208.64112596 C-68.83807527 204.9866889 -68.84325263 201.3322521 -68.8485384 197.67781544 C-68.85011226 196.58663382 -68.85011226 196.58663382 -68.85171792 195.47340813 C-68.86906701 183.73396555 -68.90057396 171.99460228 -68.93742302 160.25520656 C-68.97498621 148.18658249 -68.99707997 136.11799962 -69.00516582 124.04931951 C-69.01013549 117.28016425 -69.02196792 110.51117352 -69.05173206 103.74207783 C-69.07910594 97.35631352 -69.0872128 90.97080028 -69.08124256 84.58498287 C-69.08233304 82.25516166 -69.09015465 79.92533107 -69.10563374 77.59556103 C-69.22277208 59.03728541 -69.12807839 39.72577025 -57.62881184 24.25447559 C-57.11705402 23.53388966 -56.60529621 22.81330372 -56.07803059 22.07088184 C-42.27090542 4.49506246 -21.10658649 -0.06133838 0 0 Z " fill="#20A265" transform="translate(459.6288118362427,136.7455244064331)"/>
<path d="M0 0 C176.22 0 352.44 0 534 0 C534 109.89 534 219.78 534 333 C357.78 333 181.56 333 0 333 C0 223.11 0 113.22 0 0 Z " fill="#107B40" transform="translate(957,805)"/>
<path d="M0 0 C121.68864265 -0.20165675 121.68864265 -0.20165675 172.47851562 -0.24414062 C183.36407495 -0.2532927 194.24963403 -0.26267808 205.13519266 -0.27262997 C206.61166422 -0.27397918 208.08813578 -0.27532104 209.56460736 -0.27665544 C233.09115469 -0.2979793 256.61764183 -0.3354904 280.1441528 -0.3814861 C304.32929321 -0.42868345 328.51440034 -0.45943519 352.69958602 -0.46957495 C356.11771027 -0.47101567 359.5358344 -0.47264385 362.95395851 -0.47438622 C363.96303519 -0.47489189 363.96303519 -0.47489189 364.99249725 -0.47540778 C375.80951649 -0.4813101 386.62643268 -0.5044834 397.44340994 -0.53416017 C408.32535299 -0.56364498 419.20718934 -0.57442379 430.08917042 -0.56750689 C435.98239982 -0.56430486 441.87532746 -0.56920879 447.76850319 -0.59602737 C453.16826076 -0.6204207 458.56751462 -0.62154778 463.96729574 -0.60449447 C465.9163803 -0.60238788 467.86549673 -0.60867857 469.81451889 -0.62441591 C488.34418095 -0.76528256 503.00747575 3.89396336 516.90234375 16.80859375 C523.35546052 23.55011798 527.59069642 31.36820517 531 40 C531.5198261 41.20728854 531.5198261 41.20728854 532.05015373 42.43896675 C533.40450807 47.51652612 533.2682501 52.38398633 533.24050903 57.61715698 C533.24222107 58.79142746 533.24393311 59.96569794 533.24569702 61.17555237 C533.24842844 64.43295479 533.24216705 67.69019779 533.23214546 70.94758138 C533.22340466 74.51493527 533.22633518 78.08228319 533.2277813 81.64964485 C533.22884414 88.57277878 533.21961412 95.49586079 533.20677864 102.41898138 C533.19237489 110.42784492 533.19078893 118.43667729 533.18920898 126.44555664 C533.17870962 147.58871265 533.15078738 168.73185711 533.125 189.875 C533.08375 237.10625 533.0425 284.3375 533 333 C357.11 333 181.22 333 0 333 C0 223.11 0 113.22 0 0 Z " fill="#32C380" transform="translate(958,138)"/>
<path d="M0 0 C10.56 0 21.12 0 32 0 C37.90678049 11.81356097 39.3037522 19.80854204 39.25447559 32.56640434 C39.25928531 34.42202333 39.25928531 34.42202333 39.26419219 36.31512958 C39.27104616 39.73815943 39.26900025 43.16097091 39.26313647 46.58398839 C39.258955 50.312097 39.26637443 54.04018591 39.27228898 57.76828969 C39.28104403 64.29882066 39.28236556 70.82932027 39.27878571 77.35985565 C39.27347632 87.07112187 39.27957637 96.78235775 39.28786864 106.49362066 C39.30310946 124.84703958 39.30481364 143.20044471 39.30234561 161.55386864 C39.30051303 175.72591783 39.30227181 189.89796251 39.30657005 204.07001114 C39.30717245 206.10601458 39.30777365 208.14201802 39.30837366 210.17802147 C39.30928091 213.24606922 39.31018957 216.31411696 39.31110601 219.38216471 C39.31953564 247.9073792 39.32387114 276.43259198 39.31969929 304.95780754 C39.31954291 306.03316703 39.31938654 307.10852652 39.31922542 308.21647266 C39.31841964 313.66683672 39.31757386 319.11720078 39.31671212 324.56756483 C39.31654103 325.65002714 39.31636994 326.73248945 39.31619367 327.84775365 C39.31584702 330.03675493 39.31549849 332.22575621 39.31514808 334.41475748 C39.30979028 368.47947747 39.31772296 402.54417157 39.33618164 436.60888672 C39.35689525 474.8798112 39.36762562 513.15071965 39.36360615 551.42165005 C39.36321081 555.50188581 39.36284926 559.58212157 39.36250877 563.66235733 C39.36241804 564.6670168 39.36232731 565.67167627 39.36223383 566.70677997 C39.36106765 581.87594676 39.36771772 597.04509736 39.37832069 612.2142601 C39.39036594 629.46442627 39.39193939 646.71455676 39.37953053 663.96472345 C39.37289721 673.61815958 39.3745439 683.27151045 39.38811904 692.92493978 C39.39635759 699.37461376 39.39367372 705.82422382 39.38214377 712.2738926 C39.3758815 715.94767944 39.37430158 719.62129979 39.38600711 723.29507707 C39.3985158 727.25743941 39.38770612 731.21954833 39.37473011 735.18191338 C39.38203946 736.31549422 39.3893488 737.44907506 39.39687964 738.61700684 C39.32672173 748.94517534 37.40219259 758.63230365 32.3125 767.6875 C31.78813354 768.63701538 31.78813354 768.63701538 31.25317383 769.60571289 C22.80263936 784.42493081 9.00176399 794.10689498 -7.35345078 798.61179829 C-14.84898341 800.42082966 -22.25106755 800.425724 -29.9072876 800.39872742 C-31.48919806 800.40417625 -33.07110447 800.41093168 -34.65300441 800.41886932 C-38.96993995 800.43679697 -43.28670261 800.43634963 -47.60366654 800.43273985 C-52.27019383 800.4321136 -56.93666431 800.44875852 -61.60316467 800.46325684 C-69.67824988 800.48600435 -77.75329206 800.4979213 -85.82840729 800.50238609 C-97.50351489 800.50885715 -109.17854485 800.53181136 -120.8536211 800.55872939 C-139.79774818 800.60196195 -158.74187198 800.63194886 -177.68603516 800.65356445 C-196.08351247 800.67458472 -214.48096299 800.70186898 -232.87841797 800.73754883 C-234.0133106 800.73974765 -235.14820324 800.74194648 -236.31748655 800.74421193 C-242.01117029 800.75528185 -247.70485378 800.76647461 -253.39853716 800.77772844 C-300.59900858 800.87086356 -347.79947249 800.94003695 -395 801 C-395 768 -395 735 -395 701 C-485.09 701 -575.18 701 -668 701 C-668 700.67 -668 700.34 -668 700 C-630.68264321 699.82635278 -593.36522942 699.66762553 -556.04776859 699.51822662 C-553.02600363 699.50612739 -550.00423888 699.49397512 -546.98247433 699.48177338 C-465.75654698 699.1539119 -384.53150782 698.95614852 -303.30487287 698.96831679 C-300.38965917 698.96874898 -297.47444547 698.96912904 -294.55923176 698.96949959 C-256.47237799 698.97454585 -218.38553463 698.98992576 -180.29869473 699.02321291 C-165.94809594 699.03569901 -151.59749699 699.04516196 -137.24689472 699.05261564 C-128.09923745 699.05756568 -118.95159538 699.06585499 -109.80394574 699.07870594 C-103.6586395 699.08711257 -97.51333709 699.09197707 -91.36802547 699.09403834 C-87.86027073 699.09534348 -84.35253794 699.09827079 -80.84479046 699.10573864 C-77.05273309 699.11298161 -73.2607216 699.1139957 -69.46865845 699.11352539 C-67.8458503 699.11891807 -67.8458503 699.11891807 -66.19025815 699.12441969 C-44.94356158 699.09597678 -27.35759943 695.55093815 -11.390625 680.61328125 C0.38382095 667.74219573 5.33182597 651.30069446 5.25447559 634.20205402 C5.25768207 633.14400697 5.26088855 632.08595992 5.26419219 630.99585083 C5.27249318 627.45065446 5.26656743 623.90562699 5.26069641 620.36042786 C5.26371705 617.7928863 5.26760609 615.22534564 5.27228898 612.65780658 C5.2810418 607.07542207 5.28236636 601.49307425 5.27878571 595.91068459 C5.27347504 587.60917312 5.27957772 579.30769713 5.28786864 571.00618953 C5.30310815 555.31587563 5.30481371 539.62557787 5.30234561 523.93525813 C5.30051269 511.81745472 5.30227255 499.69965661 5.30657005 487.58185387 C5.30717246 485.84065334 5.30777365 484.09945281 5.30837366 482.35825228 C5.30928092 479.73438277 5.31018958 477.11051327 5.31110601 474.48664376 C5.31953568 450.09071164 5.32387118 425.69478152 5.31969929 401.29884815 C5.31954291 400.37917341 5.31938654 399.45949867 5.31922542 398.511955 C5.31841964 393.85073371 5.31757387 389.18951243 5.31671212 384.52829114 C5.31654103 383.60256755 5.31636994 382.67684396 5.31619367 381.72306814 C5.31584702 379.85102946 5.31549849 377.97899079 5.31514808 376.10695211 C5.30979185 346.98331742 5.31771846 317.85971302 5.33618164 288.73608398 C5.35690417 256.01029771 5.36762379 223.28453019 5.36360615 190.55873698 C5.36321081 187.06823298 5.36284927 183.57772897 5.36250877 180.08722496 C5.36241804 179.22778464 5.36232731 178.36834431 5.36223383 177.48286034 C5.36106848 164.51596346 5.36771147 151.54908553 5.37832069 138.58219337 C5.39037726 123.83132208 5.39192646 109.0804925 5.37953053 94.32962058 C5.37290678 86.07855118 5.37452176 77.82758158 5.38811904 69.57652018 C5.39734815 63.40988705 5.39083424 57.24336358 5.37827124 51.07673844 C5.37561879 48.58619619 5.37800802 46.09564227 5.38600711 43.60511146 C5.68468392 24.093508 5.68468392 24.093508 0.8998993 5.32919723 C0 3 0 3 0 0 Z " fill="#0F3B23" transform="translate(785,471)"/>
<path d="M0 0 C12.15204229 -0.23176678 24.30355848 -0.40941485 36.45736122 -0.51812172 C42.10111201 -0.57029883 47.74335031 -0.64105498 53.38623047 -0.75439453 C58.83284713 -0.86310656 64.27801005 -0.92285227 69.7256279 -0.94877243 C71.80305247 -0.96724107 73.88039794 -1.00330938 75.95720291 -1.05730057 C92.11436705 -1.46061002 92.11436705 -1.46061002 96.4296875 1.8820343 C98.07810079 4.53424707 99.02506453 7.037251 100 10 C100.94451776 11.88192409 101.91520231 13.75090161 102.90917969 15.60717773 C103.9174262 17.63065426 104.9214843 19.65622187 105.921875 21.68359375 C106.73921112 23.32606834 106.73921112 23.32606834 107.57305908 25.00172424 C109.30257316 28.47841091 111.02669545 31.95773182 112.75 35.4375 C121.61985681 53.39402257 121.61985681 53.39402257 130.83203125 71.17578125 C137.39507159 83.51258227 143.59360354 96.03619055 149.83422852 108.53808594 C151.60204954 112.07949373 153.37353382 115.61905496 155.14603329 119.15812302 C156.52785852 121.91815246 157.90776997 124.67913528 159.28711128 127.4404068 C159.93994197 128.74672959 160.59335445 130.05276181 161.24738884 131.35848236 C170 148.83909129 170 148.83909129 170 153 C170.66 153 171.32 153 172 153 C172.38414062 151.74445313 172.76828125 150.48890625 173.1640625 149.1953125 C175.06971269 143.49615096 177.66155676 138.22714809 180.375 132.875 C180.90319336 131.82586426 181.43138672 130.77672852 181.97558594 129.69580078 C186.04826653 121.68843555 190.38798441 113.85901927 194.86083984 106.06982422 C199.40633509 98.13096722 203.72282058 90.08512972 208 82 C213.34314134 71.90455004 218.82213698 61.90746358 224.48828125 51.98828125 C228.1973094 45.47667073 231.72362301 38.88978339 235.1730957 32.23779297 C240.14924844 22.6992373 245.51291183 13.37563654 250.85180664 4.03686523 C251.60032099 2.70902019 252.31831882 1.36336237 253 0 C281.71 0 310.42 0 340 0 C338.60788766 3.48028085 337.45887595 6.0873538 335.5234375 9.16796875 C335.02593994 9.96509277 334.52844238 10.7622168 334.01586914 11.58349609 C333.47438232 12.44281738 332.93289551 13.30213867 332.375 14.1875 C331.19358681 16.07916259 330.0126174 17.97110239 328.83203125 19.86328125 C328.2076416 20.86182129 327.58325195 21.86036133 326.93994141 22.88916016 C323.62544142 28.20420658 320.34397549 33.53952272 317.0625 38.875 C316.38687012 39.97287842 315.71124023 41.07075684 315.01513672 42.2019043 C310.08026502 50.227117 305.17720453 58.27129372 300.28491211 66.32250977 C292.56449695 79.01919929 284.75562646 91.66156491 276.95898438 104.31152344 C269.94603324 115.69159994 262.94176665 127.07632678 256 138.5 C250.97795354 146.76209961 245.93626502 155.01186218 240.875 163.25 C240.20927979 164.33692139 239.54355957 165.42384277 238.85766602 166.54370117 C235.72919034 171.63607678 232.56737578 176.69649523 229.28515625 181.69140625 C228.71748535 182.5618457 228.14981445 183.43228516 227.56494141 184.32910156 C226.51109133 185.93722682 225.44506709 187.53746643 224.36474609 189.12792969 C223.90277832 189.8346582 223.44081055 190.54138672 222.96484375 191.26953125 C222.5587085 191.87385986 222.15257324 192.47818848 221.73413086 193.10083008 C220.69411436 195.79131505 221.14058497 197.2649853 222 200 C223.37148442 202.69345211 223.37148442 202.69345211 225.140625 205.4375 C225.79232666 206.48631348 226.44402832 207.53512695 227.11547852 208.61572266 C227.82686424 209.74389169 228.53837447 210.87198222 229.25 212 C229.98242138 213.17320875 230.71410234 214.34688003 231.44506836 215.52099609 C232.92505897 217.89618713 234.40886355 220.26892281 235.89599609 222.63964844 C238.28342979 226.45267205 240.64871269 230.27891572 243.01000977 234.1081543 C248.07694249 242.32249766 253.19078189 250.50724583 258.3125 258.6875 C264.98457891 269.34538404 271.5819747 280.04809027 278.1640625 290.76171875 C281.59712431 296.3487748 285.04500296 301.92648916 288.5 307.5 C293.28461457 315.22071242 298.05302221 322.95126664 302.8125 330.6875 C303.48337646 331.77788574 304.15425293 332.86827148 304.84545898 333.99169922 C308.24805971 339.52310864 311.64862412 345.05576095 315.046875 350.58984375 C316.38541237 352.76823181 317.72395401 354.94661724 319.0625 357.125 C319.71323486 358.18557617 320.36396973 359.24615234 321.03442383 360.33886719 C324.43423969 365.86994236 327.86288083 371.38051518 331.33984375 376.86328125 C332.03779053 377.96720215 332.7357373 379.07112305 333.45483398 380.20849609 C334.7909429 382.31800744 336.13266919 384.42397421 337.48071289 386.52587891 C338.07489014 387.4647998 338.66906738 388.4037207 339.28125 389.37109375 C339.80783203 390.19536865 340.33441406 391.01964355 340.87695312 391.86889648 C342 394 342 394 342 397 C311.97 397 281.94 397 251 397 C242.00557306 381.25975285 242.00557306 381.25975285 239.02734375 375.6171875 C238.7023439 375.00328156 238.37734406 374.38937561 238.04249573 373.75686646 C237.3574216 372.46229348 236.6733355 371.16719717 235.99023438 369.87158203 C234.14271409 366.36763471 232.28745513 362.86778269 230.43359375 359.3671875 C230.05894989 358.65923035 229.68430603 357.95127319 229.29830933 357.22186279 C225.72292749 350.4682882 222.11452893 343.73270844 218.5 337 C212.77999842 326.33961639 207.09548421 315.66089084 201.42504883 304.97409058 C196.62103029 295.92113162 191.80036174 286.87738065 186.95639038 277.84573364 C184.3027774 272.89795078 181.65153738 267.94889539 179 263 C178.50935059 262.08476563 178.01870117 261.16953125 177.51318359 260.2265625 C176.23513843 257.8400319 174.96059605 255.45167339 173.6875 253.0625 C173.33236328 252.40064697 172.97722656 251.73879395 172.61132812 251.05688477 C171.2241222 248.44614376 169.95521283 245.88336345 168.89453125 243.12109375 C168.19834439 240.82819145 168.19834439 240.82819145 166 240 C165.86247314 240.57685547 165.72494629 241.15371094 165.58325195 241.74804688 C163.56032459 249.34998706 160.10013583 255.71350316 156.1875 262.5 C155.17482039 264.28342285 154.16605902 266.06902241 153.15766907 267.85487366 C152.46721311 269.07757967 151.77570876 270.29969424 151.08317566 271.52122498 C147.52013067 277.81581061 144.09796709 284.18415272 140.6875 290.5625 C136.43885602 298.48961852 132.14655661 306.38691221 127.7565918 314.23657227 C124.28211435 320.46117615 120.8873534 326.72763206 117.5 333 C113.32287908 340.73406323 109.10689663 348.44299084 104.81738281 356.11523438 C100.6792364 363.53512826 96.65275758 371.0152413 92.640625 378.50390625 C92.125 379.46167969 91.609375 380.41945313 91.078125 381.40625 C90.62856445 382.24478516 90.17900391 383.08332031 89.71582031 383.94726562 C89.14959961 384.95466797 88.58337891 385.96207031 88 387 C87.73605438 387.83840424 87.47210876 388.67680847 87.20016479 389.5406189 C85.86076609 392.89237268 84.78533953 394.66724588 82 397 C75.39877578 398.92316508 68.07858702 398.1569697 61.2890625 397.9765625 C59.23501021 397.9579025 57.1809133 397.94367201 55.12680054 397.9336853 C49.73004456 397.89557062 44.33599634 397.79740511 38.94030762 397.68664551 C33.43062982 397.58419743 27.92051274 397.53864467 22.41015625 397.48828125 C11.60558351 397.38115362 0.80301722 397.21056931 -10 397 C-9.28859439 393.92605193 -8.37257705 391.71594804 -6.6640625 389.05078125 C-6.18251709 388.29394043 -5.70097168 387.53709961 -5.20483398 386.75732422 C-4.68348877 385.95053223 -4.16214355 385.14374023 -3.625 384.3125 C-2.81687866 383.04817139 -2.81687866 383.04817139 -1.99243164 381.75830078 C-0.33438408 379.16822326 1.33168378 376.58347265 3 374 C3.48388184 373.2486377 3.96776367 372.49727539 4.46630859 371.72314453 C7.1819582 367.50696726 9.90872264 363.29811647 12.64111328 359.09277344 C14.93192661 355.56477274 17.21562125 352.03216906 19.5 348.5 C22.18932288 344.34239587 24.87928099 340.1852174 27.57421875 336.03125 C33.03919733 327.60324442 38.46589143 319.15148045 43.875 310.6875 C50.371606 300.52343041 56.92370341 290.3971012 63.50927734 280.29052734 C67.24573387 274.54938174 70.96031851 268.79404158 74.67919922 263.04150391 C75.9734554 261.04102883 77.26961316 259.04180003 78.56640625 257.04296875 C82.65944962 250.73119451 86.73994992 244.41179492 90.79296875 238.07421875 C91.46062256 237.03040039 92.12827637 235.98658203 92.81616211 234.91113281 C94.18525196 232.76747547 95.55196503 230.62229824 96.91625977 228.47558594 C100.20518223 223.31139028 103.53088054 218.184829 106.984375 213.12890625 C107.59941895 212.21858643 108.21446289 211.3082666 108.84814453 210.37036133 C110.005784 208.66316919 111.17801277 206.9657513 112.36669922 205.2800293 C112.8773291 204.52246338 113.38795898 203.76489746 113.9140625 202.984375 C114.3673291 202.33178711 114.8205957 201.67919922 115.28759766 201.00683594 C116.23690617 198.94673793 116.23690617 198.94673793 115.31469727 196.58203125 C113.95526309 193.91213787 112.55020953 191.29735558 111.05078125 188.703125 C110.45813477 187.67558105 109.86548828 186.64803711 109.25488281 185.58935547 C108.61389648 184.48736816 107.97291016 183.38538086 107.3125 182.25 C106.63505335 181.08091383 105.95764517 179.91180536 105.28027344 178.74267578 C99.62015326 168.99250138 93.82887738 159.32280149 88.0078125 149.66796875 C83.91714713 142.87713682 79.87675239 136.05702935 75.83764648 129.23547363 C69.37615431 118.32300592 62.85934458 107.44855273 56.25 96.625 C50.18678558 86.69425855 44.30349002 76.67093927 38.52026367 66.57446289 C34.28211336 59.18701068 29.95686164 51.85804947 25.5625 44.5625 C24.95559326 43.55453369 24.34868652 42.54656738 23.72338867 41.50805664 C22.47546663 39.43584623 21.22750041 37.36366242 19.97949219 35.29150391 C16.72855957 29.8858461 13.48857127 24.47377586 10.26217651 19.05343628 C9.5528577 17.8631141 8.84221124 16.67358194 8.13015747 15.4848938 C7.13934974 13.83050923 6.15355873 12.17312331 5.16796875 10.515625 C4.60360107 9.56977539 4.0392334 8.62392578 3.45776367 7.64941406 C2.08013661 5.14564436 1.03517219 2.65875804 0 0 Z " fill="#FDFEFD" transform="translate(258,606)"/>
<path d="M0 0 C46.2 0 92.4 0 140 0 C140 110.22 140 220.44 140 334 C40 334 40 334 8 333 C7.98786972 327.16017677 7.98786972 327.16017677 7.97549438 321.20237732 C7.9004317 285.50708685 7.81554982 249.81183055 7.71994839 214.11658898 C7.7074294 209.43897293 7.69499665 204.76135665 7.68261719 200.08374023 C7.68015119 199.1525046 7.6776852 198.22126896 7.67514448 197.26181407 C7.63541256 182.18014657 7.60266713 167.09847159 7.57250018 152.01678228 C7.5413945 136.54346613 7.50278888 121.07018183 7.45720994 105.59690148 C7.42931836 96.04781572 7.40728821 86.49875328 7.39273749 76.94963772 C7.38220155 70.40291037 7.36438561 63.85622814 7.34083296 57.30953478 C7.32745643 53.5315327 7.31730124 49.7535939 7.31578636 45.97556686 C7.31405991 41.87913141 7.29700965 37.782902 7.2784729 33.68650818 C7.28040763 32.4929222 7.28234237 31.29933622 7.28433573 30.06958097 C7.27687024 28.96882421 7.26940475 27.86806745 7.26171303 26.73395443 C7.25943471 25.78883053 7.25715638 24.84370663 7.25480902 23.86994261 C6.53411976 15.75273855 2.65809017 7.44265247 0 0 Z " fill="#0F793F" transform="translate(817,471)"/>
<path d="M0 0 C52.34139614 -0.09047654 104.68277348 -0.16206603 157.02423236 -0.20426132 C163.20739853 -0.20926398 169.39056454 -0.21444129 175.57373047 -0.21972656 C176.8046574 -0.2207758 178.03558434 -0.22182505 179.30381209 -0.22290608 C199.2196289 -0.24029853 219.1353994 -0.27182984 239.05118877 -0.30861118 C259.49544749 -0.34605287 279.939682 -0.36824268 300.3839736 -0.37635398 C312.99329068 -0.38183504 325.60247684 -0.39912978 338.21175361 -0.43166587 C346.86521744 -0.45285359 355.51861386 -0.4591904 364.17210174 -0.45400551 C369.16037998 -0.45145037 374.14842988 -0.45529271 379.13666725 -0.4768219 C383.71310409 -0.49642846 388.28916116 -0.49717947 392.86561626 -0.48359558 C394.51192736 -0.48191917 396.15826312 -0.48687321 397.80452639 -0.49953273 C416.88036475 -0.63756626 433.5095447 3.17241706 447.72265625 16.734375 C448.84994141 17.85585938 448.84994141 17.85585938 450 19 C450.63808594 19.60328125 451.27617188 20.2065625 451.93359375 20.828125 C462.37773765 31.52813879 466.25057296 46.21566688 466.1023407 60.7166748 C466.07501841 62.47790166 466.03846885 64.23898135 466 66 C460.41351453 66.22307809 454.82963649 66.38605356 449.23974609 66.49438477 C447.34019813 66.53955043 445.44096146 66.60090169 443.54248047 66.67895508 C427.74473657 67.31202339 427.74473657 67.31202339 423.42285156 64.06201172 C421.83253927 61.71646743 420.83525834 59.69886605 420 57 C419.67 56.01 419.34 55.02 419 54 C418.34 54 417.68 54 417 54 C417 53.34 417 52.68 417 52 C416.44183594 51.75121094 415.88367188 51.50242187 415.30859375 51.24609375 C412.60678529 49.7877572 410.42733283 48.01922609 408.0625 46.0625 C402.56967228 41.52051726 397.91643083 38.76807482 391 36.875 C389.80375 36.54242188 388.6075 36.20984375 387.375 35.8671875 C382.27447997 34.55663721 377.74902173 33.87355241 372.4657774 33.8613348 C371.82011455 33.85849258 371.1744517 33.85565036 370.50922331 33.85272202 C368.34294319 33.84439164 366.17671666 33.84310811 364.01042175 33.84178162 C362.44280585 33.83721514 360.87519117 33.83221499 359.30757791 33.82681805 C354.99768084 33.81323733 350.68779165 33.80581877 346.37787879 33.79939139 C341.73101541 33.79138717 337.08416846 33.77768946 332.43731689 33.76467896 C324.38558147 33.74291653 316.3338444 33.72477117 308.28209496 33.70907402 C296.64057869 33.68637328 284.9990806 33.65823072 273.35757975 33.62875474 C254.47057225 33.58108135 235.58355733 33.53781647 216.6965332 33.49731445 C198.34822003 33.45795825 179.99991346 33.41653171 161.65161133 33.37231445 C159.95547477 33.36822804 159.95547477 33.36822804 158.22507282 33.36405908 C152.55246291 33.35037958 146.87985309 33.33665931 141.20724332 33.32291877 C94.13817583 33.20895796 47.0690939 33.10241907 0 33 C0 22.11 0 11.22 0 0 Z " fill="#1D925B" transform="translate(391,405)"/>
<path d="M0 0 C10.56 0 21.12 0 32 0 C38.01256675 12.0251335 39.30401611 20.12207979 39.24050903 33.12319946 C39.24221788 34.41397915 39.24392673 35.70475884 39.24568737 37.03465307 C39.2501315 40.59219948 39.24219795 44.14962408 39.23213124 47.70715499 C39.22345642 51.55295904 39.22641975 55.39875678 39.22793579 59.24456787 C39.2289821 65.89933512 39.22273211 72.554063 39.21146011 79.20882034 C39.19517356 88.8303568 39.18999388 98.45187432 39.18748413 108.07342307 C39.18311197 123.68551548 39.16981589 139.29758693 39.15087891 154.90966797 C39.13250769 170.07112524 39.11835727 185.23257681 39.10986328 200.39404297 C39.10907511 201.79697703 39.10907511 201.79697703 39.10827102 203.2282532 C39.10566085 207.92054519 39.10313346 212.61283723 39.10064721 217.30512929 C39.07992964 256.20343491 39.04416493 295.10171445 39 334 C28.11 334 17.22 334 6 334 C5.99413376 330.1223288 5.98826752 326.24465759 5.98222351 322.2494812 C5.92700107 286.65763155 5.85701615 251.06583531 5.77101372 215.47404628 C5.7597461 210.80545169 5.74860756 206.13685681 5.73754883 201.46826172 C5.73534514 200.53886226 5.73314146 199.60946279 5.730871 198.65189971 C5.69553719 183.62022577 5.67065097 168.58855187 5.64965298 153.55685185 C5.62785969 138.12304174 5.59477585 122.68928534 5.55129844 107.25552094 C5.52484243 97.73868764 5.50710254 88.22192121 5.50065396 78.70505299 C5.49538152 72.17134044 5.47910253 65.63771189 5.45433434 59.10404442 C5.44038269 55.33932377 5.43112464 51.57475328 5.43499184 47.81000519 C5.43906949 43.71594197 5.41988724 39.62230036 5.39872742 35.52828979 C5.40357499 34.35509371 5.40842257 33.18189762 5.41341704 31.97315013 C5.33649551 22.90598992 4.32954212 13.75327884 0.89999503 5.28331363 C0 3 0 3 0 0 Z " fill="#094826" transform="translate(785,471)"/>
<path d="M0 0 C4.19511576 -0.07521585 8.38985477 -0.12909381 12.58544922 -0.16479492 C14.00706841 -0.17970701 15.42864307 -0.20004409 16.85009766 -0.22631836 C25.96932291 -0.3904258 34.22106082 0.23520706 43 3 C43.73968018 3.22316895 44.47936035 3.44633789 45.24145508 3.67626953 C54.1622775 6.48682493 62.30847121 12.60587249 69 19 C69 19.66 69 20.32 69 21 C69.66 21 70.32 21 71 21 C72.47265625 22.86328125 72.47265625 22.86328125 74.0625 25.3125 C74.58972656 26.11300781 75.11695313 26.91351563 75.66015625 27.73828125 C77 30 77 30 78 33 C67.44 33 56.88 33 46 33 C45.505 33.99 45.505 33.99 45 35 C44.484375 33.865625 43.96875 32.73125 43.4375 31.5625 C40.89357719 26.45641837 37.24546625 19.62273312 32 17 C32 16.34 32 15.68 32 15 C31.27296875 14.74089844 30.5459375 14.48179687 29.796875 14.21484375 C26.90689761 12.95956027 24.75315369 11.46440599 22.25 9.5625 C17.64839675 6.27173922 13.45454013 4.3855898 8 3 C6.84177734 2.69449219 6.84177734 2.69449219 5.66015625 2.3828125 C3.77889138 1.90009779 1.89012672 1.44675722 0 1 C0 0.67 0 0.34 0 0 Z " fill="#135F3B" transform="translate(739,438)"/>
<path d="M0 0 C-3.6119658 2.26033658 -6.61137656 2.24732195 -10.81905484 2.24198496 C-11.85378137 2.24477758 -11.85378137 2.24477758 -12.90941146 2.24762662 C-15.23668285 2.25143727 -17.56367056 2.24088331 -19.89091873 2.23047829 C-21.5771328 2.23024967 -23.26334718 2.23090068 -24.94956064 2.232355 C-29.6127884 2.23380042 -34.27591642 2.2226635 -38.93912301 2.20959318 C-44.00104621 2.19759813 -49.06297202 2.19719043 -54.12490726 2.1953491 C-63.00628088 2.19050542 -71.88762008 2.17818239 -80.76897812 2.16103554 C-93.97533384 2.13557212 -107.18168414 2.12154816 -120.3880584 2.10991575 C-142.60075202 2.09002404 -164.81342548 2.06079861 -187.02610016 2.02626419 C-209.02771857 1.99208629 -231.02933628 1.96204734 -253.03096771 1.93757248 C-253.71393766 1.93681085 -254.39690761 1.93604922 -255.10057361 1.93526451 C-261.33833734 1.92831052 -267.57610112 1.92140763 -273.81386498 1.91456608 C-289.32111506 1.89755716 -304.82836438 1.87990713 -320.33561325 1.86182213 C-321.39493013 1.86058749 -321.39493013 1.86058749 -322.47564736 1.85932792 C-356.8392407 1.81922114 -391.20282332 1.77172828 -425.56640625 1.72363281 C-437.49320466 1.7069441 -449.42000311 1.69028802 -461.34680176 1.67376709 C-462.08649039 1.67274244 -462.82617901 1.6717178 -463.58828245 1.6706621 C-497.96651243 1.62308478 -532.34474828 1.58075014 -566.72298668 1.53977019 C-568.95450507 1.53711006 -571.18602345 1.53444766 -573.41754184 1.5317848 C-588.20577559 1.51414171 -602.99400944 1.49658902 -617.78224337 1.47909689 C-647.20783585 1.44429027 -676.63342769 1.40895238 -706.0590191 1.37324956 C-707.46038205 1.37154926 -708.86174501 1.36984932 -710.26310796 1.36814976 C-796.69922359 1.26331655 -883.13532385 1.14689297 -990 1 C-990 0.67 -990 0.34 -990 0 C-902.42870152 -0.10497463 -814.85740222 -0.20942326 -708.49113464 -0.32835388 C-707.08921425 -0.32991731 -705.68729385 -0.33148074 -704.28537345 -0.33304417 C-674.85996706 -0.36585507 -645.43456045 -0.3984591 -616.00915357 -0.43082409 C-601.22822905 -0.44708184 -586.44730457 -0.46337935 -571.66638014 -0.47971445 C-569.43670613 -0.48217834 -567.20703212 -0.48464109 -564.97735811 -0.4871038 C-530.63553849 -0.52504482 -496.2937201 -0.5638396 -461.9519043 -0.60510254 C-461.21328717 -0.60599 -460.47467005 -0.60687746 -459.71367058 -0.60779181 C-447.80465508 -0.62210584 -435.89563967 -0.63649139 -423.98662427 -0.65088643 C-389.69318302 -0.69233759 -355.39974151 -0.73326159 -321.10629559 -0.77068233 C-320.40136861 -0.7714518 -319.69644164 -0.77222127 -318.97015325 -0.77301406 C-303.49686002 -0.78989455 -288.02356651 -0.80650293 -272.55027272 -0.8228535 C-266.32473609 -0.8294368 -260.09919951 -0.83605929 -253.87366295 -0.84269524 C-252.85161378 -0.84378324 -252.85161378 -0.84378324 -251.80891715 -0.84489323 C-229.839966 -0.86829949 -207.87102013 -0.89489826 -185.90207474 -0.92316478 C-163.16480756 -0.9524049 -140.42753848 -0.97811005 -117.69026253 -0.99967117 C-104.57166748 -1.01222273 -91.45308269 -1.0276026 -78.33449587 -1.04695946 C-69.58363317 -1.05959789 -60.83277166 -1.06862381 -52.08190191 -1.07465136 C-47.08789967 -1.07819643 -42.09391312 -1.08336987 -37.09991846 -1.09292836 C-32.56261099 -1.10158198 -28.02532397 -1.10566496 -23.48800847 -1.10600058 C-21.85112347 -1.10694069 -20.2142384 -1.10958962 -18.57735934 -1.11409699 C-16.36382703 -1.11995024 -14.15037858 -1.11965777 -11.93684131 -1.11778647 C-10.70849389 -1.11919029 -9.48014648 -1.12059412 -8.21457641 -1.12204048 C-5.34711936 -1.01317829 -2.78464646 -0.66385605 0 0 Z " fill="#0E3A23" transform="translate(1439,1471)"/>
<path d="M0 0 C0.99 0.33 1.98 0.66 3 1 C0.03 3.475 0.03 3.475 -3 6 C-2.42655063 3.13275314 -2.1385485 2.1385485 0 0 Z " fill="#136B3F" transform="translate(76,453)"/>
</svg>
