<?xml version="1.0" encoding="UTF-8"?>
<svg version="1.1" xmlns="http://www.w3.org/2000/svg" width="360" height="360">
<path d="M0 0 C2.14552787 0.00119469 4.29105628 0.00164435 6.43658447 0.00138855 C10.92162376 0.00294705 15.40658253 0.01118507 19.89160156 0.0246582 C25.60133921 0.04160556 31.31098828 0.04547318 37.02074814 0.04471302 C41.44949162 0.04498687 45.87821627 0.0505029 50.30695343 0.05771446 C52.41019804 0.06086667 54.51344475 0.06286034 56.61669159 0.06360817 C100.89480115 0.0965842 100.89480115 0.0965842 117.1953125 15.2578125 C126.50003858 24.96632858 131.71327427 37.79634595 132.390625 51.23046875 C131.62104505 66.49380442 125.11650395 79.88814986 114.015625 90.23046875 C107.73440005 95.40792772 100.56679849 98.34287957 93.015625 101.23046875 C93.75425781 101.49859375 94.49289063 101.76671875 95.25390625 102.04296875 C110.8757944 108.07734486 121.56954617 117.44671697 128.5703125 132.62890625 C130.64077251 137.78826877 131.5777464 142.70833312 132.015625 148.23046875 C132.11875 149.52984375 132.221875 150.82921875 132.328125 152.16796875 C131.8437631 167.63525867 124.78864742 179.91987376 113.890625 190.41796875 C101.18233883 201.3170135 86.00219977 202.45303031 70.015625 201.23046875 C65.98190001 200.42001884 62.64214814 199.15074248 59.015625 197.23046875 C58.14679688 196.78316406 57.27796875 196.33585938 56.3828125 195.875 C44.19177398 189.0880487 37.35480735 178.88823764 32.015625 166.23046875 C32.01784561 167.12566223 32.02006622 168.02085571 32.02235413 168.94317627 C32.04257798 177.4723082 32.05770998 186.00143182 32.06743717 194.53058243 C32.07260645 198.91313977 32.07959263 203.29567693 32.09106445 207.67822266 C32.17638259 241.28184766 32.17638259 241.28184766 31.64453125 253.17578125 C31.61496841 253.91725403 31.58540558 254.65872681 31.5549469 255.42266846 C30.80039656 268.84733082 24.41402164 280.2932622 14.828125 289.48046875 C2.58059069 299.80518198 -11.13085476 302.32148946 -26.62939453 301.46875 C-39.60849806 300.15550046 -50.95470868 292.55319594 -59.16796875 282.73046875 C-66.89135757 272.10042823 -72.0413812 257.49527511 -69.984375 244.23046875 C-67.75561249 235.70063694 -64.74306131 227.70261874 -59.984375 220.23046875 C-59.324375 220.23046875 -58.664375 220.23046875 -57.984375 220.23046875 C-57.58992188 219.34294922 -57.58992188 219.34294922 -57.1875 218.4375 C-52.33037502 209.52751424 -40.22693628 204.31132251 -30.984375 201.23046875 C-37.419375 198.75546875 -37.419375 198.75546875 -43.984375 196.23046875 C-43.984375 195.57046875 -43.984375 194.91046875 -43.984375 194.23046875 C-45.08652344 193.84181641 -45.08652344 193.84181641 -46.2109375 193.4453125 C-56.75120176 188.82837984 -63.26243531 178.02421329 -67.359375 167.73046875 C-71.72059857 154.44001589 -70.22615927 140.64173277 -64.45703125 127.9765625 C-57.67282002 115.32589806 -47.26258813 106.9638114 -33.73046875 102.484375 C-32.16014214 102.02438034 -30.57388798 101.61901637 -28.984375 101.23046875 C-29.72300781 101.02292969 -30.46164063 100.81539063 -31.22265625 100.6015625 C-47.35926077 95.7011197 -56.9833281 87.24602706 -65.28515625 72.92578125 C-70.774037 61.99425759 -70.93103039 46.35298992 -67.484375 34.79296875 C-63.46944015 24.72041291 -56.99869753 15.41510733 -47.984375 9.23046875 C-45.71875 8.5234375 -45.71875 8.5234375 -43.984375 8.23046875 C-43.984375 7.57046875 -43.984375 6.91046875 -43.984375 6.23046875 C-42.38503893 5.59320912 -40.77949368 4.97153521 -39.171875 4.35546875 C-38.27855469 4.00742187 -37.38523438 3.659375 -36.46484375 3.30078125 C-24.43466959 -0.39873359 -12.46083053 -0.04599888 0 0 Z M31.015625 102.23046875 C30.92710971 104.82406197 30.90036555 107.39086566 30.91796875 109.984375 C30.9193837 110.75982162 30.92079865 111.53526825 30.92225647 112.33421326 C30.92787155 114.82050369 30.94042654 117.30670535 30.953125 119.79296875 C30.95813806 121.47460808 30.9627013 123.15624881 30.96679688 124.83789062 C30.97784587 128.96878441 30.99512055 133.09961151 31.015625 137.23046875 C31.675625 137.23046875 32.335625 137.23046875 33.015625 137.23046875 C33.22316406 136.62460938 33.43070312 136.01875 33.64453125 135.39453125 C39.59871621 119.20114118 50.02303028 110.69299901 65.015625 103.23046875 C65.015625 102.90046875 65.015625 102.57046875 65.015625 102.23046875 C47.00576587 99.65379334 47.00576587 99.65379334 31.015625 102.23046875 Z " fill="#A158FE" transform="translate(148.984375,28.76953125)"/>
<path d="M0 0 C2.14552787 0.00119469 4.29105628 0.00164435 6.43658447 0.00138855 C10.92162376 0.00294705 15.40658253 0.01118507 19.89160156 0.0246582 C25.60133921 0.04160556 31.31098828 0.04547318 37.02074814 0.04471302 C41.44949162 0.04498687 45.87821627 0.0505029 50.30695343 0.05771446 C52.41019804 0.06086667 54.51344475 0.06286034 56.61669159 0.06360817 C100.89480115 0.0965842 100.89480115 0.0965842 117.1953125 15.2578125 C126.50003858 24.96632858 131.71327427 37.79634595 132.390625 51.23046875 C131.62229415 66.46903058 125.13128619 79.92321929 114.015625 90.23046875 C102.4512832 99.39283671 90.06611583 101.46524379 75.66015625 101.6796875 C74.58381927 101.70192383 73.5074823 101.72416016 72.39852905 101.74707031 C68.87515639 101.81516877 65.35179724 101.86789759 61.828125 101.91796875 C60.61629547 101.93759674 59.40446594 101.95722473 58.15591431 101.97744751 C38.83391103 102.28232154 19.52457643 102.2309181 0.203125 101.91796875 C-0.99106049 101.90099945 -2.18524597 101.88403015 -3.4156189 101.86654663 C-6.82035068 101.81510211 -10.22451762 101.75001966 -13.62890625 101.6796875 C-15.11458603 101.65757202 -15.11458603 101.65757202 -16.63027954 101.63500977 C-31.85128564 101.26253881 -44.44069324 97.59347704 -55.66015625 86.84375 C-67.22664655 73.83873821 -70.1546284 60.29285094 -69.18701172 43.43359375 C-67.97415486 30.2470633 -59.79949717 19.11482848 -50.0625 10.65625 C-47.98687602 9.23218468 -46.44700419 8.64645341 -43.984375 8.23046875 C-43.984375 7.57046875 -43.984375 6.91046875 -43.984375 6.23046875 C-42.38503893 5.59320912 -40.77949368 4.97153521 -39.171875 4.35546875 C-38.27855469 4.00742187 -37.38523437 3.659375 -36.46484375 3.30078125 C-24.43466959 -0.39873359 -12.46083053 -0.04599888 0 0 Z " fill="#FD7262" transform="translate(148.984375,28.76953125)"/>
<path d="M0 0 C2.49001461 0.01817352 4.97965263 0.02050944 7.46972656 0.02026367 C9.10254216 0.02518469 10.73535532 0.03101554 12.36816406 0.0378418 C13.44707916 0.03951103 13.44707916 0.03951103 14.54779053 0.04121399 C22.00144023 0.10688149 29.27587127 0.70694936 36.75878906 1.20581055 C36.75878906 34.20581055 36.75878906 67.20581055 36.75878906 101.20581055 C27.74566406 101.24706055 18.73253906 101.28831055 9.44628906 101.33081055 C6.62283936 101.34901855 3.79938965 101.36722656 0.89038086 101.38598633 C-1.37874156 101.39183438 -3.6478661 101.39692919 -5.91699219 101.40112305 C-7.06985718 101.41135498 -8.22272217 101.42158691 -9.41052246 101.43212891 C-25.25585649 101.43550133 -38.20786176 98.03798488 -49.91699219 86.8190918 C-61.48348249 73.81408001 -64.41146434 60.26819274 -63.44384766 43.40893555 C-62.2309908 30.2224051 -54.05633311 19.09017028 -44.31933594 10.6315918 C-42.24371196 9.20752647 -40.70384013 8.62179521 -38.24121094 8.20581055 C-38.24121094 7.54581055 -38.24121094 6.88581055 -38.24121094 6.20581055 C-36.64187487 5.56855091 -35.03632962 4.94687701 -33.42871094 4.33081055 C-32.53539063 3.98276367 -31.64207031 3.6347168 -30.72167969 3.27612305 C-20.49895392 0.13243409 -10.59851344 -0.079727 0 0 Z " fill="#F24D1E" transform="translate(143.2412109375,28.794189453125)"/>
<path d="M0 0 C1.24961014 0.0028299 2.49922028 0.00565979 3.78669739 0.00857544 C7.06968147 0.01780066 10.35245975 0.03569162 13.63537598 0.0579834 C17.00103266 0.07863662 20.36671976 0.0876183 23.73242188 0.09765625 C30.30737046 0.1195909 36.88218407 0.15297311 43.45703125 0.1953125 C43.52010891 13.52895938 43.5293003 26.86167327 43.45703125 40.1953125 C43.44833008 41.99307129 43.44833008 41.99307129 43.43945312 43.82714844 C43.27729868 60.35068685 40.00090753 73.93426632 28.4296875 86.375 C17.48074847 96.8685582 4.60981899 100.65074326 -10.17553711 100.62915039 C-24.29754426 100.3004144 -36.08098989 94.14125459 -45.79296875 84.0078125 C-54.56676536 73.51470625 -59.43716939 59.63331656 -58.9609375 45.890625 C-57.49295843 36.4242179 -53.66764982 27.24215213 -48.54296875 19.1953125 C-47.88296875 19.1953125 -47.22296875 19.1953125 -46.54296875 19.1953125 C-46.28257813 18.60492188 -46.0221875 18.01453125 -45.75390625 17.40625 C-41.57768495 9.78127821 -32.40156546 5.09625734 -24.54296875 2.1953125 C-16.35570533 0.19236644 -8.3934752 -0.07280669 0 0 Z " fill="#0ACE82" transform="translate(137.54296875,229.8046875)"/>
<path d="M0 0 C-0.66 0.33 -1.32 0.66 -2 1 C-1.26136719 1.268125 -0.52273437 1.53625 0.23828125 1.8125 C15.8601694 7.84687611 26.55392117 17.21624822 33.5546875 32.3984375 C35.62514751 37.55780002 36.5621214 42.47786437 37 48 C37.103125 49.299375 37.20625 50.59875 37.3125 51.9375 C36.8281381 67.40478992 29.77302242 79.68940501 18.875 90.1875 C6.16671383 101.08654475 -9.01342523 102.22256156 -25 101 C-29.03372499 100.18955009 -32.37347686 98.92027373 -36 97 C-36.86882812 96.55269531 -37.73765625 96.10539062 -38.6328125 95.64453125 C-49.05929316 89.83993829 -55.67763545 81.64472909 -61 71 C-61.27379441 68.50542871 -61.44549145 66.01107933 -61.62109375 63.5078125 C-61.86252725 61.0093496 -61.86252725 61.0093496 -63.015625 59.01953125 C-66.80286605 51.24967561 -63.42074183 39.77185536 -61 32 C-56.29363634 19.28358995 -46.68887769 10.4787846 -35 4 C-33.68 3.67 -32.36 3.34 -31 3 C-36.94 2.67 -42.88 2.34 -49 2 C-49 1.67 -49 1.34 -49 1 C-47.78417236 0.97494385 -46.56834473 0.9498877 -45.31567383 0.92407227 C-40.79620183 0.82975811 -36.27687492 0.72959631 -31.75756836 0.62768555 C-29.80317585 0.58442742 -27.84874778 0.54274602 -25.89428711 0.50268555 C-23.08175955 0.44476164 -20.26940952 0.38113127 -17.45703125 0.31640625 C-16.58601273 0.29969376 -15.7149942 0.28298126 -14.81758118 0.26576233 C-11.48024702 0.1846337 -8.37632369 0.07546725 -5.09643555 -0.58227539 C-3 -1 -3 -1 0 0 Z " fill="#1ABCFD" transform="translate(244,129)"/>
<path d="M0 0 C0.66 0 1.32 0 2 0 C1.835 1.0725 1.67 2.145 1.5 3.25 C0.14501537 13.94156457 0.14501537 13.94156457 3 24 C3.24636612 26.70017269 3.09065666 29.28030006 3 32 C2.34 31.01 1.68 30.02 1 29 C1.01160156 29.85078125 1.02320313 30.7015625 1.03515625 31.578125 C1.11624506 42.46719352 0.54670493 53.06590139 0 64 C-17.49 64 -34.98 64 -53 64 C-53 63.67 -53 63.34 -53 63 C-35.84 63 -18.68 63 -1 63 C-1.01740234 56.93238281 -1.01740234 56.93238281 -1.03515625 50.7421875 C-1.04159215 47.50656159 -1.04701322 44.27093751 -1.05175018 41.03530884 C-1.05701962 37.62541407 -1.06405575 34.21554437 -1.07543945 30.80566406 C-1.08843353 26.888675 -1.09324595 22.971696 -1.09765625 19.0546875 C-1.10281754 17.83884979 -1.10797882 16.62301208 -1.11329651 15.37033081 C-1.11337204 14.22960114 -1.11344757 13.08887146 -1.11352539 11.91357422 C-1.115746 10.91429901 -1.11796661 9.9150238 -1.12025452 8.88546753 C-0.9939082 5.8538293 -0.55839423 2.97988879 0 0 Z " fill="#8970E0" transform="translate(180,166)"/>
<path d="M0 0 C29.7 0.495 29.7 0.495 60 1 C60 1.33 60 1.66 60 2 C59.31317642 2.01030746 58.62635284 2.02061493 57.91871643 2.03123474 C50.79784143 2.13905595 43.67709926 2.25367283 36.55639648 2.37231445 C33.89561735 2.4157418 31.23480893 2.4574109 28.57397461 2.49731445 C24.75886185 2.55482872 20.94389758 2.61857668 17.12890625 2.68359375 C15.33206139 2.70866249 15.33206139 2.70866249 13.49891663 2.73423767 C11.84731789 2.7641555 11.84731789 2.7641555 10.16235352 2.79467773 C8.7000808 2.81799416 8.7000808 2.81799416 7.20826721 2.84178162 C5.02581432 2.75593055 5.02581432 2.75593055 4 4 C1.65012738 4.23527773 -0.70556039 4.41386417 -3.0625 4.5625 C-4.35285156 4.64628906 -5.64320312 4.73007813 -6.97265625 4.81640625 C-7.97167969 4.87699219 -8.97070312 4.93757812 -10 5 C-6.71536341 2.81024227 -3.79303725 2.00193437 0 1 C0 0.67 0 0.34 0 0 Z " fill="#B659C6" transform="translate(120,129)"/>
<path d="M0 0 C1.3357457 3.77371512 0.72408671 6.85831347 0.0625 10.75 C-0.13214844 11.92046875 -0.32679687 13.0909375 -0.52734375 14.296875 C-0.76130859 15.63492188 -0.76130859 15.63492188 -1 17 C-1.66 17 -2.32 17 -3 17 C-2.84960951 26.11913251 -1.69658504 32.98637992 2.0390625 41.35546875 C3 44 3 44 2 47 C-5.01512528 34.65659254 -6.79641468 22.31390191 -3.03515625 8.44140625 C-2.09282902 5.59430369 -1.0986485 2.79005619 0 0 Z " fill="#BC8FEB" transform="translate(84,158)"/>
<path d="M0 0 C-3.04681061 2.03120707 -3.60118324 2.24659875 -7.01171875 2.1953125 C-7.76904297 2.18886719 -8.52636719 2.18242187 -9.30664062 2.17578125 C-10.48516602 2.15064453 -10.48516602 2.15064453 -11.6875 2.125 C-12.48478516 2.11597656 -13.28207031 2.10695312 -14.10351562 2.09765625 C-16.069139 2.07411585 -18.03460775 2.03824547 -20 2 C-20 2.66 -20 3.32 -20 4 C-25.28 4.66 -30.56 5.32 -36 6 C-34 4 -34 4 -31 3 C-36.94 2.67 -42.88 2.34 -49 2 C-49 1.67 -49 1.34 -49 1 C-47.78417236 0.97494385 -46.56834473 0.9498877 -45.31567383 0.92407227 C-40.79620183 0.82975811 -36.27687492 0.72959631 -31.75756836 0.62768555 C-29.80317585 0.58442742 -27.84874778 0.54274602 -25.89428711 0.50268555 C-23.08175955 0.44476164 -20.26940952 0.38113127 -17.45703125 0.31640625 C-16.58601273 0.29969376 -15.7149942 0.28298126 -14.81758118 0.26576233 C-11.48024702 0.1846337 -8.37632369 0.07546725 -5.09643555 -0.58227539 C-3 -1 -3 -1 0 0 Z " fill="#A7D1E4" transform="translate(244,129)"/>
<path d="M0 0 C2.97 0.495 2.97 0.495 6 1 C6 2.32 6 3.64 6 5 C6.99 5 7.98 5 9 5 C9.061875 5.928125 9.061875 5.928125 9.125 6.875 C9.41375 7.57625 9.7025 8.2775 10 9 C12.99615946 10.3045656 12.99615946 10.3045656 16 11 C16 11.66 16 12.32 16 13 C16.66 13.0825 17.32 13.165 18 13.25 C21.99039163 14.24759791 25.38549643 16.07166683 29 18 C25.10607687 19.28529466 23.04432102 18.42816942 19.36352539 16.64916992 C18.31733032 16.11126831 18.31733032 16.11126831 17.25 15.5625 C16.17963501 15.0197644 16.17963501 15.0197644 15.08764648 14.46606445 C8.738634 11.11070667 2.36282257 7.0884677 0 0 Z " fill="#65CBED" transform="translate(190,210)"/>
<path d="M0 0 C0.96661363 3.12180401 0.98988909 5.52083795 0.5625 8.75 C0.40974609 9.94882813 0.40974609 9.94882813 0.25390625 11.171875 C0.12822266 12.07679687 0.12822266 12.07679687 0 13 C-0.66 13 -1.32 13 -2 13 C-1.27781226 28.07488174 -1.27781226 28.07488174 4 42 C3.34 42.66 2.68 43.32 2 44 C1.34865075 42.43979133 0.70417036 40.87671421 0.0625 39.3125 C-0.29714844 38.44238281 -0.65679687 37.57226562 -1.02734375 36.67578125 C-5.00307859 25.73851875 -4.59482865 10.63921633 0 0 Z " fill="#E1795B" transform="translate(83,60)"/>
<path d="M0 0 C0.33 0 0.66 0 1 0 C2.96458296 10.32185653 2.07039417 21.04769787 1.625 31.5 C1.59422363 32.33611816 1.56344727 33.17223633 1.53173828 34.03369141 C1.29199606 38.99466422 0.56033009 43.28095289 -1 48 C-1.33 48 -1.66 48 -2 48 C-2 45.03 -2 42.06 -2 39 C-1.34 39 -0.68 39 0 39 C0 26.13 0 13.26 0 0 Z " fill="#57D0A3" transform="translate(179,249)"/>
<path d="M0 0 C-0.57352893 3.87132028 -2.48704352 6.08172796 -5 9 C-5.66 8.67 -6.32 8.34 -7 8 C-7 8.66 -7 9.32 -7 10 C-7.99 10.495 -7.99 10.495 -9 11 C-9.65213292 13.02463255 -9.65213292 13.02463255 -10 15 C-10.66 15 -11.32 15 -12 15 C-12 16.65 -12 18.3 -12 20 C-12.66 20.33 -13.32 20.66 -14 21 C-14.65213292 23.02463255 -14.65213292 23.02463255 -15 25 C-15.66 25 -16.32 25 -17 25 C-16.37954537 20.76677156 -14.89476441 17.47709705 -12.9375 13.6875 C-12.38964844 12.61886719 -11.84179688 11.55023438 -11.27734375 10.44921875 C-10.64505859 9.23685547 -10.64505859 9.23685547 -10 8 C-9.34 8 -8.68 8 -8 8 C-7.7525 7.4225 -7.505 6.845 -7.25 6.25 C-5.58207452 3.24773413 -3.67725381 0 0 0 Z " fill="#52CFA1" transform="translate(99,241)"/>
<path d="M0 0 C1.4871409 2.33465131 2.10537412 3.45888966 1.56640625 6.2265625 C-5.04531411 22.02265705 -5.04531411 22.02265705 -11 25 C-11 23.35 -11 21.7 -11 20 C-10.01 20 -9.02 20 -8 20 C-8 19.34 -8 18.68 -8 18 C-7.34 18 -6.68 18 -6 18 C-5.87625 17.236875 -5.7525 16.47375 -5.625 15.6875 C-5 13 -5 13 -3 10 C-2.61500109 8.34450469 -2.27206865 6.6777567 -2 5 C-1.34 5 -0.68 5 0 5 C0 3.35 0 1.7 0 0 Z " fill="#61C7EC" transform="translate(277,190)"/>
<path d="M0 0 C0.33 0.66 0.66 1.32 1 2 C-1.40983607 6.70491803 -1.40983607 6.70491803 -4 8 C-4.309375 8.825 -4.61875 9.65 -4.9375 10.5 C-5.4634375 11.7375 -5.4634375 11.7375 -6 13 C-6.99 13.33 -7.98 13.66 -9 14 C-9.33 14.99 -9.66 15.98 -10 17 C-10.33 16.01 -10.66 15.02 -11 14 C-9.70703125 11.66015625 -9.70703125 11.66015625 -7.8125 9.0625 C-7.20019531 8.20785156 -6.58789062 7.35320312 -5.95703125 6.47265625 C-4.10443802 4.13195462 -2.15607466 2.0604616 0 0 Z " fill="#B88BEA" transform="translate(96,142)"/>
<path d="M0 0 C1.65 0 3.3 0 5 0 C-1.72595291 5.69746982 -11.36812423 7.67700986 -20 7 C-15.75452928 4.16968618 -12.35904653 3.5582069 -7.375 2.9375 C-6.66859375 2.84662109 -5.9621875 2.75574219 -5.234375 2.66210938 C-3.4899959 2.43816881 -1.74504866 2.21866182 0 2 C0 1.34 0 0.68 0 0 Z " fill="#47CC9C" transform="translate(151,323)"/>
<path d="M0 0 C0.66 0 1.32 0 2 0 C1.835 1.0725 1.67 2.145 1.5 3.25 C0.14501537 13.94156457 0.14501537 13.94156457 3 24 C3.24636612 26.70017269 3.09065666 29.28030006 3 32 C-0.19945956 26.05814653 -1.30753234 20.7218109 -1.1875 14 C-1.18685547 13.31421875 -1.18621094 12.6284375 -1.18554688 11.921875 C-1.15059718 7.85217771 -0.77979754 3.99256341 0 0 Z " fill="#90B7F5" transform="translate(180,166)"/>
<path d="M0 0 C6 3 6 3 7.25 5.25 C9.42211648 8.6633259 11.81610915 10.52364045 15 13 C14.34 13.66 13.68 14.32 13 15 C7.47240369 10.45272526 3.11400553 6.49879415 0 0 Z " fill="#B184EA" transform="translate(87,206)"/>
<path d="M0 0 C4.17744594 7.88058755 3.23627408 17.40314025 2 26 C0.11585358 22.80542649 -0.23819737 20.48497371 -0.1953125 16.796875 C-0.18886719 15.8171875 -0.18242187 14.8375 -0.17578125 13.828125 C-0.15902344 12.81234375 -0.14226562 11.7965625 -0.125 10.75 C-0.11597656 9.71875 -0.10695313 8.6875 -0.09765625 7.625 C-0.07412011 5.08309713 -0.04124023 2.5416672 0 0 Z " fill="#81D4EF" transform="translate(278,165)"/>
<path d="M0 0 C1.66666667 1.66666667 3.33333333 3.33333333 5 5 C1.29263464 6.23578845 -1.18227929 5.62471794 -5 5 C-5.66 5 -6.32 5 -7 5 C-7.33 5.99 -7.66 6.98 -8 8 C-9.32 7.67 -10.64 7.34 -12 7 C-10.56542672 6.0165504 -9.12722594 5.03839079 -7.6875 4.0625 C-6.88699219 3.51722656 -6.08648437 2.97195312 -5.26171875 2.41015625 C-3 1 -3 1 0 0 Z " fill="#3ED09B" transform="translate(111,233)"/>
<path d="M0 0 C1.3357457 3.77371512 0.72408671 6.85831347 0.0625 10.75 C-0.13214844 11.92046875 -0.32679687 13.0909375 -0.52734375 14.296875 C-0.68332031 15.18890625 -0.83929688 16.0809375 -1 17 C-1.66 17 -2.32 17 -3 17 C-3.33 17.66 -3.66 18.32 -4 19 C-4.62621031 12.11168659 -2.35806067 6.41097745 0 0 Z " fill="#B180EC" transform="translate(84,158)"/>
<path d="M0 0 C0.66 0.33 1.32 0.66 2 1 C1.34 1.66 0.68 2.32 0 3 C0.33 3.99 0.66 4.98 1 6 C-2.96 6.66 -6.92 7.32 -11 8 C-7.6378363 4.34117479 -4.63949148 1.85579659 0 0 Z " fill="#B180EC" transform="translate(108,134)"/>
<path d="M0 0 C2 3.75 2 3.75 2 6 C1.34 6 0.68 6 0 6 C0 11.94 0 17.88 0 24 C-0.33 24 -0.66 24 -1 24 C-1.82638014 15.54549548 -2.30414928 8.22910457 0 0 Z " fill="#68D9B1" transform="translate(81,266)"/>
<path d="M0 0 C2.97 0.495 2.97 0.495 6 1 C6 2.32 6 3.64 6 5 C6.99 5 7.98 5 9 5 C9.33 6.32 9.66 7.64 10 9 C6.43179569 8.44149846 5.00428942 7.27801323 2.75 4.5 C1.96882812 3.55640625 1.96882812 3.55640625 1.171875 2.59375 C0 1 0 1 0 0 Z " fill="#53C5EE" transform="translate(190,210)"/>
<path d="M0 0 C1.65 0.33 3.3 0.66 5 1 C4.67 1.99 4.34 2.98 4 4 C-0.62 4.33 -5.24 4.66 -10 5 C-6.71536341 2.81024227 -3.79303725 2.00193437 0 1 C0 0.67 0 0.34 0 0 Z " fill="#BF90E4" transform="translate(120,129)"/>
<path d="M0 0 C-1.67028292 3.94794145 -4.1795565 6.81796118 -7 10 C-7.33 10 -7.66 10 -8 10 C-8.32899743 6.38102827 -8.44576634 4.60496861 -6.25 1.625 C-4 0 -4 0 0 0 Z " fill="#F18F82" transform="translate(273,106)"/>
<path d="M0 0 C0 0.66 0 1.32 0 2 C-1.60032137 2.84069415 -3.20541171 3.67231505 -4.8125 4.5 C-6.15248047 5.19609375 -6.15248047 5.19609375 -7.51953125 5.90625 C-10 7 -10 7 -13 7 C-13 6.34 -13 5.68 -13 5 C-11.35 4.67 -9.7 4.34 -8 4 C-8 3.34 -8 2.68 -8 2 C-4.91190305 0.23537317 -3.76687864 0 0 0 Z " fill="#61CAEC" transform="translate(258,221)"/>
<path d="M0 0 C4.42228774 3.60334557 7.06376171 8.70407883 9 14 C8.67 14.99 8.34 15.98 8 17 C6 16 6 16 5.25390625 14.109375 C5.02574219 13.33078125 4.79757812 12.5521875 4.5625 11.75 C3.4371617 8.13858271 2.03846563 5.20330314 0 2 C0 1.34 0 0.68 0 0 Z " fill="#63C9E9" transform="translate(269,149)"/>
<path d="M0 0 C1.98 0 3.96 0 6 0 C6.33 1.65 6.66 3.3 7 5 C7.66 5 8.32 5 9 5 C9 5.66 9 6.32 9 7 C9.66 7 10.32 7 11 7 C10.67 7.66 10.34 8.32 10 9 C8.70391053 8.06862408 7.41328368 7.1296434 6.125 6.1875 C5.40570313 5.66542969 4.68640625 5.14335938 3.9453125 4.60546875 C2 3 2 3 0 0 Z " fill="#E87658" transform="translate(93,114)"/>
<path d="M0 0 C4.41889613 1.35021826 6.34345343 3.26115668 9 7 C5.51460083 6.35455571 2.97180943 4.89865603 0 3 C-0.33 3.66 -0.66 4.32 -1 5 C-1.66 4.01 -2.32 3.02 -3 2 C-2.01 2 -1.02 2 0 2 C0 1.34 0 0.68 0 0 Z " fill="#F38C80" transform="translate(257,38)"/>
<path d="M0 0 C-0.57352893 3.87132028 -2.48704352 6.08172796 -5 9 C-5.66 8.67 -6.32 8.34 -7 8 C-6.44414399 4.1090079 -4.34122117 0 0 0 Z " fill="#41CF9A" transform="translate(99,241)"/>
<path d="M0 0 C0.99 0.33 1.98 0.66 3 1 C3 1.99 3 2.98 3 4 C4.65 4.33 6.3 4.66 8 5 C7.67 6.65 7.34 8.3 7 10 C3.60582235 6.87378374 1.3937282 4.43458973 0 0 Z " fill="#E47353" transform="translate(86,104)"/>
<path d="M0 0 C-4.42236821 4.27495594 -9.19839226 5.51298598 -15 7 C-13.625 5.5 -13.625 5.5 -12 4 C-11.34 4 -10.68 4 -10 4 C-10 3.34 -10 2.68 -10 2 C-8.71211992 1.46987262 -7.41953322 0.9511671 -6.125 0.4375 C-5.40570313 0.14746094 -4.68640625 -0.14257812 -3.9453125 -0.44140625 C-2 -1 -2 -1 0 0 Z " fill="#E58267" transform="translate(115,33)"/>
<path d="M0 0 C0.66 0 1.32 0 2 0 C2 0.99 2 1.98 2 3 C2.66 3 3.32 3 4 3 C4.33 5.64 4.66 8.28 5 11 C4.01 11.495 4.01 11.495 3 12 C2.49166409 10.75336669 1.99368855 9.50250613 1.5 8.25 C1.2215625 7.55390625 0.943125 6.8578125 0.65625 6.140625 C0 4 0 4 0 0 Z " fill="#40CD9A" transform="translate(81,290)"/>
<path d="M0 0 C0.96661363 3.12180401 0.98988909 5.52083795 0.5625 8.75 C0.40974609 9.94882813 0.40974609 9.94882813 0.25390625 11.171875 C0.12822266 12.07679687 0.12822266 12.07679687 0 13 C-0.66 13 -1.32 13 -2 13 C-2.33 13.99 -2.66 14.98 -3 16 C-2.57910004 10.39538469 -2.08386889 5.27913453 0 0 Z " fill="#E58064" transform="translate(83,60)"/>
<path d="M0 0 C7.75 0.75 7.75 0.75 10 3 C3.71428571 5.42857143 3.71428571 5.42857143 0 4 C0.99 3.67 1.98 3.34 3 3 C2.01 2.01 1.02 1.02 0 0 Z " fill="#B4B9E8" transform="translate(115,227)"/>
<path d="M0 0 C0.99 0.33 1.98 0.66 3 1 C3 2.32 3 3.64 3 5 C3.99 5 4.98 5 6 5 C6 6.65 6 8.3 6 10 C6.66 10.33 7.32 10.66 8 11 C7.01 11 6.02 11 5 11 C4.16151196 9.54462432 3.32936066 8.08559627 2.5 6.625 C1.80390625 5.40683594 1.80390625 5.40683594 1.09375 4.1640625 C0 2 0 2 0 0 Z " fill="#63CAEC" transform="translate(183,198)"/>
<path d="M0 0 C1.32 0.33 2.64 0.66 4 1 C1.36 2.98 -1.28 4.96 -4 7 C-4.33 6.01 -4.66 5.02 -5 4 C-4.0409375 3.8453125 -4.0409375 3.8453125 -3.0625 3.6875 C-2.381875 3.460625 -1.70125 3.23375 -1 3 C-0.67 2.01 -0.34 1.02 0 0 Z " fill="#4FCFA1" transform="translate(161,316)"/>
<path d="M0 0 C0.99 0.33 1.98 0.66 3 1 C3 1.66 3 2.32 3 3 C4.32 3 5.64 3 7 3 C7 4.32 7 5.64 7 7 C7.66 7.33 8.32 7.66 9 8 C6 8 6 8 4.39453125 6.50390625 C3.61142578 5.54291016 3.61142578 5.54291016 2.8125 4.5625 C2.28269531 3.92441406 1.75289063 3.28632813 1.20703125 2.62890625 C0 1 0 1 0 0 Z " fill="#5BD2A7" transform="translate(90,310)"/>
<path d="M0 0 C3.59391114 1.33488128 6.75490696 2.96022723 10 5 C9.34 5.66 8.68 6.32 8 7 C8 6.34 8 5.68 8 5 C5.69 5 3.38 5 1 5 C0.67 3.35 0.34 1.7 0 0 Z " fill="#55C6EB" transform="translate(250,134)"/>
<path d="M0 0 C1.44096586 0.42594588 2.87768712 0.86626633 4.3125 1.3125 C5.11300781 1.55613281 5.91351563 1.79976562 6.73828125 2.05078125 C9.09964573 3.04182023 10.33879993 4.08074943 12 6 C8.87709365 5.51421457 6.00419641 5.0013988 3 4 C3 3.34 3 2.68 3 2 C2.01 1.67 1.02 1.34 0 1 C0 0.67 0 0.34 0 0 Z " fill="#ED9488" transform="translate(245,32)"/>
<path d="M0 0 C0.99 0 1.98 0 3 0 C2.6875 1.9375 2.6875 1.9375 2 4 C1.01 4.33 0.02 4.66 -1 5 C-1.33 5.99 -1.66 6.98 -2 8 C-3 5 -3 5 -1.75 2.3125 C-1.1725 1.549375 -0.595 0.78625 0 0 Z " fill="#AC7AEE" transform="translate(88,151)"/>
<path d="M0 0 C0.33 0.66 0.66 1.32 1 2 C0.67 2.66 0.34 3.32 0 4 C-0.99 4 -1.98 4 -3 4 C-3.33 5.32 -3.66 6.64 -4 8 C-5.32 7.67 -6.64 7.34 -8 7 C-5.36 4.69 -2.72 2.38 0 0 Z " fill="#64CAEB" transform="translate(199,140)"/>
<path d="M0 0 C0.66 0.33 1.32 0.66 2 1 C0.35 4.3 -1.3 7.6 -3 11 C-4 7 -4 7 -3.22265625 5.078125 C-1.61132812 2.5390625 -1.61132812 2.5390625 0 0 Z " fill="#54CEA0" transform="translate(175,298)"/>
<path d="M0 0 C7.75 0.75 7.75 0.75 10 3 C6.65155086 4.05236973 5.40920111 4.20005388 2.1875 2.625 C1.465625 2.08875 0.74375 1.5525 0 1 C0 0.67 0 0.34 0 0 Z " fill="#E37558" transform="translate(105,123)"/>
<path d="M0 0 C0.33 0.66 0.66 1.32 1 2 C0.0625 4.125 0.0625 4.125 -1 6 C-1.66 6 -2.32 6 -3 6 C-3 6.66 -3 7.32 -3 8 C-3.99 7.67 -4.98 7.34 -6 7 C-4.02 4.69 -2.04 2.38 0 0 Z " fill="#E38163" transform="translate(96,42)"/>
<path d="M0 0 C1.60080151 4.00200378 0.29279692 7.04556236 -1 11 C-1.33 11 -1.66 11 -2 11 C-2 8.03 -2 5.06 -2 2 C-1.34 2 -0.68 2 0 2 C0 1.34 0 0.68 0 0 Z " fill="#5DD6AC" transform="translate(179,286)"/>
<path d="M0 0 C0.66 0 1.32 0 2 0 C2 0.66 2 1.32 2 2 C4.31 2.33 6.62 2.66 9 3 C7.3125 4.125 7.3125 4.125 5 5 C2.25 4.125 2.25 4.125 0 3 C0 2.01 0 1.02 0 0 Z " fill="#AF7BEF" transform="translate(108,223)"/>
<path d="M0 0 C5.75 0.875 5.75 0.875 8 2 C7.67 2.66 7.34 3.32 7 4 C5.35 4 3.7 4 2 4 C2 3.34 2 2.68 2 2 C1.34 2 0.68 2 0 2 C0 1.34 0 0.68 0 0 Z " fill="#58C3EC" transform="translate(241,131)"/>
<path d="M0 0 C1.65 0.33 3.3 0.66 5 1 C5 1.66 5 2.32 5 3 C3.02 3.66 1.04 4.32 -1 5 C-0.67 3.35 -0.34 1.7 0 0 Z " fill="#F19284" transform="translate(253,120)"/>
</svg>
